<svg id="레이어_1" data-name="레이어 1" xmlns="http://www.w3.org/2000/svg" xmlns:xlink="http://www.w3.org/1999/xlink" viewBox="0 0 500 500"><defs><style>.cls-1{fill:url(#무제_그라디언트_21);}.cls-2{fill:url(#무제_그라디언트_68);}.cls-3{fill:url(#무제_그라디언트_30);}.cls-4{fill:url(#무제_그라디언트_62);}</style><linearGradient id="무제_그라디언트_21" x1="155.56" y1="208.1" x2="434.15" y2="-70.5" gradientUnits="userSpaceOnUse"><stop offset="0" stop-color="#ff2f00"/><stop offset="0.13" stop-color="#ff3f00"/><stop offset="0.39" stop-color="#ff6700"/><stop offset="0.59" stop-color="#ff8b00"/></linearGradient><linearGradient id="무제_그라디언트_68" x1="390.79" y1="391.57" x2="390.79" y2="71.58" gradientUnits="userSpaceOnUse"><stop offset="0.2" stop-color="#ef0048"/><stop offset="0.79" stop-color="#ff8b00"/></linearGradient><linearGradient id="무제_그라디언트_30" x1="-0.9" y1="350.51" x2="253.55" y2="96.05" gradientUnits="userSpaceOnUse"><stop offset="0.09" stop-color="#840000"/><stop offset="0.26" stop-color="#a90e00"/><stop offset="0.45" stop-color="#ce1c00"/><stop offset="0.64" stop-color="#e92700"/><stop offset="0.8" stop-color="#f92d00"/><stop offset="0.93" stop-color="#ff2f00"/></linearGradient><linearGradient id="무제_그라디언트_62" x1="116.3" y1="487.26" x2="356.3" y2="348.69" gradientUnits="userSpaceOnUse"><stop offset="0.07" stop-color="#840000"/><stop offset="0.88" stop-color="#d20168"/></linearGradient></defs><path class="cls-1" d="M410.05,58.1A248.81,248.81,0,0,0,258.84.32L131.46,336.7Z"/><path class="cls-2" d="M441.82,89.93l-160,160,160,160C519.08,317.48,519.09,182.37,441.82,89.93Z"/><path class="cls-3" d="M196.22,38.71.73,234.2a249.29,249.29,0,0,0,55.7,173.64Z"/><path class="cls-4" d="M250,281.73l-160,160c92.44,77.27,227.55,77.27,320,0Z"/></svg>