<svg width="63" height="10" viewBox="0 0 63 10" fill="none" xmlns="http://www.w3.org/2000/svg">
<path d="M3.2779 3.78965V3.84229C3.2779 4.28965 3.44796 4.68439 3.78807 5.0265C4.12818 5.35983 4.61858 5.5265 5.25926 5.5265H5.31858C5.96716 5.5265 6.43383 5.35983 6.71858 5.0265C7.00333 4.69317 7.1457 4.29843 7.1457 3.84229V3.78965C7.1457 3.31597 7.00333 2.92123 6.71858 2.60544C6.44174 2.28088 5.97507 2.1186 5.31858 2.1186H5.25926C4.60275 2.1186 4.10841 2.28088 3.77621 2.60544C3.444 2.93001 3.2779 3.32475 3.2779 3.78965ZM0.0507812 0.289654H3.2779V1.2765C3.42028 1.13614 3.58638 1.00018 3.77621 0.868601C3.97394 0.72825 4.31801 0.574741 4.80841 0.408075C5.2988 0.241408 5.82479 0.158075 6.38638 0.158075H6.63553C7.33948 0.158075 7.94457 0.254566 8.45078 0.447549C8.9649 0.631759 9.36038 0.894917 9.63722 1.23702C9.91406 1.57035 10.1118 1.93439 10.2304 2.32913C10.357 2.71509 10.4203 3.14492 10.4203 3.6186V3.89492C10.4203 4.35983 10.353 4.79843 10.2186 5.21071C10.092 5.61422 9.88638 5.9958 9.60163 6.35544C9.31688 6.70633 8.9135 6.98702 8.39146 7.19755C7.86943 7.3993 7.25248 7.50018 6.54061 7.50018H6.31519C5.76943 7.50018 5.2553 7.43001 4.77282 7.28965C4.29824 7.14054 3.95812 7.00018 3.75248 6.8686C3.55473 6.73702 3.39655 6.61422 3.2779 6.50018V9.84229H0.0507812V0.289654ZM16.8226 4.32913V4.0265L14.687 4.44755C14.4022 4.50018 14.2005 4.57035 14.0819 4.65808C13.9632 4.7458 13.9039 4.87738 13.9039 5.05281V5.06597C13.9039 5.26772 13.979 5.43877 14.1293 5.57913C14.2875 5.71948 14.5485 5.78965 14.9124 5.78965C15.4819 5.78965 15.9406 5.64492 16.2887 5.35544C16.6446 5.05719 16.8226 4.71509 16.8226 4.32913ZM16.8819 6.42123C16.2333 7.14054 15.2366 7.50018 13.892 7.50018H13.7615C12.7649 7.50018 12.0214 7.28088 11.531 6.84229C11.0485 6.40369 10.8073 5.86422 10.8073 5.22386V5.06597C10.8073 4.45193 11.005 3.97825 11.4005 3.64492C11.8039 3.30281 12.4683 3.09229 13.3937 3.01334L16.4666 2.71071C16.7039 2.67561 16.8226 2.56159 16.8226 2.3686C16.8226 2.26334 16.7948 2.17561 16.7395 2.10544C16.692 2.03527 16.5615 1.97386 16.348 1.92123C16.1344 1.85983 15.8299 1.82913 15.4344 1.82913H15.387C15.0705 1.82913 14.8056 1.85544 14.592 1.90808C14.3863 1.95193 14.24 2.02211 14.1531 2.1186C14.0739 2.21509 14.0226 2.28965 13.9988 2.34229C13.9829 2.38614 13.9672 2.45633 13.9514 2.55281H10.9615V2.47386C10.9615 2.23702 10.9773 2.03088 11.009 1.85544C11.0485 1.68001 11.1474 1.47386 11.3056 1.23702C11.4637 1.00018 11.6773 0.807197 11.9463 0.658074C12.2231 0.508951 12.6265 0.381759 13.1565 0.276496C13.6943 0.162461 14.327 0.105443 15.0548 0.105443H15.7192C16.4785 0.105443 17.1349 0.158075 17.6887 0.263338C18.2423 0.359829 18.6615 0.482636 18.9463 0.631759C19.231 0.772109 19.4565 0.95632 19.6226 1.18439C19.7887 1.40369 19.8875 1.60106 19.9192 1.7765C19.9587 1.94317 19.9785 2.14492 19.9785 2.38176V5.00018C19.9785 5.20193 20.0694 5.30281 20.2514 5.30281H20.5954V7.3686H17.9141C17.3209 7.3686 16.9768 7.05281 16.8819 6.42123ZM21.1495 7.3686V0.289654H24.3529V1.53965C24.4715 1.41685 24.5625 1.32475 24.6258 1.26334C24.697 1.19316 24.8433 1.07474 25.0648 0.908075C25.2941 0.741408 25.5156 0.614215 25.7292 0.526496C25.9427 0.430004 26.2195 0.342286 26.5597 0.263338C26.9077 0.175618 27.2715 0.131759 27.6512 0.131759H27.7224C28.2919 0.131759 28.7863 0.219478 29.2054 0.394917C29.6326 0.561583 29.9608 0.785267 30.1902 1.06597C30.4195 1.3379 30.5856 1.62298 30.6885 1.92123C30.7992 2.21071 30.8546 2.50896 30.8546 2.81597V7.3686H27.6156V3.98702C27.6156 3.48702 27.489 3.09229 27.2359 2.80281C26.9907 2.50456 26.6032 2.35544 26.0732 2.35544C25.5433 2.35544 25.128 2.51334 24.8275 2.82913C24.5269 3.14492 24.3766 3.56159 24.3766 4.07913V7.3686H21.1495ZM36.7329 2.15808H36.6617C36.0053 2.15808 35.5307 2.29404 35.238 2.56597C34.9533 2.8379 34.8109 3.17561 34.8109 3.57913V3.64492C34.8109 4.06597 34.9572 4.42123 35.2499 4.71071C35.5504 5.00018 36.0211 5.14492 36.6617 5.14492H36.7329C37.3973 5.14492 37.9036 5.00018 38.2516 4.71071C38.5996 4.41246 38.7736 4.05719 38.7736 3.64492V3.60544C38.7736 3.19317 38.5996 2.85106 38.2516 2.57913C37.9114 2.29843 37.4053 2.15808 36.7329 2.15808ZM37.3261 9.93439H36.4126C35.6612 9.93439 34.9968 9.8686 34.4194 9.73702C33.8499 9.60544 33.4109 9.44755 33.1024 9.26334C32.8019 9.07913 32.5567 8.85983 32.3668 8.60544C32.1849 8.35983 32.0663 8.14492 32.0109 7.96071C31.9634 7.7765 31.9397 7.59229 31.9397 7.40808V7.3686H35.1787C35.2578 7.76334 35.8114 7.96071 36.8397 7.96071H36.8753C38.1646 7.96071 38.8092 7.35983 38.8092 6.15808V6.01334C38.1765 6.71509 37.1402 7.06597 35.7007 7.06597H35.5109C34.1504 7.06597 33.1499 6.7458 32.5092 6.10544C31.8685 5.46509 31.5482 4.66246 31.5482 3.69755V3.46071C31.5482 2.53088 31.8487 1.75018 32.4499 1.1186C33.051 0.47825 34.0002 0.158075 35.2973 0.158075H35.5584C36.9663 0.158075 38.046 0.504566 38.7973 1.19755V0.289654H42.0245V6.18439C42.0245 6.50896 41.9889 6.82475 41.9177 7.13176C41.8544 7.43877 41.7199 7.76772 41.5143 8.1186C41.3087 8.46948 41.0397 8.77211 40.7075 9.0265C40.3833 9.28965 39.9284 9.50456 39.3431 9.67123C38.7578 9.84667 38.0855 9.93439 37.3261 9.93439ZM47.7713 1.82913C46.7194 1.82913 46.1064 2.18439 45.9324 2.89492H49.6103C49.4759 2.18439 48.8629 1.82913 47.7713 1.82913ZM52.8137 4.78965V4.81597C52.8137 5.05281 52.7861 5.2765 52.7307 5.48702C52.6754 5.69755 52.5488 5.93877 52.351 6.21071C52.1533 6.47387 51.8923 6.70193 51.5679 6.89492C51.2437 7.07913 50.781 7.23702 50.1798 7.3686C49.5866 7.50018 48.8945 7.56597 48.1035 7.56597H47.4747C46.7234 7.56597 46.0589 7.4914 45.4815 7.34229C44.9042 7.19317 44.4454 7.00018 44.1052 6.76334C43.7652 6.5265 43.4883 6.2458 43.2747 5.92123C43.0612 5.5879 42.9149 5.26334 42.8357 4.94755C42.7646 4.62298 42.729 4.28088 42.729 3.92123V3.65808C42.729 1.28088 44.2991 0.0922852 47.4391 0.0922852H48.0917C48.6691 0.0922852 49.1911 0.136145 49.6578 0.223865C50.1324 0.302812 50.5318 0.412461 50.8561 0.552812C51.1805 0.693162 51.4612 0.868601 51.6985 1.07913C51.9437 1.28965 52.1374 1.50456 52.2798 1.72386C52.4222 1.93439 52.5369 2.17561 52.6239 2.44755C52.711 2.71071 52.7662 2.96071 52.79 3.19755C52.8217 3.42561 52.8374 3.67561 52.8374 3.94755V4.34229H45.8968C46.0076 5.21071 46.6522 5.64492 47.8307 5.64492H47.8425C48.1273 5.64492 48.3805 5.6186 48.6018 5.56597C48.8313 5.51334 49.0052 5.45633 49.1239 5.39492C49.2505 5.32475 49.3533 5.2458 49.4324 5.15808C49.5115 5.07035 49.5629 5.00018 49.5866 4.94755C49.6103 4.88614 49.6262 4.83351 49.634 4.78965H52.8137ZM59.2169 4.32913V4.0265L57.0813 4.44755C56.7966 4.50018 56.5949 4.57035 56.4762 4.65808C56.3576 4.7458 56.2983 4.87738 56.2983 5.05281V5.06597C56.2983 5.26772 56.3734 5.43877 56.5237 5.57913C56.6819 5.71948 56.9429 5.78965 57.3068 5.78965C57.8762 5.78965 58.3349 5.64492 58.683 5.35544C59.039 5.05719 59.2169 4.71509 59.2169 4.32913ZM59.2762 6.42123C58.6276 7.14054 57.631 7.50018 56.2864 7.50018H56.1559C55.1593 7.50018 54.4158 7.28088 53.9254 6.84229C53.4429 6.40369 53.2017 5.86422 53.2017 5.22386V5.06597C53.2017 4.45193 53.3993 3.97825 53.7949 3.64492C54.1983 3.30281 54.8627 3.09229 55.7881 3.01334L58.861 2.71071C59.0983 2.67561 59.2169 2.56159 59.2169 2.3686C59.2169 2.26334 59.1892 2.17561 59.1339 2.10544C59.0864 2.03527 58.9559 1.97386 58.7424 1.92123C58.5288 1.85983 58.2242 1.82913 57.8288 1.82913H57.7813C57.4649 1.82913 57.2 1.85544 56.9864 1.90808C56.7807 1.95193 56.6344 2.02211 56.5474 2.1186C56.4683 2.21509 56.4169 2.28965 56.3932 2.34229C56.3773 2.38614 56.3615 2.45633 56.3457 2.55281H53.3559V2.47386C53.3559 2.23702 53.3717 2.03088 53.4034 1.85544C53.4429 1.68001 53.5417 1.47386 53.7 1.23702C53.8581 1.00018 54.0717 0.807197 54.3407 0.658074C54.6175 0.508951 55.0208 0.381759 55.5508 0.276496C56.0886 0.162461 56.7214 0.105443 57.4491 0.105443H58.1135C58.8729 0.105443 59.5293 0.158075 60.083 0.263338C60.6366 0.359829 61.0559 0.482636 61.3407 0.631759C61.6254 0.772109 61.8508 0.95632 62.0169 1.18439C62.183 1.40369 62.2819 1.60106 62.3135 1.7765C62.353 1.94317 62.3729 2.14492 62.3729 2.38176V5.00018C62.3729 5.20193 62.4637 5.30281 62.6457 5.30281H62.9898V7.3686H60.3085C59.7152 7.3686 59.3712 7.05281 59.2762 6.42123Z" fill="#030229"/>
</svg>
