<svg width="20" height="21" viewBox="0 0 20 21" fill="none" xmlns="http://www.w3.org/2000/svg">
<path d="M0 18.5096H11.6667V20.1763H0V18.5096Z" fill="black"/>
<path d="M10.0013 16.8294C10.0013 16.6083 9.91351 16.3964 9.75723 16.2401C9.60095 16.0838 9.38899 15.996 9.16797 15.996H2.5013C2.28029 15.996 2.06833 16.0838 1.91205 16.2401C1.75577 16.3964 1.66797 16.6083 1.66797 16.8294V17.6762H10.0013V16.8294Z" fill="black"/>
<path d="M11.3376 10.016C10.9493 10.4298 10.6237 10.8983 10.3711 11.4064L17.2303 18.2656C17.3865 18.4218 17.5985 18.5096 17.8194 18.5096C18.0404 18.5096 18.2523 18.4218 18.4086 18.2656L19.5871 17.087C19.6645 17.0096 19.7259 16.9178 19.7678 16.8167C19.8097 16.7156 19.8312 16.6072 19.8312 16.4978C19.8312 16.3883 19.8097 16.28 19.7678 16.1788C19.7259 16.0777 19.6645 15.9859 19.5871 15.9085L12.728 9.05121C12.2189 9.30156 11.7502 9.62677 11.3376 10.016Z" fill="black"/>
<path d="M7.21276 5.89121C6.58258 6.47604 5.85309 6.94371 5.05859 7.27225L9.36568 11.5793C9.69716 10.7862 10.1653 10.0574 10.7488 9.42621C11.379 8.84141 12.1085 8.37367 12.903 8.04496L8.59568 3.73871C8.26408 4.53153 7.79602 5.26007 7.21276 5.89121Z" fill="black"/>
<path d="M10.1581 0.589189L8.97979 1.76752C8.6544 2.09291 8.6544 2.62047 8.97979 2.94586L13.6931 7.65919C14.0185 7.98458 14.5461 7.98458 14.8715 7.65919L16.0498 6.48086C16.3752 6.15547 16.3752 5.62791 16.0498 5.30252L11.3365 0.589189C11.0111 0.263802 10.4835 0.263802 10.1581 0.589189Z" fill="black"/>
<path d="M3.08781 7.65889L1.90948 8.83723C1.58409 9.16261 1.58409 9.69017 1.90948 10.0156L6.62281 14.7289C6.9482 15.0543 7.47575 15.0543 7.80114 14.7289L8.97947 13.5506C9.30486 13.2252 9.30486 12.6976 8.97947 12.3722L4.26614 7.65889C3.94076 7.33351 3.4132 7.33351 3.08781 7.65889Z" fill="black"/>
</svg>
