<svg width="20" height="21" viewBox="0 0 20 21" fill="none" xmlns="http://www.w3.org/2000/svg">
<path d="M10 0C8.0222 0 6.0888 0.601233 4.4443 1.72767C2.79981 2.8541 1.51809 4.45515 0.76121 6.32834C0.00433283 8.20153 -0.193701 10.2627 0.192152 12.2513C0.578004 14.2399 1.53041 16.0665 2.92894 17.5002C4.32746 18.9339 6.10929 19.9102 8.04911 20.3058C9.98892 20.7013 11.9996 20.4983 13.8268 19.7224C15.6541 18.9465 17.2159 17.6326 18.3147 15.9467C19.4135 14.2609 20 12.2789 20 10.2514C19.9995 7.53269 18.9458 4.9255 17.0706 3.0031C15.1953 1.0807 12.652 0.000491172 10 0ZM14.2857 13.1803H7.98215L8.84644 14.2018C9.77023 15.2979 8.15318 16.7312 7.22501 15.637L4.90358 12.8911C4.34805 12.2356 4.70253 10.9836 5.71429 10.9836H14.2857C15.7026 10.9836 15.7025 13.1803 14.2857 13.1803ZM14.375 9.51913C14.3607 9.51913 14.3464 9.51547 14.3322 9.51547C14.3143 9.51547 14.3 9.51913 14.2857 9.51913H5.71429C4.29739 9.51913 4.29751 7.32241 5.71429 7.32241H12.0286L11.2429 6.39246C10.3185 5.29561 11.9361 3.85737 12.8643 4.95727L15.1857 7.70317C15.3193 7.86256 15.4055 8.05785 15.4342 8.26593C15.4629 8.474 15.4328 8.68614 15.3475 8.87721C15.2622 9.06829 15.1252 9.23031 14.9529 9.34407C14.7805 9.45784 14.58 9.51859 14.375 9.51913Z" fill="black"/>
</svg>
