<svg width="20" height="20" viewBox="0 0 20 20" fill="none" xmlns="http://www.w3.org/2000/svg">
<path d="M17.0711 2.92892C15.1823 1.04019 12.6711 0 10 0C7.32895 0 4.81766 1.04019 2.92892 2.92892C1.04019 4.81766 0 7.32895 0 10C0 12.6712 1.04019 15.1823 2.92892 17.0711C4.81766 18.9598 7.32895 20 10 20C12.6711 20 15.1823 18.9598 17.0711 17.0711C18.9598 15.1823 20 12.6712 20 10C20 7.32895 18.9598 4.81766 17.0711 2.92892ZM14.3253 12.944C14.7066 13.3255 14.7066 13.9438 14.3253 14.3251C14.1345 14.5158 13.8846 14.6112 13.6346 14.6112C13.3847 14.6112 13.1348 14.5158 12.944 14.3251L10 11.3811L7.05597 14.3253C6.86523 14.5158 6.6153 14.6112 6.36536 14.6112C6.11542 14.6112 5.86548 14.5158 5.67474 14.3253C5.29343 13.9438 5.29343 13.3255 5.67474 12.9442L8.61893 10L5.67474 7.05597C5.29343 6.6745 5.29343 6.05621 5.67474 5.6749C6.05621 5.29343 6.6745 5.29343 7.05582 5.6749L10 8.61893L12.944 5.6749C13.3255 5.29358 13.9438 5.29343 14.3251 5.6749C14.7066 6.05621 14.7066 6.6745 14.3251 7.05597L11.3811 10L14.3253 12.944Z" fill="black"/>
</svg>
