<svg width="20" height="20" viewBox="0 0 20 20" fill="none" xmlns="http://www.w3.org/2000/svg">
<g clip-path="url(#clip0_1197_16773)">
<path d="M10 2.88083C9.655 2.88083 9.375 2.60083 9.375 2.25583V0.625C9.375 0.28 9.655 0 10 0C10.345 0 10.625 0.28 10.625 0.625V2.25583C10.625 2.60083 10.345 2.88083 10 2.88083Z" fill="black"/>
<path d="M15.4764 5.14913C15.3164 5.14913 15.1564 5.0883 15.0347 4.9658C14.7905 4.72163 14.7905 4.3258 15.0347 4.08163L16.188 2.9283C16.4322 2.68414 16.828 2.68414 17.0722 2.9283C17.3164 3.17247 17.3164 3.5683 17.0722 3.81247L15.9189 4.9658C15.7964 5.08747 15.6364 5.14913 15.4764 5.14913Z" fill="black"/>
<path d="M19.3769 10.625H17.7461C17.4011 10.625 17.1211 10.345 17.1211 10C17.1211 9.655 17.4011 9.375 17.7461 9.375H19.3769C19.7219 9.375 20.0019 9.655 20.0019 10C20.0019 10.345 19.7219 10.625 19.3769 10.625Z" fill="black"/>
<path d="M16.6297 17.2542C16.4697 17.2542 16.3097 17.1933 16.188 17.0708L15.0347 15.9175C14.7905 15.6733 14.7905 15.2775 15.0347 15.0333C15.2789 14.7892 15.6747 14.7892 15.9189 15.0333L17.0722 16.1867C17.3164 16.4308 17.3164 16.8267 17.0722 17.0708C16.9497 17.1933 16.7897 17.2542 16.6297 17.2542Z" fill="black"/>
<path d="M3.37089 17.2542C3.21089 17.2542 3.05089 17.1933 2.92922 17.0708C2.68505 16.8267 2.68505 16.4308 2.92922 16.1867L4.08255 15.0333C4.32672 14.7892 4.72255 14.7892 4.96672 15.0333C5.21089 15.2775 5.21089 15.6733 4.96672 15.9175L3.81339 17.0708C3.69089 17.1933 3.53089 17.2542 3.37089 17.2542Z" fill="black"/>
<path d="M2.25583 10.625H0.625C0.28 10.625 0 10.345 0 10C0 9.655 0.28 9.375 0.625 9.375H2.25583C2.60083 9.375 2.88083 9.655 2.88083 10C2.88083 10.345 2.60083 10.625 2.25583 10.625Z" fill="black"/>
<path d="M4.52422 5.14913C4.36422 5.14913 4.20422 5.0883 4.08255 4.9658L2.92922 3.81247C2.68505 3.5683 2.68505 3.17247 2.92922 2.9283C3.17339 2.68414 3.56922 2.68414 3.81339 2.9283L4.96672 4.08163C5.21089 4.3258 5.21089 4.72163 4.96672 4.9658C4.84339 5.08747 4.68422 5.14913 4.52422 5.14913Z" fill="black"/>
<path d="M12.5 17.5V18.5417C12.5 19.3417 11.8417 20 11.0417 20H8.95833C8.25833 20 7.5 19.4667 7.5 18.3V17.5H12.5Z" fill="black"/>
<path d="M13.6735 5.46664C12.3068 4.35831 10.5068 3.92498 8.74846 4.29998C6.54013 4.75831 4.74847 6.55831 4.29013 8.76664C3.82347 11.0333 4.67347 13.2833 6.49013 14.6583C6.9818 15.025 7.32346 15.5916 7.44013 16.25V16.2583C7.4568 16.25 7.4818 16.25 7.49846 16.25H12.4985C12.5151 16.25 12.5235 16.25 12.5401 16.2583V16.25C12.6568 15.6166 13.0318 15.0333 13.6068 14.5833C15.0151 13.4666 15.8318 11.8 15.8318 9.99997C15.8318 8.23331 15.0485 6.58331 13.6735 5.46664ZM13.1235 10.4166C12.7818 10.4166 12.4985 10.1333 12.4985 9.79164C12.4985 8.52497 11.4735 7.49997 10.2068 7.49997C9.86513 7.49997 9.5818 7.21664 9.5818 6.87497C9.5818 6.53331 9.86513 6.24998 10.2068 6.24998C12.1568 6.24998 13.7485 7.84164 13.7485 9.79164C13.7485 10.1333 13.4651 10.4166 13.1235 10.4166Z" fill="black"/>
<path d="M7.44141 16.25H7.49973C7.48307 16.25 7.45807 16.25 7.44141 16.2583V16.25Z" fill="black"/>
<path d="M12.5417 16.25V16.2583C12.525 16.25 12.5167 16.25 12.5 16.25H12.5417Z" fill="black"/>
</g>
<defs>
<clipPath id="clip0_1197_16773">
<rect width="20" height="20" fill="white"/>
</clipPath>
</defs>
</svg>
