<svg width="24" height="24" viewBox="0 0 24 24" fill="none" xmlns="http://www.w3.org/2000/svg">
<path fill-rule="evenodd" clip-rule="evenodd" d="M9.75 1.25V7.95943L11.7628 7.28849C11.9168 7.23717 12.0832 7.23717 12.2372 7.28849L14.25 7.95943V1.25H9.75ZM8.25 1.25L8.25 9C8.25 9.24108 8.36589 9.46747 8.56147 9.60843C8.75704 9.7494 9.00846 9.78775 9.23717 9.71151L12 8.79057L14.7628 9.71151C14.9915 9.78775 15.243 9.7494 15.4385 9.60843C15.6341 9.46747 15.75 9.24108 15.75 9V1.25H17C20.1756 1.25 22.75 3.82436 22.75 7V17C22.75 20.1756 20.1756 22.75 17 22.75H7C3.82436 22.75 1.25 20.1756 1.25 17V7C1.25 3.82436 3.82436 1.25 7 1.25H8.25ZM14.75 17C14.75 17.4142 14.4142 17.75 14 17.75H10C9.58579 17.75 9.25 17.4142 9.25 17C9.25 16.5858 9.58579 16.25 10 16.25H14C14.4142 16.25 14.75 16.5858 14.75 17Z" fill="#464F60" fill-opacity="0.6"/>
</svg>
