<svg width="33" height="32" viewBox="0 0 33 32" fill="none" xmlns="http://www.w3.org/2000/svg">
<path d="M16.6659 31.9997C25.5024 31.9997 32.6658 24.8364 32.6658 15.9999C32.6658 7.16339 25.5024 0 16.6659 0C7.8294 0 0.666016 7.16339 0.666016 15.9999C0.666016 24.8364 7.8294 31.9997 16.6659 31.9997Z" fill="#464F60" fill-opacity="0.4"/>
<path d="M14.9167 20.1623L13.5154 21.4523C13.148 21.8004 12.6497 21.996 12.13 21.996C11.6104 21.996 11.1121 21.8004 10.7446 21.4523C10.3772 21.1042 10.1708 20.6321 10.1708 20.1398C10.1708 19.6475 10.3772 19.1754 10.7446 18.8273L14.3388 15.4148C14.6916 15.0795 15.1669 14.8855 15.6664 14.873C16.166 14.8604 16.6515 15.0302 17.0225 15.3473L17.1175 15.4223C17.2677 15.5616 17.47 15.6386 17.6801 15.6365C17.8902 15.6344 18.0908 15.5533 18.2377 15.4111C18.3847 15.2689 18.466 15.0771 18.4638 14.8781C18.4616 14.6791 18.376 14.4891 18.2259 14.3498C18.1812 14.2951 18.1336 14.2425 18.0834 14.1923C17.4076 13.6353 16.5335 13.3425 15.6384 13.3731C14.7432 13.4037 13.8937 13.7556 13.2621 14.3573L9.62045 17.7698C9.00165 18.4079 8.66698 19.2478 8.68634 20.1141C8.7057 20.9805 9.07759 21.8062 9.72434 22.4189C10.3711 23.0316 11.2427 23.3839 12.1571 23.4023C13.0716 23.4206 13.9582 23.1036 14.6317 22.5173L16.0013 21.2498C16.1365 21.1101 16.2109 20.927 16.2093 20.7374C16.2078 20.5478 16.1306 20.3658 15.9931 20.228C15.8557 20.0902 15.6683 20.0068 15.4685 19.9946C15.2688 19.9824 15.0717 20.0423 14.9167 20.1623V20.1623ZM23.3796 9.48233C22.7137 8.85533 21.8129 8.50342 20.874 8.50342C19.9351 8.50342 19.0343 8.85533 18.3684 9.48233L16.9988 10.7498C16.8636 10.8896 16.7892 11.0727 16.7907 11.2623C16.7922 11.4519 16.8695 11.6339 17.0069 11.7717C17.1444 11.9095 17.3318 11.9929 17.5315 12.0051C17.7312 12.0172 17.9284 11.9573 18.0834 11.8373L19.4529 10.5473C19.8204 10.1992 20.3187 10.0037 20.8384 10.0037C21.358 10.0037 21.8563 10.1992 22.2238 10.5473C22.5912 10.8954 22.7976 11.3675 22.7976 11.8598C22.7976 12.3521 22.5912 12.8242 22.2238 13.1723L18.6296 16.5848C18.2768 16.9201 17.8015 17.1141 17.302 17.1267C16.8024 17.1392 16.3169 16.9694 15.9459 16.6523L15.8509 16.5773C15.7007 16.4381 15.4984 16.361 15.2883 16.3632C15.0782 16.3653 14.8776 16.4464 14.7307 16.5886C14.5837 16.7308 14.5024 16.9225 14.5046 17.1215C14.5068 17.3206 14.5924 17.5106 14.7425 17.6498C14.8 17.7055 14.8608 17.7581 14.9246 17.8073C15.6012 18.3627 16.4749 18.6544 17.3695 18.6238C18.2642 18.5932 19.1133 18.2425 19.7459 17.6423L23.3479 14.2298C24.014 13.6029 24.3912 12.7517 24.3971 11.8623C24.403 10.9728 24.0373 10.1172 23.3796 9.48233V9.48233Z" fill="white"/>
</svg>
