<svg width="22" height="22" viewBox="0 0 22 22" fill="none" xmlns="http://www.w3.org/2000/svg">
<path d="M7.70001 10.1C7.20296 10.1 6.80001 10.503 6.80001 11C6.80001 11.4971 7.20296 11.9 7.70001 11.9L7.70001 10.1ZM14.3 11.9C14.7971 11.9 15.2 11.4971 15.2 11C15.2 10.503 14.7971 10.1 14.3 10.1L14.3 11.9ZM11.9 7.70001C11.9 7.20296 11.4971 6.80001 11 6.80001C10.503 6.80001 10.1 7.20296 10.1 7.70001H11.9ZM10.1 14.3C10.1 14.7971 10.503 15.2 11 15.2C11.4971 15.2 11.9 14.7971 11.9 14.3L10.1 14.3ZM7.70001 11.9L11 11.9L11 10.1L7.70001 10.1L7.70001 11.9ZM11 11.9L14.3 11.9L14.3 10.1L11 10.1L11 11.9ZM10.1 7.70001V11H11.9V7.70001H10.1ZM10.1 11L10.1 14.3L11.9 14.3L11.9 11L10.1 11Z" fill="#FC6825"/>
<circle cx="11" cy="11" r="8.25" stroke="#FC6825" stroke-width="1.8" stroke-linecap="round" stroke-linejoin="round"/>
</svg>
