<svg width="36" height="36" viewBox="0 0 36 36" fill="none" xmlns="http://www.w3.org/2000/svg">
<path d="M18 36C27.9411 36 36 27.9411 36 18C36 8.05888 27.9411 0 18 0C8.05888 0 0 8.05888 0 18C0 27.9411 8.05888 36 18 36Z" fill="#C5C5C5"/>
<g clip-path="url(#clip0_0_14523)">
<path d="M29.9233 20.0756C29.6465 16.8446 28.5884 13.8948 26.9239 11.1515C26.6565 10.6869 26.2399 10.332 25.7454 10.1478C24.5008 9.64749 23.214 9.26585 21.9011 9.00768C21.7735 8.98372 21.7082 9.01935 21.6555 9.13422C21.5081 9.45179 21.3427 9.76077 21.2091 10.0845C21.1492 10.2307 21.0749 10.2559 20.9395 10.235C19.9844 10.0893 19.0185 10.0305 18.0533 10.0593C17.4022 10.0709 16.7527 10.1275 16.109 10.2288C15.9395 10.2571 15.8472 10.2288 15.7741 10.0446C15.6471 9.7276 15.4745 9.43029 15.3307 9.11824C15.2786 9.00583 15.2109 8.98618 15.0983 9.00768C13.562 9.29541 12.0652 9.77162 10.6399 10.426C10.5454 10.4701 10.4657 10.542 10.411 10.6324C8.92271 12.9439 7.85021 15.4336 7.33912 18.1646C7.20007 18.9178 7.10245 19.6785 7.04674 20.443C7.04374 20.4841 7.06171 20.5382 7 20.5554V20.7397C7.03954 20.7814 7.01678 20.833 7.02337 20.8803C7.02337 20.9104 7.02337 20.9417 7.02337 20.97C7.02337 20.9983 7.02337 21.0314 7.02337 21.0591C7.01678 21.1064 7.03895 21.1586 7 21.2004V21.338C7.03716 21.4421 7.03716 21.5563 7 21.6604V22.029C7.03716 22.1331 7.03716 22.2474 7 22.3515V22.674C7.02996 22.7022 7.02097 22.7403 7.02337 22.7753C7.02576 22.8104 7.02337 22.83 7.02337 22.8577C7.02337 22.8853 7.02337 22.9123 7.02337 22.94C7.02337 22.9676 7.03056 23.0137 7 23.0419V23.2262C7.04853 23.3122 7.01977 23.4062 7.02157 23.4959C7.02816 23.803 7.07729 24.0487 7.36729 24.2521C8.997 25.394 10.7226 26.3228 12.6111 26.9346C12.9107 27.0323 12.9706 27.0138 13.1504 26.7442C13.4548 26.297 13.7298 25.8313 13.9892 25.3571C14.2487 24.8829 14.251 24.8743 13.7669 24.6716C13.3361 24.4935 12.9281 24.265 12.5159 24.0475C12.4428 24.0088 12.3301 23.975 12.4128 23.8466C12.4617 23.7688 12.5366 23.7118 12.6235 23.6864C12.7104 23.6609 12.8033 23.6688 12.885 23.7084C14.5428 24.4668 16.3297 24.8842 18.1444 24.937C18.6069 24.9443 19.0695 24.937 19.5339 24.902C20.8253 24.7992 22.0962 24.5097 23.3086 24.042C23.5956 23.932 23.8778 23.8079 24.1606 23.6869C24.3032 23.6255 24.5656 23.7385 24.5914 23.8774C24.6207 24.0321 24.4715 24.0506 24.3799 24.0979C23.9335 24.3313 23.4889 24.569 23.0192 24.7527C22.7999 24.8381 22.7795 24.9155 22.8808 25.1213C23.1653 25.6875 23.4886 26.2323 23.8484 26.7515C24.0473 27.0372 24.0653 27.0384 24.3877 26.9321C25.506 26.5635 26.589 26.0906 27.6231 25.5193C28.3586 25.1068 29.0691 24.6492 29.7507 24.1489C29.8178 24.1075 29.8724 24.048 29.9087 23.977C29.9449 23.9059 29.9614 23.8259 29.9563 23.7459C29.9477 23.5561 29.9614 23.366 29.997 23.1795V22.9031C29.9664 22.8749 29.9754 22.8368 29.9736 22.8018V22.6371C29.9736 22.6015 29.9664 22.5634 29.997 22.5352V22.2587C29.9587 22.0146 29.9587 21.7658 29.997 21.5216V21.2458C29.9407 21.2114 29.9539 21.1574 29.9575 21.1058C29.9575 21.075 29.9575 21.0443 29.9575 21.0136C29.9575 20.9829 29.9575 20.9522 29.9575 20.9215C29.9575 20.8908 29.9401 20.8428 29.9952 20.8312V20.6008C29.9866 20.5886 29.9801 20.5748 29.976 20.5603C29.9125 20.4067 29.9371 20.2359 29.9233 20.0756ZM16.0539 20.6512C15.2864 21.4393 14.1222 21.4461 13.3403 20.6715C12.4344 19.7728 12.3745 18.1751 13.2103 17.2064C14.1935 16.0669 15.873 16.3464 16.5183 17.7543C16.679 18.1018 16.7588 18.4828 16.7513 18.8674C16.7388 19.5523 16.5333 20.1592 16.0539 20.6512ZM23.7094 20.6408C22.9413 21.4393 21.7669 21.4504 20.9796 20.6678C20.0174 19.712 20.0258 17.9975 20.9964 17.0534C22.0587 16.0196 23.7412 16.4944 24.2481 17.9717C24.3457 18.2555 24.4008 18.5473 24.3936 18.7187C24.3889 19.5369 24.1857 20.145 23.7094 20.6408Z" fill="#FEFEFE"/>
</g>
<defs>
<clipPath id="clip0_0_14523">
<rect width="23" height="18" fill="white" transform="translate(7 9.00024)"/>
</clipPath>
</defs>
</svg>
