<svg width="33" height="32" viewBox="0 0 33 32" fill="none" xmlns="http://www.w3.org/2000/svg">
<path d="M16.7772 31.9997C25.6137 31.9997 32.7771 24.8364 32.7771 15.9999C32.7771 7.16339 25.6137 0 16.7772 0C7.94073 0 0.777344 7.16339 0.777344 15.9999C0.777344 24.8364 7.94073 31.9997 16.7772 31.9997Z" fill="#464F60" fill-opacity="0.4"/>
<path d="M16.5 11.7082C15.6347 11.7082 14.7888 11.9892 14.0694 12.5157C13.3499 13.0422 12.7892 13.7906 12.458 14.6661C12.1269 15.5417 12.0403 16.5052 12.2091 17.4346C12.3779 18.3641 12.7946 19.2179 13.4064 19.8881C14.0183 20.5582 14.7978 21.0145 15.6465 21.1994C16.4951 21.3843 17.3748 21.2894 18.1742 20.9268C18.9737 20.5641 19.6569 19.9499 20.1377 19.1619C20.6184 18.374 20.875 17.4475 20.875 16.4998C20.875 15.229 20.4141 14.0102 19.5936 13.1116C18.7731 12.213 17.6603 11.7082 16.5 11.7082V11.7082ZM16.5 19.3748C15.9808 19.3748 15.4733 19.2062 15.0416 18.8903C14.6099 18.5744 14.2735 18.1254 14.0748 17.6001C13.8761 17.0747 13.8242 16.4966 13.9254 15.939C14.0267 15.3813 14.2767 14.869 14.6438 14.4669C15.011 14.0648 15.4787 13.791 15.9879 13.6801C16.4971 13.5691 17.0249 13.6261 17.5045 13.8437C17.9842 14.0613 18.3942 14.4298 18.6826 14.9026C18.971 15.3754 19.125 15.9312 19.125 16.4998C19.125 17.2623 18.8484 17.9936 18.3562 18.5328C17.8639 19.0719 17.1962 19.3748 16.5 19.3748ZM20.875 10.7498C20.7019 10.7498 20.5328 10.806 20.3889 10.9113C20.245 11.0166 20.1328 11.1663 20.0666 11.3414C20.0004 11.5165 19.9831 11.7092 20.0168 11.8951C20.0506 12.081 20.1339 12.2518 20.2563 12.3858C20.3787 12.5198 20.5346 12.6111 20.7043 12.6481C20.874 12.6851 21.05 12.6661 21.2098 12.5936C21.3697 12.521 21.5064 12.3982 21.6025 12.2406C21.6987 12.083 21.75 11.8977 21.75 11.7082C21.75 11.454 21.6578 11.2102 21.4937 11.0305C21.3296 10.8508 21.1071 10.7498 20.875 10.7498ZM25.1975 12.8965C25.183 12.0775 25.041 11.2673 24.7775 10.5007C24.5332 9.80307 24.1576 9.16954 23.6753 8.64121C23.1929 8.11289 22.6144 7.70159 21.9775 7.434C21.2775 7.14545 20.5378 6.98988 19.79 6.974C18.9413 6.9165 18.6613 6.9165 16.5 6.9165C14.3387 6.9165 14.0587 6.9165 13.21 6.974C12.4622 6.98988 11.7225 7.14545 11.0225 7.434C10.3856 7.70159 9.80712 8.11289 9.32474 8.64121C8.84235 9.16954 8.46681 9.80307 8.2225 10.5007C7.95904 11.2673 7.817 12.0775 7.8025 12.8965C7.75 13.8357 7.75 14.1423 7.75 16.4998C7.75 18.8573 7.75 19.164 7.8025 20.1032C7.817 20.9221 7.95904 21.7324 8.2225 22.499C8.46681 23.1966 8.84235 23.8301 9.32474 24.3585C9.80712 24.8868 10.3856 25.2981 11.0225 25.5657C11.7225 25.8542 12.4622 26.0098 13.21 26.0257C14.085 26.0257 14.3387 26.0832 16.5 26.0832C18.6613 26.0832 18.9413 26.0832 19.79 26.0257C20.5378 26.0098 21.2775 25.8542 21.9775 25.5657C22.6144 25.2981 23.1929 24.8868 23.6753 24.3585C24.1576 23.8301 24.5332 23.1966 24.7775 22.499C25.041 21.7324 25.183 20.9221 25.1975 20.1032C25.1975 19.1448 25.25 18.8573 25.25 16.4998C25.25 14.1423 25.25 13.8357 25.1975 12.8965ZM23.4475 20.0169C23.4322 20.6251 23.3288 21.2267 23.1413 21.7994C22.9862 22.2521 22.7411 22.6613 22.4238 22.9973C22.1187 23.3451 21.7444 23.6107 21.33 23.7736C20.8059 23.9874 20.2529 24.104 19.6937 24.1186C18.8712 24.1186 18.6175 24.1665 16.4912 24.1665C14.365 24.1665 14.12 24.1665 13.2975 24.1665C12.7393 24.1507 12.1869 24.0375 11.6612 23.8311C11.248 23.6613 10.8743 23.3928 10.5675 23.0453C10.25 22.7112 10.0074 22.3012 9.85875 21.8473C9.66433 21.2764 9.55788 20.674 9.54375 20.0648C9.54375 19.1065 9.54375 18.8669 9.54375 16.5478C9.54375 14.2286 9.54375 13.9507 9.54375 13.0307C9.55883 12.4185 9.66524 11.8131 9.85875 11.2386C10.0097 10.7888 10.2521 10.3824 10.5675 10.0503C10.8725 9.70253 11.2469 9.43684 11.6612 9.274C12.1854 9.0602 12.7384 8.9436 13.2975 8.929C14.12 8.83317 14.3737 8.83317 16.5 8.83317C18.6263 8.83317 18.88 8.83317 19.7025 8.83317C20.2644 8.84882 20.8201 8.96537 21.3475 9.17817C21.7582 9.34354 22.1292 9.60897 22.4325 9.95442C22.75 10.2885 22.9926 10.6985 23.1413 11.1523C23.3554 11.7355 23.4768 12.3546 23.5 12.9828C23.5 13.9411 23.5437 14.1807 23.5437 16.4998C23.5437 18.819 23.5 19.0969 23.5 20.0169H23.4475Z" fill="white"/>
</svg>
