<svg width="33" height="32" viewBox="0 0 33 32" fill="none" xmlns="http://www.w3.org/2000/svg">
<path d="M16.8885 31.9997C25.725 31.9997 32.8884 24.8364 32.8884 15.9999C32.8884 7.16339 25.725 0 16.8885 0C8.05206 0 0.888672 7.16339 0.888672 15.9999C0.888672 24.8364 8.05206 31.9997 16.8885 31.9997Z" fill="#464F60" fill-opacity="0.4"/>
<path d="M26.6898 11.4985C26.0041 11.8025 25.2666 12.0082 24.4931 12.1C25.2828 11.6268 25.8889 10.8782 26.175 9.98459C25.436 10.423 24.6171 10.741 23.7464 10.9124C23.0487 10.1694 22.0548 9.70508 20.9541 9.70508C18.8424 9.70508 17.1297 11.4178 17.1297 13.5295C17.1297 13.8293 17.1637 14.121 17.2293 14.4011C14.0508 14.2417 11.2327 12.7192 9.34626 10.4047C9.01713 10.9694 8.82831 11.6268 8.82831 12.3276C8.82831 13.6541 9.50398 14.8252 10.5296 15.5109C9.903 15.4912 9.31289 15.3192 8.79751 15.032C8.79723 15.0483 8.79723 15.0645 8.79723 15.0805C8.79723 16.9335 10.1161 18.4791 11.8653 18.8302C11.5447 18.918 11.2061 18.9645 10.8579 18.9645C10.6109 18.9645 10.3716 18.9408 10.1383 18.8963C10.6249 20.4154 12.037 21.5212 13.7109 21.5522C12.4017 22.5782 10.7529 23.1894 8.96065 23.1894C8.65262 23.1894 8.34745 23.1714 8.04883 23.1357C9.74043 24.2213 11.7512 24.8542 13.9108 24.8542C20.9453 24.8542 24.7922 19.0267 24.7922 13.9724C24.7922 13.8067 24.7885 13.6416 24.7811 13.4779C25.5289 12.9388 26.1772 12.2654 26.6898 11.4985Z" fill="white"/>
</svg>
