<svg width="18" height="18" viewBox="0 0 18 18" fill="none" xmlns="http://www.w3.org/2000/svg">
<path d="M9.28486 13.44C9.37692 13.4043 9.46103 13.3508 9.53236 13.2825L13.2824 9.5325C13.3523 9.46257 13.4078 9.37955 13.4456 9.28819C13.4835 9.19682 13.5029 9.09889 13.5029 9C13.5029 8.80027 13.4236 8.60873 13.2824 8.4675C13.2124 8.39757 13.1294 8.3421 13.038 8.30425C12.9467 8.26641 12.8488 8.24693 12.7499 8.24693C12.5501 8.24693 12.3586 8.32627 12.2174 8.4675L9.74986 10.9425V5.25C9.74986 5.05109 9.67084 4.86032 9.53019 4.71967C9.38954 4.57902 9.19877 4.5 8.99986 4.5C8.80095 4.5 8.61018 4.57902 8.46953 4.71967C8.32888 4.86032 8.24986 5.05109 8.24986 5.25V10.9425L5.78236 8.4675C5.71264 8.3972 5.62969 8.34141 5.53829 8.30333C5.4469 8.26525 5.34887 8.24565 5.24986 8.24565C5.15085 8.24565 5.05282 8.26525 4.96143 8.30333C4.87003 8.34141 4.78708 8.3972 4.71736 8.4675C4.64707 8.53722 4.59127 8.62017 4.55319 8.71157C4.51511 8.80296 4.49551 8.90099 4.49551 9C4.49551 9.09901 4.51511 9.19704 4.55319 9.28843C4.59127 9.37983 4.64707 9.46278 4.71736 9.5325L8.46736 13.2825C8.53869 13.3508 8.6228 13.4043 8.71486 13.44C8.89746 13.515 9.10226 13.515 9.28486 13.44Z" fill="#FD1717"/>
</svg>
