<svg width="24" height="25" viewBox="0 0 24 25" fill="none" xmlns="http://www.w3.org/2000/svg">
<g clip-path="url(#clip0_1203_2967)">
<path d="M23.2969 18.8281H19.0781C18.6895 18.8281 18.375 18.5136 18.375 18.125C18.375 17.7364 18.6895 17.4219 19.0781 17.4219H21.5995L12.7031 8.57239L7.52837 13.7002C7.25373 13.9749 6.80874 13.9749 6.5341 13.7002L0.20598 7.37211C-0.0686602 7.09747 -0.0686602 6.65248 0.20598 6.37784C0.480621 6.1032 0.925558 6.10316 1.20025 6.37784L7.03126 12.2089L12.206 7.08097C12.4807 6.80633 12.9256 6.80633 13.2003 7.08097L22.5938 16.4276V13.9062C22.5938 13.5176 22.9082 13.2031 23.2969 13.2031C23.6855 13.2031 24 13.5176 24 13.9062V18.125C24 18.5127 23.6817 18.8281 23.2969 18.8281Z" fill="#464F60"/>
</g>
<defs>
<clipPath id="clip0_1203_2967">
<rect width="24" height="24" fill="white" transform="matrix(1 0 0 -1 0 24.5)"/>
</clipPath>
</defs>
</svg>
