<svg width="18" height="18" viewBox="0 0 18 18" fill="none" xmlns="http://www.w3.org/2000/svg">
<path d="M8.71514 4.56C8.62308 4.5957 8.53897 4.64922 8.46764 4.7175L4.71764 8.4675C4.64771 8.53743 4.59224 8.62045 4.55439 8.71181C4.51655 8.80318 4.49707 8.90111 4.49707 9C4.49707 9.19973 4.57641 9.39127 4.71764 9.5325C4.78757 9.60243 4.87059 9.6579 4.96195 9.69575C5.05332 9.73359 5.15124 9.75307 5.25014 9.75307C5.44987 9.75307 5.64141 9.67373 5.78264 9.5325L8.25014 7.0575L8.25014 12.75C8.25014 12.9489 8.32916 13.1397 8.46981 13.2803C8.61046 13.421 8.80123 13.5 9.00014 13.5C9.19905 13.5 9.38982 13.421 9.53047 13.2803C9.67112 13.1397 9.75014 12.9489 9.75014 12.75L9.75014 7.0575L12.2176 9.5325C12.2874 9.6028 12.3703 9.65859 12.4617 9.69667C12.5531 9.73475 12.6511 9.75435 12.7501 9.75435C12.8491 9.75435 12.9472 9.73475 13.0386 9.69667C13.13 9.65859 13.2129 9.6028 13.2826 9.5325C13.3529 9.46278 13.4087 9.37983 13.4468 9.28843C13.4849 9.19704 13.5045 9.09901 13.5045 9C13.5045 8.90099 13.4849 8.80296 13.4468 8.71157C13.4087 8.62017 13.3529 8.53722 13.2826 8.4675L9.53264 4.7175C9.46131 4.64922 9.3772 4.5957 9.28514 4.56C9.10254 4.48499 8.89774 4.48499 8.71514 4.56Z" fill="#34C77B"/>
</svg>
