<svg width="18" height="18" viewBox="0 0 18 18" fill="none" xmlns="http://www.w3.org/2000/svg">
<path d="M13.44 8.71514C13.4043 8.62308 13.3508 8.53897 13.2825 8.46764L9.5325 4.71764C9.46257 4.64771 9.37955 4.59224 9.28819 4.55439C9.19682 4.51655 9.09889 4.49707 9 4.49707C8.80027 4.49707 8.60873 4.57641 8.4675 4.71764C8.39757 4.78757 8.3421 4.87059 8.30425 4.96195C8.26641 5.05332 8.24693 5.15124 8.24693 5.25014C8.24693 5.44987 8.32627 5.64141 8.4675 5.78264L10.9425 8.25014H5.25C5.05109 8.25014 4.86032 8.32916 4.71967 8.46981C4.57902 8.61046 4.5 8.80123 4.5 9.00014C4.5 9.19905 4.57902 9.38982 4.71967 9.53047C4.86032 9.67112 5.05109 9.75014 5.25 9.75014H10.9425L8.4675 12.2176C8.3972 12.2874 8.34141 12.3703 8.30333 12.4617C8.26525 12.5531 8.24565 12.6511 8.24565 12.7501C8.24565 12.8491 8.26525 12.9472 8.30333 13.0386C8.34141 13.13 8.3972 13.2129 8.4675 13.2826C8.53722 13.3529 8.62017 13.4087 8.71157 13.4468C8.80296 13.4849 8.90099 13.5045 9 13.5045C9.09901 13.5045 9.19704 13.4849 9.28843 13.4468C9.37983 13.4087 9.46278 13.3529 9.5325 13.2826L13.2825 9.53264C13.3508 9.46131 13.4043 9.3772 13.44 9.28514C13.515 9.10254 13.515 8.89774 13.44 8.71514Z" fill="#FC6825"/>
</svg>
