<svg width="24" height="25" viewBox="0 0 24 25" fill="none" xmlns="http://www.w3.org/2000/svg">
<g clip-path="url(#clip0_1203_2825)">
<path d="M23.2969 6.17188H19.0781C18.6895 6.17188 18.375 6.48636 18.375 6.875C18.375 7.26364 18.6895 7.57813 19.0781 7.57813H21.5995L12.7031 16.4276L7.52837 11.2998C7.25373 11.0251 6.80874 11.0251 6.5341 11.2998L0.20598 17.6279C-0.0686602 17.9025 -0.0686602 18.3475 0.20598 18.6222C0.480621 18.8968 0.925558 18.8968 1.20025 18.6222L7.03126 12.7911L12.206 17.919C12.4807 18.1937 12.9256 18.1937 13.2003 17.919L22.5938 8.57239V11.0938C22.5938 11.4824 22.9082 11.7969 23.2969 11.7969C23.6855 11.7969 24 11.4824 24 11.0938V6.875C24 6.48725 23.6817 6.17188 23.2969 6.17188Z" fill="#464F60"/>
</g>
<defs>
<clipPath id="clip0_1203_2825">
<rect width="24" height="24" fill="white" transform="translate(0 0.5)"/>
</clipPath>
</defs>
</svg>
