<svg width="18" height="18" viewBox="0 0 18 18" fill="none" xmlns="http://www.w3.org/2000/svg">
<path d="M8.99998 12C8.85164 12 8.70663 12.0439 8.5833 12.1264C8.45996 12.2088 8.36383 12.3259 8.30707 12.4629C8.2503 12.6 8.23545 12.7508 8.26439 12.8963C8.29333 13.0418 8.36476 13.1754 8.46965 13.2803C8.57453 13.3852 8.70817 13.4566 8.85366 13.4855C8.99914 13.5145 9.14994 13.4996 9.28699 13.4429C9.42403 13.3861 9.54117 13.29 9.62358 13.1666C9.70599 13.0433 9.74998 12.8983 9.74998 12.75C9.74998 12.551 9.67096 12.3603 9.53031 12.2196C9.38965 12.079 9.19889 12 8.99998 12ZM17.0025 13.1025L10.965 2.60246C10.7698 2.2526 10.4848 1.96118 10.1394 1.75831C9.79393 1.55544 9.40058 1.44849 8.99998 1.44849C8.59937 1.44849 8.20603 1.55544 7.86058 1.75831C7.51514 1.96118 7.23012 2.2526 7.03498 2.60246L1.03498 13.1025C0.833073 13.443 0.724583 13.8307 0.720459 14.2266C0.716335 14.6224 0.816724 15.0124 1.01149 15.357C1.20626 15.7016 1.4885 15.9888 1.82974 16.1895C2.17097 16.3902 2.55911 16.4973 2.95498 16.5H15.045C15.444 16.5039 15.8369 16.4016 16.1834 16.2036C16.5299 16.0057 16.8175 15.7191 17.0167 15.3733C17.2159 15.0276 17.3196 14.635 17.3171 14.236C17.3146 13.8369 17.206 13.4457 17.0025 13.1025ZM15.705 14.6025C15.6392 14.7194 15.5433 14.8166 15.4272 14.8839C15.3112 14.9512 15.1791 14.9861 15.045 14.985H2.95498C2.82081 14.9861 2.6888 14.9512 2.57271 14.8839C2.45663 14.8166 2.36072 14.7194 2.29498 14.6025C2.22915 14.4884 2.19449 14.3591 2.19449 14.2275C2.19449 14.0958 2.22915 13.9665 2.29498 13.8525L8.29498 3.35246C8.35791 3.22961 8.45354 3.12651 8.57131 3.05452C8.68908 2.98252 8.82444 2.94443 8.96248 2.94443C9.10051 2.94443 9.23587 2.98252 9.35364 3.05452C9.47142 3.12651 9.56704 3.22961 9.62998 3.35246L15.6675 13.8525C15.7419 13.9648 15.7846 14.0952 15.7912 14.2298C15.7978 14.3644 15.768 14.4983 15.705 14.6175V14.6025ZM8.99998 5.99996C8.80106 5.99996 8.6103 6.07898 8.46965 6.21963C8.32899 6.36028 8.24998 6.55105 8.24998 6.74996V9.74996C8.24998 9.94887 8.32899 10.1396 8.46965 10.2803C8.6103 10.4209 8.80106 10.5 8.99998 10.5C9.19889 10.5 9.38965 10.4209 9.53031 10.2803C9.67096 10.1396 9.74998 9.94887 9.74998 9.74996V6.74996C9.74998 6.55105 9.67096 6.36028 9.53031 6.21963C9.38965 6.07898 9.19889 5.99996 8.99998 5.99996Z" fill="#FD1717"/>
</svg>
