<svg width="19" height="18" viewBox="0 0 19 18" fill="none" xmlns="http://www.w3.org/2000/svg">
<path d="M14.3242 8.08594C14.7341 8.08594 15.0664 7.77114 15.0664 7.38281C15.0664 6.99449 14.7341 6.67969 14.3242 6.67969C13.9143 6.67969 13.582 6.99449 13.582 7.38281C13.582 7.77114 13.9143 8.08594 14.3242 8.08594Z" fill="#464F60" fill-opacity="0.8"/>
<path d="M16.0312 1.40625H15.0664V0.703125C15.0664 0.314789 14.7341 0 14.3242 0C13.9143 0 13.582 0.314789 13.582 0.703125V1.40625H10.2051V0.703125C10.2051 0.314789 9.8728 0 9.46289 0C9.05298 0 8.7207 0.314789 8.7207 0.703125V1.40625H5.38086V0.703125C5.38086 0.314789 5.04858 0 4.63867 0C4.22876 0 3.89648 0.314789 3.89648 0.703125V1.40625H2.96875C1.33178 1.40625 0 2.66794 0 4.21875V15.1875C0 16.7383 1.33178 18 2.96875 18H8.64648C9.05639 18 9.38867 17.6852 9.38867 17.2969C9.38867 16.9085 9.05639 16.5938 8.64648 16.5938H2.96875C2.15027 16.5938 1.48438 15.9629 1.48438 15.1875V4.21875C1.48438 3.44334 2.15027 2.8125 2.96875 2.8125H3.89648V3.51562C3.89648 3.90396 4.22876 4.21875 4.63867 4.21875C5.04858 4.21875 5.38086 3.90396 5.38086 3.51562V2.8125H8.7207V3.51562C8.7207 3.90396 9.05298 4.21875 9.46289 4.21875C9.8728 4.21875 10.2051 3.90396 10.2051 3.51562V2.8125H13.582V3.51562C13.582 3.90396 13.9143 4.21875 14.3242 4.21875C14.7341 4.21875 15.0664 3.90396 15.0664 3.51562V2.8125H16.0312C16.8497 2.8125 17.5156 3.44334 17.5156 4.21875V8.22656C17.5156 8.6149 17.8479 8.92969 18.2578 8.92969C18.6677 8.92969 19 8.6149 19 8.22656V4.21875C19 2.66794 17.6682 1.40625 16.0312 1.40625Z" fill="#464F60" fill-opacity="0.8"/>
<path d="M14.5098 9.49219C12.0338 9.49219 10.0195 11.4005 10.0195 13.7461C10.0195 16.0917 12.0338 18 14.5098 18C16.9857 18 19 16.0917 19 13.7461C19 11.4005 16.9857 9.49219 14.5098 9.49219ZM14.5098 16.5938C12.8523 16.5938 11.5039 15.3163 11.5039 13.7461C11.5039 12.1759 12.8523 10.8984 14.5098 10.8984C16.1672 10.8984 17.5156 12.1759 17.5156 13.7461C17.5156 15.3163 16.1672 16.5938 14.5098 16.5938Z" fill="#464F60" fill-opacity="0.8"/>
<path d="M15.5859 13.043H15.252V12.3047C15.252 11.9164 14.9197 11.6016 14.5098 11.6016C14.0999 11.6016 13.7676 11.9164 13.7676 12.3047V13.7461C13.7676 14.1344 14.0999 14.4492 14.5098 14.4492H15.5859C15.9958 14.4492 16.3281 14.1344 16.3281 13.7461C16.3281 13.3578 15.9958 13.043 15.5859 13.043Z" fill="#464F60" fill-opacity="0.8"/>
<path d="M11.0957 8.08594C11.5056 8.08594 11.8379 7.77114 11.8379 7.38281C11.8379 6.99449 11.5056 6.67969 11.0957 6.67969C10.6858 6.67969 10.3535 6.99449 10.3535 7.38281C10.3535 7.77114 10.6858 8.08594 11.0957 8.08594Z" fill="#464F60" fill-opacity="0.8"/>
<path d="M7.86719 11.1445C8.27709 11.1445 8.60938 10.8297 8.60938 10.4414C8.60938 10.0531 8.27709 9.73828 7.86719 9.73828C7.45729 9.73828 7.125 10.0531 7.125 10.4414C7.125 10.8297 7.45729 11.1445 7.86719 11.1445Z" fill="#464F60" fill-opacity="0.8"/>
<path d="M4.63867 8.08594C5.04857 8.08594 5.38086 7.77114 5.38086 7.38281C5.38086 6.99449 5.04857 6.67969 4.63867 6.67969C4.22877 6.67969 3.89648 6.99449 3.89648 7.38281C3.89648 7.77114 4.22877 8.08594 4.63867 8.08594Z" fill="#464F60" fill-opacity="0.8"/>
<path d="M4.63867 11.1445C5.04857 11.1445 5.38086 10.8297 5.38086 10.4414C5.38086 10.0531 5.04857 9.73828 4.63867 9.73828C4.22877 9.73828 3.89648 10.0531 3.89648 10.4414C3.89648 10.8297 4.22877 11.1445 4.63867 11.1445Z" fill="#464F60" fill-opacity="0.8"/>
<path d="M4.63867 14.2031C5.04857 14.2031 5.38086 13.8883 5.38086 13.5C5.38086 13.1117 5.04857 12.7969 4.63867 12.7969C4.22877 12.7969 3.89648 13.1117 3.89648 13.5C3.89648 13.8883 4.22877 14.2031 4.63867 14.2031Z" fill="#464F60" fill-opacity="0.8"/>
<path d="M7.86719 14.2031C8.27709 14.2031 8.60938 13.8883 8.60938 13.5C8.60938 13.1117 8.27709 12.7969 7.86719 12.7969C7.45729 12.7969 7.125 13.1117 7.125 13.5C7.125 13.8883 7.45729 14.2031 7.86719 14.2031Z" fill="#464F60" fill-opacity="0.8"/>
<path d="M7.86719 8.08594C8.27709 8.08594 8.60938 7.77114 8.60938 7.38281C8.60938 6.99449 8.27709 6.67969 7.86719 6.67969C7.45729 6.67969 7.125 6.99449 7.125 7.38281C7.125 7.77114 7.45729 8.08594 7.86719 8.08594Z" fill="#464F60" fill-opacity="0.8"/>
</svg>
