<svg width="14" height="14" viewBox="0 0 14 14" fill="none" xmlns="http://www.w3.org/2000/svg">
<path d="M10.554 6.28866C10.856 6.28866 11.1008 6.04391 11.1008 5.74199C11.1008 5.44007 10.856 5.19531 10.554 5.19531C10.2519 5.19531 10.0071 5.44007 10.0071 5.74199C10.0071 6.04391 10.2519 6.28866 10.554 6.28866Z" fill="#464F60"/>
<path d="M11.8118 1.09375H11.1008V0.546875C11.1008 0.244836 10.856 0 10.554 0C10.2519 0 10.0071 0.244836 10.0071 0.546875V1.09375H7.5188V0.546875C7.5188 0.244836 7.27396 0 6.97192 0C6.66988 0 6.42505 0.244836 6.42505 0.546875V1.09375H3.96411V0.546875C3.96411 0.244836 3.71928 0 3.41724 0C3.1152 0 2.87036 0.244836 2.87036 0.546875V1.09375H2.18677C0.98058 1.09375 -0.000732422 2.07506 -0.000732422 3.28125V11.8125C-0.000732422 13.0187 0.98058 14 2.18677 14H6.37036C6.6724 14 6.91724 13.7552 6.91724 13.4531C6.91724 13.1511 6.6724 12.9063 6.37036 12.9063H2.18677C1.58367 12.9063 1.09302 12.4156 1.09302 11.8125V3.28125C1.09302 2.67816 1.58367 2.1875 2.18677 2.1875H2.87036V2.73438C2.87036 3.03641 3.1152 3.28125 3.41724 3.28125C3.71928 3.28125 3.96411 3.03641 3.96411 2.73438V2.1875H6.42505V2.73438C6.42505 3.03641 6.66988 3.28125 6.97192 3.28125C7.27396 3.28125 7.5188 3.03641 7.5188 2.73438V2.1875H10.0071V2.73438C10.0071 3.03641 10.2519 3.28125 10.554 3.28125C10.856 3.28125 11.1008 3.03641 11.1008 2.73438V2.1875H11.8118C12.4149 2.1875 12.9055 2.67816 12.9055 3.28125V6.39844C12.9055 6.70048 13.1504 6.94531 13.4524 6.94531C13.7544 6.94531 13.9993 6.70048 13.9993 6.39844V3.28125C13.9993 2.07506 13.018 1.09375 11.8118 1.09375Z" fill="#464F60"/>
<path d="M10.6907 7.38281C8.8663 7.38281 7.38208 8.86703 7.38208 10.6914C7.38208 12.5158 8.8663 14 10.6907 14C12.515 14 13.9993 12.5158 13.9993 10.6914C13.9993 8.86703 12.515 7.38281 10.6907 7.38281ZM10.6907 12.9063C9.46942 12.9063 8.47583 11.9127 8.47583 10.6914C8.47583 9.47013 9.46942 8.47656 10.6907 8.47656C11.9119 8.47656 12.9055 9.47013 12.9055 10.6914C12.9055 11.9127 11.9119 12.9063 10.6907 12.9063Z" fill="#464F60"/>
<path d="M11.4836 10.1441H11.2375V9.57011C11.2375 9.26818 10.9927 9.02344 10.6907 9.02344C10.3886 9.02344 10.1438 9.26818 10.1438 9.57011V10.6908C10.1438 10.9927 10.3886 11.2375 10.6907 11.2375H11.4836C11.7857 11.2375 12.0305 10.9927 12.0305 10.6908C12.0305 10.3889 11.7857 10.1441 11.4836 10.1441Z" fill="#464F60"/>
<path d="M8.17505 6.28866C8.47708 6.28866 8.72192 6.04391 8.72192 5.74199C8.72192 5.44007 8.47708 5.19531 8.17505 5.19531C7.87302 5.19531 7.62817 5.44007 7.62817 5.74199C7.62817 6.04391 7.87302 6.28866 8.17505 6.28866Z" fill="#464F60"/>
<path d="M5.79614 8.66757C6.09817 8.66757 6.34302 8.42281 6.34302 8.12089C6.34302 7.81897 6.09817 7.57422 5.79614 7.57422C5.49411 7.57422 5.24927 7.81897 5.24927 8.12089C5.24927 8.42281 5.49411 8.66757 5.79614 8.66757Z" fill="#464F60"/>
<path d="M3.41724 6.28866C3.71927 6.28866 3.96411 6.04391 3.96411 5.74199C3.96411 5.44007 3.71927 5.19531 3.41724 5.19531C3.11521 5.19531 2.87036 5.44007 2.87036 5.74199C2.87036 6.04391 3.11521 6.28866 3.41724 6.28866Z" fill="#464F60"/>
<path d="M3.41724 8.66757C3.71927 8.66757 3.96411 8.42281 3.96411 8.12089C3.96411 7.81897 3.71927 7.57422 3.41724 7.57422C3.11521 7.57422 2.87036 7.81897 2.87036 8.12089C2.87036 8.42281 3.11521 8.66757 3.41724 8.66757Z" fill="#464F60"/>
<path d="M3.41724 11.0465C3.71927 11.0465 3.96411 10.8017 3.96411 10.4998C3.96411 10.1979 3.71927 9.95312 3.41724 9.95312C3.11521 9.95312 2.87036 10.1979 2.87036 10.4998C2.87036 10.8017 3.11521 11.0465 3.41724 11.0465Z" fill="#464F60"/>
<path d="M5.79614 11.0465C6.09817 11.0465 6.34302 10.8017 6.34302 10.4998C6.34302 10.1979 6.09817 9.95312 5.79614 9.95312C5.49411 9.95312 5.24927 10.1979 5.24927 10.4998C5.24927 10.8017 5.49411 11.0465 5.79614 11.0465Z" fill="#464F60"/>
<path d="M5.79614 6.28866C6.09817 6.28866 6.34302 6.04391 6.34302 5.74199C6.34302 5.44007 6.09817 5.19531 5.79614 5.19531C5.49411 5.19531 5.24927 5.44007 5.24927 5.74199C5.24927 6.04391 5.49411 6.28866 5.79614 6.28866Z" fill="#464F60"/>
</svg>
