<svg width="17" height="13" viewBox="0 0 17 13" fill="none" xmlns="http://www.w3.org/2000/svg">
<path d="M16.6079 0.712159C16.4955 0.598904 16.3619 0.509011 16.2147 0.447665C16.0674 0.38632 15.9095 0.354736 15.75 0.354736C15.5904 0.354736 15.4325 0.38632 15.2853 0.447665C15.138 0.509011 15.0044 0.598904 14.892 0.712159L5.88996 9.72633L2.10788 5.93216C1.99125 5.8195 1.85357 5.73091 1.7027 5.67145C1.55183 5.612 1.39073 5.58284 1.2286 5.58565C1.06646 5.58845 0.906469 5.62316 0.75775 5.6878C0.60903 5.75244 0.474498 5.84574 0.361834 5.96237C0.249171 6.079 0.160584 6.21668 0.101129 6.36754C0.041674 6.51841 0.0125164 6.67951 0.0153215 6.84164C0.0181266 7.00378 0.0528394 7.16377 0.117477 7.31249C0.182115 7.46121 0.275413 7.59575 0.392043 7.70841L5.03204 12.3484C5.14437 12.4617 5.27802 12.5516 5.42526 12.6129C5.57251 12.6742 5.73045 12.7058 5.88996 12.7058C6.04947 12.7058 6.20741 12.6742 6.35466 12.6129C6.5019 12.5516 6.63555 12.4617 6.74788 12.3484L16.6079 2.48841C16.7305 2.37526 16.8284 2.23793 16.8954 2.08508C16.9623 1.93222 16.9969 1.76716 16.9969 1.60028C16.9969 1.43341 16.9623 1.26835 16.8954 1.11549C16.8284 0.96264 16.7305 0.82531 16.6079 0.712159V0.712159Z" fill="white"/>
</svg>
