<svg width="20" height="20" viewBox="0 0 20 20" fill="none" xmlns="http://www.w3.org/2000/svg">
<path d="M12.3081 4.89167C12.4995 5.00031 12.726 5.02886 12.9383 4.9711C13.1507 4.91334 13.3315 4.77394 13.4415 4.58333C13.5324 4.4228 13.6741 4.29699 13.8443 4.22565C14.0144 4.15431 14.2035 4.14146 14.3817 4.18912C14.56 4.23678 14.7174 4.34226 14.8292 4.48901C14.9411 4.63576 15.0011 4.81549 14.9998 5C14.9998 5.22101 14.912 5.43297 14.7557 5.58926C14.5994 5.74554 14.3875 5.83333 14.1665 5.83333C13.9454 5.83333 13.7335 5.92113 13.5772 6.07741C13.4209 6.23369 13.3331 6.44565 13.3331 6.66667C13.3331 6.88768 13.4209 7.09964 13.5772 7.25592C13.7335 7.4122 13.9454 7.5 14.1665 7.5C14.6052 7.49972 15.0362 7.38396 15.4161 7.16436C15.7959 6.94476 16.1113 6.62905 16.3305 6.24896C16.5497 5.86886 16.665 5.43777 16.6649 4.999C16.6647 4.56022 16.549 4.12922 16.3295 3.74931C16.11 3.36939 15.7944 3.05393 15.4143 2.83464C15.0343 2.61534 14.6032 2.49993 14.1645 2.5C13.7257 2.50007 13.2947 2.61562 12.9147 2.83504C12.5347 3.05445 12.2192 3.37001 11.9998 3.75C11.9447 3.84511 11.909 3.95018 11.8946 4.05917C11.8803 4.16815 11.8877 4.27889 11.9164 4.385C11.945 4.49112 11.9944 4.59052 12.0616 4.67747C12.1289 4.76443 12.2126 4.83722 12.3081 4.89167ZM15.8915 10.8333C15.6727 10.8049 15.4516 10.8644 15.2767 10.9988C15.1017 11.1331 14.9872 11.3313 14.9581 11.55C14.7832 12.9626 14.0979 14.2626 13.0311 15.205C11.9644 16.1474 10.5899 16.6673 9.16646 16.6667H4.50812L5.04979 16.125C5.205 15.9689 5.29212 15.7577 5.29212 15.5375C5.29212 15.3173 5.205 15.1061 5.04979 14.95C4.23725 14.1343 3.68428 13.0963 3.46053 11.9669C3.23679 10.8375 3.35228 9.6671 3.79246 8.60319C4.23263 7.53928 4.97781 6.62943 5.93411 5.98824C6.89042 5.34705 8.01509 5.0032 9.16646 5C9.38747 5 9.59943 4.9122 9.75571 4.75592C9.91199 4.59964 9.99979 4.38768 9.99979 4.16667C9.99979 3.94565 9.91199 3.73369 9.75571 3.57741C9.59943 3.42113 9.38747 3.33333 9.16646 3.33333C7.75748 3.33921 6.37866 3.74186 5.18795 4.49516C3.99725 5.24846 3.04282 6.32193 2.43401 7.5926C1.8252 8.86327 1.58664 10.2797 1.74566 11.6797C1.90468 13.0797 2.45484 14.4066 3.33312 15.5083L1.90812 16.9083C1.79249 17.0255 1.71416 17.1743 1.68302 17.336C1.65187 17.4976 1.66931 17.6649 1.73312 17.8167C1.79564 17.9688 1.90181 18.0991 2.03824 18.1911C2.17467 18.283 2.33527 18.3325 2.49979 18.3333H9.16646C10.9927 18.3336 12.7562 17.6675 14.1263 16.4601C15.4964 15.2526 16.3788 13.5868 16.6081 11.775C16.6234 11.666 16.6169 11.5552 16.589 11.4487C16.5612 11.3423 16.5126 11.2424 16.446 11.1549C16.3793 11.0673 16.296 10.9938 16.2009 10.9387C16.1057 10.8835 16.0005 10.8477 15.8915 10.8333V10.8333ZM14.4831 8.39167C14.3314 8.32454 14.1631 8.30423 13.9998 8.33333L13.8498 8.38333L13.6998 8.45833L13.5748 8.56667C13.4998 8.64346 13.4404 8.73401 13.3998 8.83333C13.3505 8.93728 13.3276 9.05177 13.3331 9.16667C13.3307 9.27781 13.3505 9.38831 13.3915 9.49167C13.4346 9.59168 13.4968 9.68228 13.5748 9.75833C13.6527 9.83557 13.745 9.89667 13.8465 9.93814C13.9481 9.97961 14.0568 10.0006 14.1665 10C14.3875 10 14.5994 9.9122 14.7557 9.75592C14.912 9.59964 14.9998 9.38768 14.9998 9.16667C15.0026 9.05735 14.9798 8.9489 14.9331 8.85C14.8436 8.64976 14.6834 8.48954 14.4831 8.4V8.39167Z" fill="#FC6825"/>
</svg>
