<svg width="17" height="17" viewBox="0 0 17 17" fill="none" xmlns="http://www.w3.org/2000/svg">
<path d="M15.2208 12.6398C14.9265 12.4209 14.5106 12.4821 14.2917 12.7763C14.1713 12.9381 14.0424 13.0969 13.9087 13.2481C13.6658 13.5229 13.6916 13.9425 13.9664 14.1855C14.0928 14.2972 14.2497 14.352 14.406 14.352C14.5896 14.352 14.7725 14.2762 14.9037 14.1278C15.0621 13.9487 15.2147 13.7607 15.3572 13.569C15.5761 13.2748 15.5151 12.8587 15.2208 12.6398Z" fill="#FC6825"/>
<path d="M16.3316 9.52546C15.9734 9.44747 15.6195 9.67474 15.5415 10.0331C15.4985 10.2302 15.4467 10.4277 15.3872 10.6201C15.2789 10.9706 15.4752 11.3424 15.8256 11.4506C15.8909 11.4708 15.9569 11.4804 16.0219 11.4804C16.3054 11.4804 16.568 11.2973 16.6561 11.0122C16.7267 10.7838 16.7883 10.5494 16.8392 10.3156C16.9172 9.95723 16.6899 9.60349 16.3316 9.52546Z" fill="#FC6825"/>
<path d="M12.0243 14.7666C11.848 14.865 11.6654 14.957 11.4817 15.04C11.1475 15.1909 10.9989 15.5842 11.1498 15.9185C11.2607 16.1641 11.5024 16.3094 11.7554 16.3094C11.8468 16.3094 11.9397 16.2904 12.0284 16.2504C12.2463 16.152 12.4627 16.0429 12.6717 15.9262C12.992 15.7474 13.1066 15.3429 12.9278 15.0227C12.7491 14.7025 12.3445 14.5878 12.0243 14.7666Z" fill="#FC6825"/>
<path d="M7.83563 3.1875V8.22495L5.40054 10.66C5.14123 10.9193 5.14123 11.3398 5.40054 11.5991C5.53023 11.7288 5.70013 11.7936 5.87013 11.7936C6.04007 11.7936 6.21003 11.7288 6.33973 11.5991L8.96928 8.96956C9.09379 8.84505 9.16375 8.67611 9.16375 8.5V3.1875C9.16375 2.82074 8.86645 2.52344 8.49969 2.52344C8.13293 2.52344 7.83563 2.82074 7.83563 3.1875Z" fill="#FC6825"/>
<path d="M16.3359 1.42773C15.9692 1.42773 15.6719 1.72504 15.6719 2.0918V3.93577C14.1262 1.51167 11.4269 0 8.5 0C6.22957 0 4.09504 0.884166 2.48957 2.48957C0.884166 4.09504 0 6.22957 0 8.5C0 10.7704 0.884166 12.905 2.48957 14.5104C4.09504 16.1158 6.22957 17 8.5 17C8.50561 17 8.51102 16.9993 8.5166 16.9992C8.52218 16.9993 8.52759 17 8.5332 17C8.77253 17 9.01422 16.9899 9.25162 16.9701C9.61709 16.9394 9.88855 16.6184 9.85797 16.2529C9.82733 15.8874 9.50669 15.6158 9.14079 15.6466C8.94011 15.6633 8.73571 15.6719 8.5332 15.6719C8.52759 15.6719 8.52218 15.6726 8.5166 15.6727C8.51102 15.6726 8.50561 15.6719 8.5 15.6719C4.54541 15.6719 1.32812 12.4546 1.32812 8.5C1.32812 4.54541 4.54541 1.32812 8.5 1.32812C11.0486 1.32812 13.3927 2.68656 14.6737 4.84766H12.8477C12.481 4.84766 12.1837 5.14496 12.1837 5.51172C12.1837 5.87848 12.481 6.17578 12.8477 6.17578H14.875C15.2794 6.17578 15.6578 6.06213 15.9799 5.86523C16.0006 5.85341 16.0205 5.8407 16.0395 5.82698C16.6175 5.44677 17 4.79277 17 4.05078V2.0918C17 1.72504 16.7027 1.42773 16.3359 1.42773Z" fill="#FC6825"/>
</svg>
