<svg width="17" height="17" viewBox="0 0 17 17" fill="none" xmlns="http://www.w3.org/2000/svg">
<path d="M9.02925 5.08105H3.22081C1.99429 5.08105 1 6.07075 1 7.29161V13.0732C1 14.2941 1.99429 15.2838 3.22081 15.2838H9.02925C10.2558 15.2838 11.2501 14.2941 11.2501 13.0732V7.29161C11.2501 6.07075 10.2558 5.08105 9.02925 5.08105Z" stroke="#707070" stroke-width="1.5" stroke-miterlimit="10"/>
<path d="M5.09961 3.21055C5.09961 2.62428 5.33357 2.06202 5.75001 1.64746C6.16646 1.2329 6.73127 1 7.32021 1H13.129C13.718 1 14.2828 1.2329 14.6992 1.64746C15.1157 2.06202 15.3496 2.62428 15.3496 3.21055V8.99308C15.3496 9.28333 15.2922 9.57074 15.1806 9.83889C15.069 10.107 14.9054 10.3507 14.6992 10.5558C14.4929 10.761 14.2481 10.9238 13.9787 11.0348C13.7093 11.1458 13.4206 11.2028 13.129 11.2027" stroke="#707070" stroke-width="1.5" stroke-miterlimit="10"/>
</svg>
