<svg width="14" height="14" viewBox="0 0 14 14" fill="none" xmlns="http://www.w3.org/2000/svg">
<circle cx="7" cy="7" r="7" fill="url(#paint0_linear_2622_7027)"/>
<path d="M5.9516 8.82945L5.28785 9.47446C5.1138 9.6485 4.87774 9.74628 4.6316 9.74628C4.38546 9.74628 4.1494 9.6485 3.97535 9.47446C3.8013 9.30041 3.70352 9.06435 3.70352 8.8182C3.70352 8.57206 3.8013 8.336 3.97535 8.16195L5.67785 6.4557C5.84495 6.28806 6.07011 6.19106 6.30673 6.18478C6.54335 6.17849 6.77333 6.26341 6.9491 6.42195L6.9941 6.45945C7.06521 6.52907 7.16107 6.56759 7.26058 6.56654C7.36009 6.56548 7.45511 6.52494 7.52472 6.45383C7.59434 6.38272 7.63286 6.28686 7.63181 6.18735C7.63075 6.08784 7.59021 5.99282 7.5191 5.9232C7.49793 5.89584 7.47541 5.86956 7.4516 5.84445C7.13148 5.56595 6.71747 5.41952 6.29344 5.43484C5.8694 5.45016 5.46704 5.62607 5.16785 5.92695L3.44285 7.6332C3.14973 7.95225 2.99121 8.37221 3.00038 8.80536C3.00955 9.23852 3.1857 9.65139 3.49206 9.95774C3.79842 10.2641 4.21129 10.4403 4.64444 10.4494C5.0776 10.4586 5.49755 10.3001 5.8166 10.007L6.46535 9.37321C6.52941 9.30332 6.56462 9.21178 6.5639 9.11698C6.56319 9.02219 6.5266 8.93118 6.46149 8.86227C6.39639 8.79337 6.3076 8.75167 6.213 8.74559C6.1184 8.7395 6.025 8.76946 5.9516 8.82945ZM9.96035 3.48945C9.64489 3.17596 9.21821 3 8.77347 3C8.32873 3 7.90206 3.17596 7.5866 3.48945L6.93785 4.1232C6.87379 4.19309 6.83858 4.28463 6.8393 4.37943C6.84001 4.47422 6.8766 4.56523 6.94171 4.63414C7.00681 4.70304 7.0956 4.74473 7.1902 4.75082C7.2848 4.75691 7.3782 4.72695 7.4516 4.66695L8.10035 4.02195C8.2744 3.84791 8.51046 3.75013 8.7566 3.75013C9.00274 3.75013 9.2388 3.84791 9.41285 4.02195C9.5869 4.196 9.68468 4.43206 9.68468 4.6782C9.68468 4.92435 9.5869 5.16041 9.41285 5.33445L7.71035 7.0407C7.54324 7.20835 7.31809 7.30535 7.08147 7.31163C6.84485 7.31791 6.61486 7.233 6.4391 7.07445L6.3941 7.03695C6.32299 6.96734 6.22713 6.92882 6.12762 6.92987C6.02811 6.93093 5.93309 6.97147 5.86347 7.04258C5.79385 7.11369 5.75534 7.20955 5.75639 7.30906C5.75745 7.40857 5.79799 7.50359 5.8691 7.5732C5.89634 7.60106 5.92513 7.62736 5.95535 7.65195C6.27585 7.92962 6.68968 8.0755 7.11346 8.06019C7.53724 8.04488 7.93947 7.86952 8.2391 7.56945L9.94535 5.8632C10.2608 5.54973 10.4395 5.12417 10.4423 4.67942C10.4451 4.23468 10.2719 3.80689 9.96035 3.48945Z" fill="white"/>
<defs>
<linearGradient id="paint0_linear_2622_7027" x1="-5.4608e-08" y1="6.83721" x2="10.9375" y2="6.83721" gradientUnits="userSpaceOnUse">
<stop stop-color="#FF2F00"/>
<stop offset="1" stop-color="#FC6825"/>
</linearGradient>
</defs>
</svg>
