<svg width="13" height="13" viewBox="0 0 13 13" fill="none" xmlns="http://www.w3.org/2000/svg">
<path d="M7.36496 4.37695H2.9145C1.97473 4.37695 1.21289 5.13527 1.21289 6.0707V10.5006C1.21289 11.436 1.97473 12.1943 2.9145 12.1943H7.36496C8.30473 12.1943 9.06657 11.436 9.06657 10.5006V6.0707C9.06657 5.13527 8.30473 4.37695 7.36496 4.37695Z" stroke="#030229" stroke-width="1.31332" stroke-miterlimit="10"/>
<path d="M4.35352 2.94374C4.35352 2.49453 4.53278 2.06373 4.85186 1.74609C5.17094 1.42845 5.60371 1.25 6.05496 1.25H10.5057C10.957 1.25 11.3897 1.42845 11.7088 1.74609C12.0279 2.06373 12.2071 2.49453 12.2071 2.94374V7.37436C12.2071 7.59676 12.1631 7.81697 12.0776 8.02242C11.9921 8.22788 11.8668 8.41455 11.7088 8.57177C11.5508 8.72899 11.3632 8.85368 11.1568 8.93872C10.9503 9.02376 10.7291 9.06748 10.5057 9.06739" stroke="#030229" stroke-width="1.31332" stroke-miterlimit="10"/>
</svg>
