<svg width="25" height="25" viewBox="0 0 25 25" fill="none" xmlns="http://www.w3.org/2000/svg">
<path d="M10.7015 12.3284V17.2537" stroke="#464F60" stroke-width="1.5" stroke-linecap="round" stroke-linejoin="round"/>
<path d="M14.6418 12.3284V17.2537" stroke="#464F60" stroke-width="1.5" stroke-linecap="round" stroke-linejoin="round"/>
<path d="M4.79114 7.40295H20.5523" stroke="#464F60" stroke-width="1.5" stroke-linecap="round" stroke-linejoin="round"/>
<path d="M7.51123 10.3582C7.51123 9.944 7.17544 9.60822 6.76123 9.60822C6.34702 9.60822 6.01123 9.944 6.01123 10.3582H7.51123ZM19.3321 10.3582C19.3321 9.944 18.9963 9.60822 18.5821 9.60822C18.1679 9.60822 17.8321 9.944 17.8321 10.3582H19.3321ZM17.8321 10.3582V18.194H19.3321V10.3582H17.8321ZM15.5821 20.444H9.76123V21.944H15.5821V20.444ZM7.51123 18.194V10.3582H6.01123V18.194H7.51123ZM9.76123 20.444C8.51859 20.444 7.51123 19.4367 7.51123 18.194H6.01123C6.01123 20.2651 7.69016 21.944 9.76123 21.944V20.444ZM17.8321 18.194C17.8321 19.4367 16.8248 20.444 15.5821 20.444V21.944C17.6532 21.944 19.3321 20.2651 19.3321 18.194H17.8321Z" fill="#464F60"/>
<path d="M9.71655 5.46265C9.71655 4.35808 10.612 3.46265 11.7166 3.46265H13.627C14.7316 3.46265 15.627 4.35808 15.627 5.46265V7.40294H9.71655V5.46265Z" stroke="#464F60" stroke-width="1.5" stroke-linecap="round" stroke-linejoin="round"/>
</svg>
