<svg xmlns="http://www.w3.org/2000/svg" width="28" height="21" fill="none" viewBox="0 0 28 21">
  <g clip-path="url(#a)">
    <path fill="#7D8490" d="M27.907 12.921c-.337-3.77-1.626-7.21-3.652-10.411a2.75 2.75 0 0 0-1.435-1.171 26.85 26.85 0 0 0-4.68-1.33c-.155-.028-.234.013-.3.147-.178.37-.38.731-.542 1.109-.073.17-.163.2-.328.175a20.296 20.296 0 0 0-3.514-.205 17.92 17.92 0 0 0-2.367.198c-.206.033-.319 0-.408-.215-.154-.37-.364-.716-.54-1.08-.063-.132-.145-.154-.282-.13A24.08 24.08 0 0 0 4.43 1.664a.636.636 0 0 0-.278.241C2.34 4.601 1.034 7.505.413 10.692c-.17.878-.288 1.766-.356 2.658 0 .048.018.11-.057.13v.216c.047.049.02.109.028.164v.209c-.008.055.02.116-.028.164v.16a.547.547 0 0 1 0 .377v.43a.547.547 0 0 1 0 .376v.377c.036.033.026.077.028.118v.192c0 .041.008.086-.028.119v.215c.058.1.024.21.026.314.008.359.067.645.421.883 1.984 1.332 4.088 2.415 6.383 3.13.365.113.438.092.661-.223.37-.522.705-1.065 1.021-1.618.317-.553.312-.563-.278-.797-.524-.208-1.02-.474-1.523-.728-.089-.045-.226-.085-.125-.234a.46.46 0 0 1 .575-.161c.706.313 1.434.575 2.178.784 1.372.4 2.793.62 4.224.652.564.008 1.127 0 1.692-.041a16.96 16.96 0 0 0 4.595-1.004c.35-.128.694-.273 1.038-.414.173-.072.493.06.525.222.035.18-.146.202-.258.258-.543.272-1.085.55-1.657.764-.266.1-.292.19-.168.43.346.66.74 1.296 1.178 1.901.242.334.264.335.657.211 1.361-.43 2.68-.982 3.939-1.648a25.495 25.495 0 0 0 2.596-1.604.514.514 0 0 0 .25-.47 2.76 2.76 0 0 1 .05-.66v-.323c-.037-.033-.026-.078-.029-.119v-.192c0-.041-.008-.086.028-.119v-.322a2.697 2.697 0 0 1 0-.86v-.322c-.068-.04-.051-.103-.047-.163v-.215c0-.036-.021-.092.045-.106v-.268a.146.146 0 0 1-.023-.048c-.08-.18-.05-.379-.067-.566Zm-16.885.672c-.935.92-2.351.927-3.303.023-1.103-1.048-1.176-2.912-.159-4.042 1.197-1.33 3.242-1.004 4.027.639.196.405.293.85.284 1.299-.015.799-.265 1.507-.849 2.08Zm9.32-.012c-.936.931-2.366.944-3.323.031-1.172-1.115-1.162-3.115.02-4.217 1.293-1.206 3.34-.652 3.959 1.072.118.33.186.671.177.871-.007.955-.253 1.664-.833 2.243Z"/>
  </g>
  <defs>
    <clipPath id="a">
      <path fill="#fff" d="M0 0h28v21H0z"/>
    </clipPath>
  </defs>
</svg>
