<svg width="20" height="20" viewBox="0 0 20 20" fill="none" xmlns="http://www.w3.org/2000/svg">
<path d="M16.5837 12.4998C16.5837 12.0856 16.2479 11.7498 15.8337 11.7498C15.4194 11.7498 15.0837 12.0856 15.0837 12.4998H16.5837ZM4.91699 12.4998C4.91699 12.0856 4.58121 11.7498 4.16699 11.7498C3.75278 11.7498 3.41699 12.0856 3.41699 12.4998H4.91699ZM10.7503 4.1665C10.7503 3.75229 10.4145 3.4165 10.0003 3.4165C9.58611 3.4165 9.25033 3.75229 9.25033 4.1665H10.7503ZM10.0003 12.4998L9.47 13.0302C9.76289 13.3231 10.2378 13.3231 10.5307 13.0302L10.0003 12.4998ZM8.86399 10.3028C8.5711 10.0099 8.09622 10.0099 7.80333 10.3028C7.51044 10.5957 7.51044 11.0706 7.80333 11.3635L8.86399 10.3028ZM12.1973 11.3635C12.4902 11.0706 12.4902 10.5957 12.1973 10.3028C11.9044 10.0099 11.4296 10.0099 11.1367 10.3028L12.1973 11.3635ZM14.167 15.0832H5.83366V16.5832H14.167V15.0832ZM16.5837 14.1665V12.4998H15.0837V14.1665H16.5837ZM4.91699 14.1665V12.4998H3.41699V14.1665H4.91699ZM5.83366 15.0832C5.3274 15.0832 4.91699 14.6728 4.91699 14.1665H3.41699C3.41699 15.5012 4.49897 16.5832 5.83366 16.5832V15.0832ZM14.167 16.5832C15.5017 16.5832 16.5837 15.5012 16.5837 14.1665H15.0837C15.0837 14.6728 14.6733 15.0832 14.167 15.0832V16.5832ZM9.25033 4.1665V12.4998H10.7503V4.1665H9.25033ZM10.5307 11.9695L8.86399 10.3028L7.80333 11.3635L9.47 13.0302L10.5307 11.9695ZM10.5307 13.0302L12.1973 11.3635L11.1367 10.3028L9.47 11.9695L10.5307 13.0302Z" fill="#F7F9FC"/>
</svg>
