<svg width="14" height="14" viewBox="0 0 14 14" fill="none" xmlns="http://www.w3.org/2000/svg">
<path d="M0 7C0 3.13401 3.13401 0 7 0C10.866 0 14 3.13401 14 7C14 10.866 10.866 14 7 14C3.13401 14 0 10.866 0 7Z" fill="#1877F2"/>
<path d="M9.7248 9.02344L10.0352 7H8.09375V5.6875C8.09375 5.13379 8.36445 4.59375 9.23398 4.59375H10.1172V2.87109C10.1172 2.87109 9.31602 2.73438 8.55039 2.73438C6.95078 2.73438 5.90625 3.70371 5.90625 5.45781V7H4.12891V9.02344H5.90625V13.9152C6.26309 13.9713 6.62812 14 7 14C7.37188 14 7.73691 13.9713 8.09375 13.9152V9.02344H9.7248Z" fill="white"/>
</svg>
