<svg width="18" height="18" viewBox="0 0 18 18" fill="none" xmlns="http://www.w3.org/2000/svg">
<path d="M9.75354 1.21943C10.0925 0.881811 10.5514 0.692261 11.0298 0.692261C11.5082 0.692261 11.9671 0.881811 12.3061 1.21943L16.7729 5.68742C17.0973 6.02868 17.2756 6.48322 17.2697 6.95411C17.2639 7.42499 17.0743 7.87494 16.7415 8.20802C16.4087 8.54109 15.9589 8.73092 15.4882 8.73702C15.0174 8.74312 14.5629 8.56501 14.2216 8.24068L13.9026 7.9212L11.2375 10.587C12.0413 12.7624 11.5028 15.4468 9.75311 17.1783C9.66814 17.2624 9.55345 17.3096 9.43394 17.3096C9.31443 17.3096 9.19974 17.2624 9.11476 17.1783L5.2859 13.348L2.41479 16.2195C2.3302 16.3041 2.21546 16.3517 2.09582 16.3517C1.97619 16.3517 1.86145 16.3041 1.77686 16.2195C1.69226 16.1349 1.64474 16.0201 1.64474 15.9005C1.64474 15.7808 1.69226 15.666 1.77686 15.5814L4.6484 12.7087L0.819539 8.8792C0.777113 8.83757 0.74341 8.78789 0.720404 8.73307C0.697397 8.67825 0.685547 8.61939 0.685547 8.55994C0.685547 8.50049 0.697397 8.44163 0.720404 8.38681C0.74341 8.33199 0.777113 8.28231 0.819539 8.24068C2.52689 6.53286 5.12007 5.92184 7.40867 6.75544L10.0738 4.08962L9.75354 3.77142C9.41518 3.43276 9.22511 2.97357 9.22511 2.49479C9.22511 2.01601 9.41518 1.55682 9.75354 1.21816V1.21943ZM11.6678 1.85753C11.4985 1.68824 11.269 1.59314 11.0296 1.59314C10.7903 1.59314 10.5607 1.68824 10.3915 1.85753C10.2222 2.02682 10.1271 2.25643 10.1271 2.49585C10.1271 2.73526 10.2222 2.96487 10.3915 3.13416L11.0298 3.77142C11.1135 3.85651 11.1604 3.9711 11.1604 4.09047C11.1604 4.20984 11.1135 4.32443 11.0298 4.40952L7.84059 7.60004C7.77753 7.66303 7.69726 7.70596 7.60986 7.72343C7.52247 7.74089 7.43187 7.73212 7.34945 7.69821C5.57272 6.96786 3.42964 7.17858 1.78997 8.572L9.42061 16.206C10.7468 14.6712 11.0281 12.3608 10.2946 10.6454C10.2611 10.5631 10.2524 10.4727 10.2696 10.3855C10.2868 10.2983 10.3292 10.218 10.3915 10.1546L13.5824 6.96405C13.6242 6.92208 13.674 6.88879 13.7287 6.86607C13.7834 6.84336 13.8421 6.83166 13.9014 6.83166C13.9606 6.83166 14.0193 6.84336 14.074 6.86607C14.1288 6.88879 14.1785 6.92208 14.2203 6.96405L14.8587 7.60257C15.0279 7.77187 15.2575 7.86697 15.4968 7.86697C15.7362 7.86697 15.9657 7.77187 16.135 7.60257C16.3042 7.43328 16.3993 7.20367 16.3993 6.96426C16.3993 6.72485 16.3042 6.49524 16.135 6.32595L11.6678 1.85753Z" fill="#030229" stroke="#030229" stroke-width="0.3" stroke-miterlimit="10"/>
</svg>
