<svg width="94" height="94" viewBox="0 0 94 94" fill="none" xmlns="http://www.w3.org/2000/svg">
<circle cx="47" cy="47" r="47" fill="#FC6825" fill-opacity="0.2"/>
<path d="M66.7836 32.8916C66.1486 32.8916 65.634 33.4061 65.634 34.0412V83.1459C65.634 83.563 65.2949 83.9022 64.8778 83.9022H28.9421C28.525 83.9022 28.1858 83.563 28.1858 83.1459V61.9062C28.1858 61.2712 27.6713 60.7566 27.0363 60.7566C26.4013 60.7566 25.8867 61.2712 25.8867 61.9062V83.1458C25.8867 84.8304 27.2573 86.2011 28.9421 86.2011H64.8778C66.5624 86.2011 67.9332 84.8306 67.9332 83.1458V34.0412C67.9332 33.4061 67.4185 32.8916 66.7836 32.8916Z" fill="url(#paint0_linear_4094_5323)"/>
<path d="M27.0363 58.1563C27.6713 58.1563 28.1858 57.6418 28.1858 57.0068V27.5183C28.1858 27.1012 28.525 26.762 28.9421 26.762H53.9099C54.5449 26.762 55.0595 26.2475 55.0595 25.6125C55.0595 24.9774 54.5449 24.4629 53.9099 24.4629H28.9421C27.2575 24.4629 25.8867 25.8335 25.8867 27.5183V57.0068C25.8867 57.6416 26.4014 58.1563 27.0363 58.1563Z" fill="url(#paint1_linear_4094_5323)"/>
<path d="M61.9877 51.0546V35.6095C61.9877 33.8411 60.5489 32.4023 58.7806 32.4023H35.0362C33.2679 32.4023 31.8291 33.8411 31.8291 35.6095V51.0546C31.8291 52.8231 33.2679 54.2619 35.0362 54.2619H40.481C41.116 54.2619 41.6306 53.7474 41.6306 53.1124C41.6306 52.4773 41.116 51.9628 40.481 51.9628H35.0362C34.5355 51.9628 34.1282 51.5554 34.1282 51.0546V35.6095C34.1282 35.1087 34.5355 34.7015 35.0362 34.7015H58.7806C59.2814 34.7015 59.6886 35.1087 59.6886 35.6095V51.0546C59.6886 51.5554 59.2814 51.9628 58.7806 51.9628H45.3801C44.7451 51.9628 44.2305 52.4773 44.2305 53.1124C44.2305 53.7474 44.7451 54.2619 45.3801 54.2619H58.7806C60.5491 54.2618 61.9877 52.8231 61.9877 51.0546Z" fill="url(#paint2_linear_4094_5323)"/>
<path d="M56.8847 77.1399H52.7716C52.1365 77.1399 51.622 77.6544 51.622 78.2895C51.622 78.9245 52.1365 79.439 52.7716 79.439H56.8847C58.411 79.439 59.6528 78.1973 59.6528 76.671V72.6402C59.6528 71.1139 58.411 69.8721 56.8847 69.8721H36.9342C35.4078 69.8721 34.166 71.1139 34.166 72.6402V76.671C34.166 78.1973 35.4078 79.439 36.9342 79.439H47.8726C48.5076 79.439 49.0222 78.9245 49.0222 78.2895C49.0222 77.6544 48.5076 77.1399 47.8726 77.1399H36.9342C36.6754 77.1399 36.4651 76.9296 36.4651 76.671V72.6402C36.4651 72.3815 36.6754 72.1712 36.9342 72.1712H56.8847C57.1434 72.1712 57.3537 72.3815 57.3537 72.6402V76.671C57.3537 76.9296 57.1434 77.1399 56.8847 77.1399Z" fill="url(#paint3_linear_4094_5323)"/>
<path d="M35.8 60.6058H58.3496C58.9846 60.6058 59.4991 60.0912 59.4991 59.4562C59.4991 58.8212 58.9846 58.3066 58.3496 58.3066H35.8C35.1649 58.3066 34.6504 58.8212 34.6504 59.4562C34.6504 60.0912 35.1649 60.6058 35.8 60.6058Z" fill="url(#paint4_linear_4094_5323)"/>
<path d="M35.8 66.389H58.3496C58.9846 66.389 59.4991 65.8744 59.4991 65.2394C59.4991 64.6044 58.9846 64.0898 58.3496 64.0898H35.8C35.1649 64.0898 34.6504 64.6044 34.6504 65.2394C34.6504 65.8744 35.1649 66.389 35.8 66.389Z" fill="url(#paint5_linear_4094_5323)"/>
<path d="M22.4373 30.7109H10.8559C9.18918 30.7109 7.83301 32.0671 7.83301 33.7341V76.9944C7.83301 78.6614 9.18918 80.0175 10.856 80.0175H22.4375C23.0725 80.0175 23.587 79.503 23.587 78.868C23.587 78.233 23.0725 77.7184 22.4375 77.7184H10.856C10.4569 77.7184 10.1321 77.3936 10.1321 76.9944V33.7341C10.1321 33.335 10.4568 33.0101 10.856 33.0101H22.4375C23.0725 33.0101 23.587 32.4955 23.587 31.8605C23.587 31.2255 23.0723 30.7109 22.4373 30.7109Z" fill="url(#paint6_linear_4094_5323)"/>
<path d="M83.1404 30.7109H71.381C70.746 30.7109 70.2314 31.2255 70.2314 31.8605C70.2314 32.4955 70.746 33.0101 71.381 33.0101H83.1404C83.5395 33.0101 83.8645 33.3348 83.8645 33.7341V76.9944C83.8645 77.3935 83.5397 77.7184 83.1404 77.7184H71.381C70.746 77.7184 70.2314 78.233 70.2314 78.868C70.2314 79.503 70.746 80.0175 71.381 80.0175H83.1404C84.8074 80.0175 86.1636 78.6614 86.1636 76.9944V33.7341C86.1636 32.0671 84.8074 30.7109 83.1404 30.7109Z" fill="url(#paint7_linear_4094_5323)"/>
<path d="M22.4371 39.2874C23.0721 39.2874 23.5867 38.7729 23.5867 38.1378C23.5867 37.5028 23.0721 36.9883 22.4371 36.9883H14.8877C13.7235 36.9883 12.7764 37.9355 12.7764 39.0998V49.8301C12.7764 50.9945 13.7236 51.9416 14.8877 51.9416H22.4371C23.0721 51.9416 23.5867 51.4271 23.5867 50.792C23.5867 50.157 23.0721 49.6425 22.4371 49.6425H15.0755V39.2872H22.4371V39.2874Z" fill="url(#paint8_linear_4094_5323)"/>
<path d="M81.0427 39.0998C81.0427 37.9354 80.0955 36.9883 78.9314 36.9883H71.382C70.747 36.9883 70.2324 37.5028 70.2324 38.1378C70.2324 38.7729 70.747 39.2874 71.382 39.2874H78.7436V49.6426H71.382C70.747 49.6426 70.2324 50.1572 70.2324 50.7922C70.2324 51.4272 70.747 51.9418 71.382 51.9418H78.9314C80.0956 51.9418 81.0427 50.9945 81.0427 49.8302V39.0998Z" fill="url(#paint9_linear_4094_5323)"/>
<path d="M71.382 69.3921C70.747 69.3921 70.2324 69.9066 70.2324 70.5416C70.2324 71.1767 70.747 71.6912 71.382 71.6912H78.8017C80.0374 71.6912 81.0427 70.6859 81.0427 69.4502V64.4637C81.0427 63.228 80.0374 62.2227 78.8017 62.2227H71.382C70.747 62.2227 70.2324 62.7372 70.2324 63.3722C70.2324 64.0072 70.747 64.5218 71.382 64.5218H78.7436V69.3921H71.382Z" fill="url(#paint10_linear_4094_5323)"/>
<path d="M22.4371 64.5218C23.0721 64.5218 23.5867 64.0072 23.5867 63.3722C23.5867 62.7372 23.0721 62.2227 22.4371 62.2227H15.0174C13.7817 62.2227 12.7764 63.228 12.7764 64.4637V69.4502C12.7764 70.6859 13.7817 71.6912 15.0174 71.6912H22.4371C23.0721 71.6912 23.5867 71.1767 23.5867 70.5416C23.5867 69.9066 23.0721 69.3921 22.4371 69.3921H15.0755V64.5218H22.4371Z" fill="url(#paint11_linear_4094_5323)"/>
<path d="M22.4374 55.5049H17.0783C16.4433 55.5049 15.9287 56.0194 15.9287 56.6544C15.9287 57.2895 16.4433 57.804 17.0783 57.804H22.4374C23.0724 57.804 23.5869 57.2895 23.5869 56.6544C23.5869 56.0194 23.0724 55.5049 22.4374 55.5049Z" fill="url(#paint12_linear_4094_5323)"/>
<path d="M71.382 57.804H77.1732C77.8082 57.804 78.3227 57.2895 78.3227 56.6544C78.3227 56.0194 77.8082 55.5049 77.1732 55.5049H71.382C70.747 55.5049 70.2324 56.0194 70.2324 56.6544C70.2324 57.2895 70.747 57.804 71.382 57.804Z" fill="url(#paint13_linear_4094_5323)"/>
<path d="M64.662 15.667C60.4898 15.667 57.0957 19.0613 57.0957 23.2331C57.0957 27.4049 60.49 30.7992 64.662 30.7992C68.8339 30.7992 72.2281 27.4049 72.2281 23.2331C72.2281 19.0613 68.8338 15.667 64.662 15.667ZM64.662 28.5001C61.7577 28.5001 59.3948 26.1373 59.3948 23.2331C59.3948 20.3288 61.7577 17.9661 64.662 17.9661C67.5662 17.9661 69.9289 20.3288 69.9289 23.2331C69.9289 26.1373 67.5662 28.5001 64.662 28.5001Z" fill="url(#paint14_linear_4094_5323)"/>
<defs>
<linearGradient id="paint0_linear_4094_5323" x1="25.8867" y1="58.9265" x2="58.7355" y2="58.9265" gradientUnits="userSpaceOnUse">
<stop stop-color="#FF2F00"/>
<stop offset="1" stop-color="#FC6825"/>
</linearGradient>
<linearGradient id="paint1_linear_4094_5323" x1="25.8867" y1="40.9178" x2="48.6779" y2="40.9178" gradientUnits="userSpaceOnUse">
<stop stop-color="#FF2F00"/>
<stop offset="1" stop-color="#FC6825"/>
</linearGradient>
<linearGradient id="paint2_linear_4094_5323" x1="31.8291" y1="43.0779" x2="55.3905" y2="43.0779" gradientUnits="userSpaceOnUse">
<stop stop-color="#FF2F00"/>
<stop offset="1" stop-color="#FC6825"/>
</linearGradient>
<linearGradient id="paint3_linear_4094_5323" x1="34.166" y1="74.5443" x2="54.0776" y2="74.5443" gradientUnits="userSpaceOnUse">
<stop stop-color="#FF2F00"/>
<stop offset="1" stop-color="#FC6825"/>
</linearGradient>
<linearGradient id="paint4_linear_4094_5323" x1="34.6504" y1="59.4295" x2="54.0635" y2="59.4295" gradientUnits="userSpaceOnUse">
<stop stop-color="#FF2F00"/>
<stop offset="1" stop-color="#FC6825"/>
</linearGradient>
<linearGradient id="paint5_linear_4094_5323" x1="34.6504" y1="65.2127" x2="54.0635" y2="65.2127" gradientUnits="userSpaceOnUse">
<stop stop-color="#FF2F00"/>
<stop offset="1" stop-color="#FC6825"/>
</linearGradient>
<linearGradient id="paint6_linear_4094_5323" x1="7.83301" y1="54.7909" x2="20.1408" y2="54.7909" gradientUnits="userSpaceOnUse">
<stop stop-color="#FF2F00"/>
<stop offset="1" stop-color="#FC6825"/>
</linearGradient>
<linearGradient id="paint7_linear_4094_5323" x1="70.2314" y1="54.7909" x2="82.6784" y2="54.7909" gradientUnits="userSpaceOnUse">
<stop stop-color="#FF2F00"/>
<stop offset="1" stop-color="#FC6825"/>
</linearGradient>
<linearGradient id="paint8_linear_4094_5323" x1="12.7764" y1="44.2911" x2="21.2219" y2="44.2911" gradientUnits="userSpaceOnUse">
<stop stop-color="#FF2F00"/>
<stop offset="1" stop-color="#FC6825"/>
</linearGradient>
<linearGradient id="paint9_linear_4094_5323" x1="70.2324" y1="44.2911" x2="78.678" y2="44.2911" gradientUnits="userSpaceOnUse">
<stop stop-color="#FF2F00"/>
<stop offset="1" stop-color="#FC6825"/>
</linearGradient>
<linearGradient id="paint10_linear_4094_5323" x1="70.2324" y1="66.8468" x2="78.678" y2="66.8468" gradientUnits="userSpaceOnUse">
<stop stop-color="#FF2F00"/>
<stop offset="1" stop-color="#FC6825"/>
</linearGradient>
<linearGradient id="paint11_linear_4094_5323" x1="12.7764" y1="66.8468" x2="21.2219" y2="66.8468" gradientUnits="userSpaceOnUse">
<stop stop-color="#FF2F00"/>
<stop offset="1" stop-color="#FC6825"/>
</linearGradient>
<linearGradient id="paint12_linear_4094_5323" x1="15.9287" y1="56.6277" x2="21.9117" y2="56.6277" gradientUnits="userSpaceOnUse">
<stop stop-color="#FF2F00"/>
<stop offset="1" stop-color="#FC6825"/>
</linearGradient>
<linearGradient id="paint13_linear_4094_5323" x1="70.2324" y1="56.6277" x2="76.553" y2="56.6277" gradientUnits="userSpaceOnUse">
<stop stop-color="#FF2F00"/>
<stop offset="1" stop-color="#FC6825"/>
</linearGradient>
<linearGradient id="paint14_linear_4094_5323" x1="57.0957" y1="23.0571" x2="68.9179" y2="23.0571" gradientUnits="userSpaceOnUse">
<stop stop-color="#FF2F00"/>
<stop offset="1" stop-color="#FC6825"/>
</linearGradient>
</defs>
</svg>
