<svg width="94" height="94" viewBox="0 0 94 94" fill="none" xmlns="http://www.w3.org/2000/svg">
<circle cx="47" cy="47" r="47" fill="#FC6825" fill-opacity="0.2"/>
<path d="M71.7298 20.8887H28.0252C23.9384 20.8887 20.6133 24.2138 20.6133 28.3006V75.5834C20.6133 77.6974 22.333 79.4171 24.4471 79.4171H41.2303C41.9362 79.4171 42.5082 78.8451 42.5082 78.1392C42.5082 77.4333 41.9362 76.8613 41.2303 76.8613H24.4471C23.7422 76.8613 23.1691 76.2882 23.1691 75.5834V28.3006C23.1691 25.623 25.3476 23.4445 28.0252 23.4445H66.1374C65.0057 24.7464 64.3178 26.4442 64.3178 28.3006V69.4838C64.3178 70.6628 63.3589 71.6218 62.1798 71.6218C61.2583 71.6218 60.4431 71.0342 60.1511 70.1602L58.2252 64.3815C57.6816 62.7502 56.1606 61.6545 54.4413 61.6545C52.2419 61.6545 50.4528 63.4436 50.4528 65.6425V66.6379H43.8291C43.1232 66.6379 42.5512 67.2104 42.5512 67.9158C42.5512 68.6217 43.1232 69.1937 43.8291 69.1937H50.4528V75.5514C50.4528 77.4383 50.8207 79.2784 51.5465 81.0195L53.4265 85.5317C53.6312 86.0224 54.1059 86.3184 54.6066 86.3184C54.7703 86.3184 54.937 86.287 55.0973 86.2201C55.7492 85.9485 56.0572 85.2002 55.7857 84.5488L53.9057 80.0366C53.3107 78.6084 53.0087 77.0994 53.0087 75.5519V65.643C53.0087 64.8528 53.6511 64.2103 54.4413 64.2103C55.0588 64.2103 55.6055 64.6037 55.8006 65.1897L57.7265 70.9683C58.3665 72.8877 60.1561 74.1776 62.1798 74.1776C64.7681 74.1776 66.8737 72.0721 66.8737 69.4838V47.5738L68.5814 49.2781C71.6284 52.3191 73.3062 56.3651 73.3062 60.6696V74.254C73.3062 77.7728 72.509 81.313 71.0015 84.4924C70.6989 85.1299 70.971 85.8921 71.6085 86.1946C72.2459 86.4971 73.0082 86.2256 73.3107 85.5876C74.9795 82.0683 75.8621 78.1492 75.8621 74.254V60.6696C75.8621 55.6812 73.9177 50.9933 70.387 47.469L66.8737 43.9622V42.7412H75.308C77.422 42.7412 79.1417 41.0215 79.1417 38.9074V28.3006C79.1417 24.2138 75.8171 20.8887 71.7298 20.8887V20.8887ZM76.5859 38.9074C76.5859 39.6118 76.0128 40.1853 75.308 40.1853H66.8737V28.3006C66.8737 25.623 69.0521 23.4445 71.7298 23.4445C74.4074 23.4445 76.5859 25.623 76.5859 28.3006V38.9074Z" fill="url(#paint0_linear_4094_5312)"/>
<path d="M46.8111 76.8613C46.4747 76.8613 46.1452 76.9981 45.9076 77.2357C45.67 77.4738 45.5332 77.8033 45.5332 78.1393C45.5332 78.4757 45.67 78.8052 45.9076 79.0428C46.1452 79.2804 46.4747 79.4172 46.8111 79.4172C47.1471 79.4172 47.4765 79.2804 47.7147 79.0428C47.9523 78.8052 48.0891 78.4757 48.0891 78.1393C48.0891 77.8033 47.9523 77.4738 47.7147 77.2357C47.4765 76.9981 47.1471 76.8613 46.8111 76.8613Z" fill="url(#paint1_linear_4094_5312)"/>
<path d="M38.2062 30.3449C38.2062 28.9357 37.0596 27.7891 35.6504 27.7891H30.0275C28.6178 27.7891 27.4717 28.9357 27.4717 30.3449V35.9678C27.4717 37.377 28.6178 38.5236 30.0275 38.5236H35.6504C37.0596 38.5236 38.2062 37.377 38.2062 35.9678V30.3449ZM35.6504 35.9678H30.0275V30.3449H35.6504L35.6519 35.9678C35.6519 35.9678 35.6514 35.9678 35.6504 35.9678Z" fill="url(#paint2_linear_4094_5312)"/>
<path d="M38.2062 45.6808C38.2062 44.2716 37.0596 43.125 35.6504 43.125H30.0275C28.6178 43.125 27.4717 44.2716 27.4717 45.6808V51.3037C27.4717 52.7129 28.6178 53.8596 30.0275 53.8596H35.6504C37.0596 53.8596 38.2062 52.7129 38.2062 51.3037V45.6808ZM35.6504 51.3037H30.0275V45.6808H35.6504L35.6519 51.3037C35.6519 51.3037 35.6514 51.3037 35.6504 51.3037Z" fill="url(#paint3_linear_4094_5312)"/>
<path d="M35.6504 58.46H30.0275C28.6178 58.46 27.4717 59.6061 27.4717 61.0158V66.6382C27.4717 68.0479 28.6178 69.194 30.0275 69.194H35.6504C37.0596 69.194 38.2062 68.0479 38.2062 66.6382V61.0158C38.2062 59.6061 37.0596 58.46 35.6504 58.46ZM35.6504 66.6382H30.0275V61.0158H35.6504L35.6519 66.6382C35.6519 66.6382 35.6514 66.6382 35.6504 66.6382Z" fill="url(#paint4_linear_4094_5312)"/>
<path d="M58.4831 38.5236C59.189 38.5236 59.7611 37.9516 59.7611 37.2457C59.7611 36.5398 59.189 35.9678 58.4831 35.9678H49.6734C48.9676 35.9678 48.3955 36.5398 48.3955 37.2457C48.3955 37.9516 48.9676 38.5236 49.6734 38.5236H58.4831Z" fill="url(#paint5_linear_4094_5312)"/>
<path d="M43.8287 38.5236C44.1652 38.5236 44.4946 38.3868 44.7322 38.1492C44.9699 37.9116 45.1066 37.5817 45.1066 37.2457C45.1066 36.9097 44.9699 36.5798 44.7322 36.3422C44.4946 36.1046 44.1652 35.9678 43.8287 35.9678C43.4913 35.9678 43.1628 36.1046 42.9252 36.3422C42.6866 36.5798 42.5508 36.9097 42.5508 37.2457C42.5508 37.5817 42.6866 37.9116 42.9252 38.1492C43.1628 38.3868 43.4913 38.5236 43.8287 38.5236Z" fill="url(#paint6_linear_4094_5312)"/>
<path d="M43.8287 53.8596H58.4824C59.1883 53.8596 59.7603 53.2875 59.7603 52.5816C59.7603 51.8758 59.1883 51.3037 58.4824 51.3037H43.8287C43.1234 51.3037 42.5508 51.8758 42.5508 52.5816C42.5508 53.2875 43.1234 53.8596 43.8287 53.8596Z" fill="url(#paint7_linear_4094_5312)"/>
<defs>
<linearGradient id="paint0_linear_4094_5312" x1="20.6133" y1="52.8427" x2="66.3386" y2="52.8427" gradientUnits="userSpaceOnUse">
<stop stop-color="#FF2F00"/>
<stop offset="1" stop-color="#FC6825"/>
</linearGradient>
<linearGradient id="paint1_linear_4094_5312" x1="45.5332" y1="78.1095" x2="47.53" y2="78.1095" gradientUnits="userSpaceOnUse">
<stop stop-color="#FF2F00"/>
<stop offset="1" stop-color="#FC6825"/>
</linearGradient>
<linearGradient id="paint2_linear_4094_5312" x1="27.4717" y1="33.0315" x2="35.8581" y2="33.0315" gradientUnits="userSpaceOnUse">
<stop stop-color="#FF2F00"/>
<stop offset="1" stop-color="#FC6825"/>
</linearGradient>
<linearGradient id="paint3_linear_4094_5312" x1="27.4717" y1="48.3675" x2="35.8581" y2="48.3675" gradientUnits="userSpaceOnUse">
<stop stop-color="#FF2F00"/>
<stop offset="1" stop-color="#FC6825"/>
</linearGradient>
<linearGradient id="paint4_linear_4094_5312" x1="27.4717" y1="63.7022" x2="35.8581" y2="63.7022" gradientUnits="userSpaceOnUse">
<stop stop-color="#FF2F00"/>
<stop offset="1" stop-color="#FC6825"/>
</linearGradient>
<linearGradient id="paint5_linear_4094_5312" x1="48.3955" y1="37.216" x2="57.2748" y2="37.216" gradientUnits="userSpaceOnUse">
<stop stop-color="#FF2F00"/>
<stop offset="1" stop-color="#FC6825"/>
</linearGradient>
<linearGradient id="paint6_linear_4094_5312" x1="42.5508" y1="37.216" x2="44.5475" y2="37.216" gradientUnits="userSpaceOnUse">
<stop stop-color="#FF2F00"/>
<stop offset="1" stop-color="#FC6825"/>
</linearGradient>
<linearGradient id="paint7_linear_4094_5312" x1="42.5508" y1="52.5519" x2="55.9957" y2="52.5519" gradientUnits="userSpaceOnUse">
<stop stop-color="#FF2F00"/>
<stop offset="1" stop-color="#FC6825"/>
</linearGradient>
</defs>
</svg>
