<svg width="100" height="100" viewBox="0 0 100 100" fill="none" xmlns="http://www.w3.org/2000/svg">
<circle cx="50" cy="50" r="50" fill="url(#paint0_linear_5929_10005)"/>
<path d="M70.2632 53.542H73.8564C75.5899 53.542 77.0005 54.9526 77.0005 56.6861V67.4657C77.0005 69.1992 75.5899 70.6098 73.8564 70.6098H70.2632C68.5298 70.6098 67.1191 69.1992 67.1191 67.4657V56.6861C67.1191 54.9526 68.5298 53.542 70.2632 53.542Z" fill="url(#paint1_linear_5929_10005)"/>
<path d="M55.8902 42.7627H59.4834C61.2168 42.7627 62.6274 44.1733 62.6274 45.9068V67.4661C62.6274 69.1995 61.2168 70.6102 59.4834 70.6102H55.8902C54.1567 70.6102 52.7461 69.1995 52.7461 67.4661V45.9068C52.7461 44.1733 54.1567 42.7627 55.8902 42.7627Z" fill="url(#paint2_linear_5929_10005)"/>
<path d="M41.5171 51.7451H45.1103C46.8438 51.7451 48.2544 53.1557 48.2544 54.8892V67.4655C48.2544 69.1989 46.8438 70.6095 45.1103 70.6095H41.5171C39.7837 70.6095 38.373 69.1989 38.373 67.4655V54.8892C38.373 53.1557 39.7837 51.7451 41.5171 51.7451Z" fill="url(#paint3_linear_5929_10005)"/>
<path d="M27.1441 37.3721H30.7373C32.4707 37.3721 33.8814 38.7827 33.8814 40.5161V67.4653C33.8814 69.1987 32.4707 70.6094 30.7373 70.6094H27.1441C25.4106 70.6094 24 69.1987 24 67.4653V40.5161C24 38.7827 25.4106 37.3721 27.1441 37.3721Z" fill="url(#paint4_linear_5929_10005)"/>
<path d="M28.9407 23C31.6654 23 33.8814 25.2159 33.8814 27.9407C33.8814 28.8126 33.6352 29.6202 33.2373 30.3319L40.9223 38.0169C41.6341 37.6191 42.4417 37.3729 43.3136 37.3729C44.436 37.3729 45.46 37.7634 46.2903 38.3961L53.0861 33.2996C52.8743 32.7496 52.7458 32.1578 52.7458 31.5339C52.7458 28.8092 54.9617 26.5932 57.6864 26.5932C60.4112 26.5932 62.6271 28.8092 62.6271 31.5339C62.6271 32.2888 62.4436 32.9965 62.1397 33.6369L69.3735 39.9736C70.1479 39.4691 71.0679 39.1695 72.0593 39.1695C74.7841 39.1695 77 41.3854 77 44.1102C77 46.8349 74.7841 49.0508 72.0593 49.0508C69.3346 49.0508 67.1186 46.8349 67.1186 44.1102C67.1186 43.3553 67.3022 42.6476 67.6061 42.0072L60.3722 35.6705C59.5979 36.175 58.6778 36.4746 57.6864 36.4746C56.564 36.4746 55.54 36.0841 54.7097 35.4514L47.9139 40.5479C48.1257 41.0979 48.2542 41.6896 48.2542 42.3136C48.2542 45.0383 46.0383 47.2542 43.3136 47.2542C40.5888 47.2542 38.3729 45.0383 38.3729 42.3136C38.3729 41.4417 38.6191 40.6341 39.0169 39.9223L31.3319 32.2373C30.6202 32.6352 29.8126 32.8814 28.9407 32.8814C26.2159 32.8814 24 30.6654 24 27.9407C24 25.2159 26.2159 23 28.9407 23Z" fill="url(#paint5_linear_5929_10005)"/>
<path d="M25.3475 73.3047H75.6525C76.3964 73.3047 77 73.9082 77 74.6521C77 75.396 76.3964 75.9996 75.6525 75.9996H25.3475C24.6036 75.9996 24 75.396 24 74.6521C24 73.9082 24.6036 73.3047 25.3475 73.3047Z" fill="url(#paint6_linear_5929_10005)"/>
<defs>
<linearGradient id="paint0_linear_5929_10005" x1="50" y1="0" x2="50" y2="100" gradientUnits="userSpaceOnUse">
<stop stop-color="#FFF5F0"/>
<stop offset="1" stop-color="#FFAC85"/>
</linearGradient>
<linearGradient id="paint1_linear_5929_10005" x1="72.0598" y1="70.6098" x2="72.0598" y2="53.542" gradientUnits="userSpaceOnUse">
<stop stop-color="#FC6825"/>
<stop offset="0.5028" stop-color="#FFC5AA"/>
<stop offset="1" stop-color="white"/>
</linearGradient>
<linearGradient id="paint2_linear_5929_10005" x1="57.6868" y1="70.6102" x2="57.6868" y2="42.7627" gradientUnits="userSpaceOnUse">
<stop stop-color="#FF2F00"/>
<stop offset="1" stop-color="#FF9F74"/>
</linearGradient>
<linearGradient id="paint3_linear_5929_10005" x1="43.3137" y1="70.6095" x2="43.3137" y2="51.7451" gradientUnits="userSpaceOnUse">
<stop stop-color="#FC6825"/>
<stop offset="0.5028" stop-color="#FFC5AA"/>
<stop offset="1" stop-color="white"/>
</linearGradient>
<linearGradient id="paint4_linear_5929_10005" x1="28.9407" y1="70.6094" x2="28.9407" y2="37.3721" gradientUnits="userSpaceOnUse">
<stop stop-color="#FF2F00"/>
<stop offset="1" stop-color="#FF9F74"/>
</linearGradient>
<linearGradient id="paint5_linear_5929_10005" x1="50.5" y1="49.0508" x2="50.5" y2="23" gradientUnits="userSpaceOnUse">
<stop stop-color="#FF2F00"/>
<stop offset="1" stop-color="#FF9F74"/>
</linearGradient>
<linearGradient id="paint6_linear_5929_10005" x1="50.5" y1="75.9996" x2="50.5" y2="73.3047" gradientUnits="userSpaceOnUse">
<stop stop-color="#FF2F00"/>
<stop offset="1" stop-color="#FF9F74"/>
</linearGradient>
</defs>
</svg>
