<svg width="94" height="94" viewBox="0 0 94 94" fill="none" xmlns="http://www.w3.org/2000/svg">
<circle cx="47" cy="47" r="47" fill="#FC6825" fill-opacity="0.2"/>
<g clip-path="url(#clip0_4094_5279)">
<path d="M74.06 76.5455C76.4165 76.5455 78.3337 74.6283 78.3337 72.2717V28.7497C78.3337 25.3752 75.5883 22.6299 72.2139 22.6299H21.7868C18.4123 22.6299 15.667 25.3752 15.667 28.7497V72.2717C15.667 74.6283 17.5842 76.5455 19.9407 76.5455H21.2972V82.8486H16.891C16.215 82.8486 15.667 83.3967 15.667 84.0726C15.667 84.7485 16.215 85.2966 16.891 85.2966H77.1097C77.7857 85.2966 78.3337 84.7485 78.3337 84.0726C78.3337 83.3967 77.7857 82.8486 77.1097 82.8486H72.7035V76.5455H74.06ZM18.1149 28.7497C18.1149 26.725 19.7621 25.0778 21.7868 25.0778H72.2139C74.2385 25.0778 75.8857 26.725 75.8857 28.7497V31.4424H18.2378C18.1963 31.4424 18.1553 31.4446 18.1149 31.4486V28.7497ZM29.1305 82.8486H23.7451V71.833H29.1305V82.8486ZM42.8389 82.8486H37.4535V58.2999H42.8389V82.8486ZM56.5472 82.8486H51.1618V68.6507H56.5472V82.8486ZM71.4795 54.0244H63.6462C62.9702 54.0244 62.4222 54.5725 62.4222 55.2484V61.4292C62.4222 62.1051 62.9702 62.6532 63.6462 62.6532C64.3222 62.6532 64.8701 62.1051 64.8701 61.4292V56.4723H70.2555V82.8486H64.8701V69.6605C64.8701 68.9846 64.3222 68.4365 63.6462 68.4365C62.9702 68.4365 62.4222 68.9846 62.4222 69.6605V82.8486H58.9951V67.4268C58.9951 66.7509 58.4472 66.2028 57.7712 66.2028H49.9378C49.2618 66.2028 48.7139 66.7509 48.7139 67.4268V82.8486H45.2868V57.076C45.2868 56.4001 44.7388 55.852 44.0628 55.852H36.2295C35.5535 55.852 35.0055 56.4001 35.0055 57.076V82.8486H31.5785V70.6091C31.5785 69.9332 31.0305 69.3851 30.3545 69.3851H22.5212C21.8452 69.3851 21.2972 69.9332 21.2972 70.6091V74.0976H19.9407C18.9339 74.0976 18.1149 73.2785 18.1149 72.2717V33.8841C18.1553 33.8881 18.1963 33.8903 18.2378 33.8903H75.8857V72.2717C75.8857 73.2785 75.0667 74.0976 74.06 74.0976H72.7035V55.2484C72.7035 54.5725 72.1555 54.0244 71.4795 54.0244Z" fill="url(#paint0_linear_4094_5279)"/>
<path d="M70.5005 27.0361H42.847C42.171 27.0361 41.623 27.5842 41.623 28.2601C41.623 28.936 42.171 29.484 42.847 29.484H70.5005C71.1765 29.484 71.7245 28.936 71.7245 28.2601C71.7245 27.5842 71.1765 27.0361 70.5005 27.0361Z" fill="url(#paint1_linear_4094_5279)"/>
<path d="M29.2612 27.3948C29.0335 27.1671 28.7177 27.0361 28.3958 27.0361C28.0739 27.0361 27.7582 27.167 27.5305 27.3948C27.3028 27.6224 27.1719 27.9382 27.1719 28.2601C27.1719 28.582 27.3028 28.8978 27.5305 29.1253C27.7582 29.3531 28.0739 29.484 28.3958 29.484C28.7177 29.484 29.0335 29.3531 29.2612 29.1253C29.4888 28.8978 29.6198 28.582 29.6198 28.2601C29.6198 27.9382 29.4888 27.6224 29.2612 27.3948Z" fill="url(#paint2_linear_4094_5279)"/>
<path d="M24.3657 27.3948C24.138 27.1671 23.8222 27.0361 23.5003 27.0361C23.1784 27.0361 22.8626 27.167 22.635 27.3948C22.4073 27.6224 22.2764 27.9382 22.2764 28.2601C22.2764 28.582 22.4073 28.8978 22.635 29.1253C22.8626 29.3531 23.1784 29.484 23.5003 29.484C23.8222 29.484 24.138 29.3531 24.3657 29.1253C24.5933 28.8978 24.7243 28.582 24.7243 28.2601C24.7243 27.9382 24.5933 27.6224 24.3657 27.3948Z" fill="url(#paint3_linear_4094_5279)"/>
<path d="M34.1577 27.3948C33.93 27.1671 33.6154 27.0361 33.2923 27.0361C32.9704 27.0361 32.6546 27.167 32.427 27.3948C32.1993 27.6224 32.0684 27.9382 32.0684 28.2601C32.0684 28.582 32.1993 28.8978 32.427 29.1253C32.6546 29.3531 32.9704 29.484 33.2923 29.484C33.6142 29.484 33.93 29.3531 34.1577 29.1253C34.3853 28.8978 34.5163 28.582 34.5163 28.2601C34.5163 27.9382 34.3853 27.6224 34.1577 27.3948Z" fill="url(#paint4_linear_4094_5279)"/>
<path d="M64.5112 64.926C64.2835 64.6971 63.9677 64.5674 63.6458 64.5674C63.3239 64.5674 63.0082 64.6972 62.7805 64.926C62.5528 65.1537 62.4219 65.4694 62.4219 65.7913C62.4219 66.1132 62.5528 66.429 62.7805 66.6567C63.0082 66.8842 63.3239 67.0153 63.6458 67.0153C63.9677 67.0153 64.2835 66.8843 64.5112 66.6567C64.7388 66.429 64.8698 66.1132 64.8698 65.7913C64.8698 65.4682 64.7388 65.1537 64.5112 64.926Z" fill="url(#paint5_linear_4094_5279)"/>
<path d="M67.5627 39.2686C65.133 39.2686 63.1565 41.2451 63.1565 43.6748C63.1565 44.6399 63.4692 45.5329 63.9974 46.2596L55.8673 54.3897C55.2364 54.0405 54.5115 53.841 53.7407 53.841C53.0461 53.841 52.3888 54.0032 51.8039 54.2907L43.3146 45.8014C43.6638 45.1705 43.8633 44.4457 43.8633 43.6748C43.8633 41.2451 41.8868 39.2686 39.4571 39.2686C37.0274 39.2686 35.0508 41.2451 35.0508 43.6748C35.0508 44.524 35.2929 45.3174 35.7108 45.9908L28.483 53.2185C27.852 52.8693 27.1272 52.6698 26.3564 52.6698C23.9268 52.6698 21.9502 54.6464 21.9502 57.076C21.9502 59.5057 23.9268 61.4823 26.3564 61.4823C28.7861 61.4823 30.7627 59.5057 30.7627 57.076C30.7627 56.3052 30.5632 55.5804 30.214 54.9494L37.5281 47.6353C38.1111 47.9203 38.7657 48.0809 39.4571 48.0809C40.2278 48.0809 40.9526 47.8814 41.5836 47.5322L49.9897 55.9383C49.5747 56.6102 49.3344 57.4009 49.3344 58.247C49.3344 60.6767 51.311 62.6533 53.7407 62.6533C56.1704 62.6533 58.1469 60.6767 58.1469 58.247C58.1469 57.4762 57.9474 56.7513 57.5982 56.1204L65.9462 47.7724C66.4472 47.9709 66.9922 48.0811 67.5627 48.0811C69.9924 48.0811 71.969 46.1045 71.969 43.6748C71.969 41.2451 69.9924 39.2686 67.5627 39.2686ZM26.3566 59.0346C25.2768 59.0346 24.3982 58.1561 24.3982 57.0763C24.3982 55.9965 25.2768 55.118 26.3566 55.118C27.4363 55.118 28.3149 55.9965 28.3149 57.0763C28.3149 58.1561 27.4363 59.0346 26.3566 59.0346ZM39.4572 45.6331C38.3774 45.6331 37.4989 44.7546 37.4989 43.6748C37.4989 42.595 38.3774 41.7165 39.4572 41.7165C40.537 41.7165 41.4155 42.595 41.4155 43.6748C41.4155 44.7546 40.537 45.6331 39.4572 45.6331ZM53.7408 60.2056C52.661 60.2056 51.7825 59.327 51.7825 58.2473C51.7825 57.1675 52.661 56.2889 53.7408 56.2889C54.8206 56.2889 55.6991 57.1675 55.6991 58.2473C55.6991 59.327 54.8206 60.2056 53.7408 60.2056ZM67.5627 45.6331C66.4829 45.6331 65.6044 44.7546 65.6044 43.6748C65.6044 42.595 66.4829 41.7165 67.5627 41.7165C68.6425 41.7165 69.521 42.595 69.521 43.6748C69.521 44.7546 68.6425 45.6331 67.5627 45.6331Z" fill="url(#paint6_linear_4094_5279)"/>
<path d="M33.8217 38.4134C33.5928 38.1858 33.2783 38.0547 32.9564 38.0547C32.6333 38.0547 32.3175 38.1857 32.0898 38.4134C31.8622 38.641 31.7324 38.9567 31.7324 39.2786C31.7324 39.6005 31.8622 39.9163 32.0898 40.144C32.3187 40.3716 32.6333 40.5026 32.9564 40.5026C33.2783 40.5026 33.5928 40.3718 33.8217 40.144C34.0494 39.9163 34.1803 39.6005 34.1803 39.2786C34.1803 38.9567 34.0494 38.641 33.8217 38.4134Z" fill="url(#paint7_linear_4094_5279)"/>
<path d="M28.3958 38.0547H22.5208C21.8448 38.0547 21.2969 38.6028 21.2969 39.2786C21.2969 39.9545 21.8448 40.5026 22.5208 40.5026H28.3958C29.0718 40.5026 29.6198 39.9545 29.6198 39.2786C29.6198 38.6028 29.0718 38.0547 28.3958 38.0547Z" fill="url(#paint8_linear_4094_5279)"/>
<path d="M28.3958 43.9297H22.5208C21.8448 43.9297 21.2969 44.4778 21.2969 45.1536C21.2969 45.8295 21.8448 46.3776 22.5208 46.3776H28.3958C29.0718 46.3776 29.6198 45.8295 29.6198 45.1536C29.6198 44.4778 29.0718 43.9297 28.3958 43.9297Z" fill="url(#paint9_linear_4094_5279)"/>
</g>
<defs>
<linearGradient id="paint0_linear_4094_5279" x1="15.667" y1="53.2345" x2="64.6253" y2="53.2345" gradientUnits="userSpaceOnUse">
<stop stop-color="#FF2F00"/>
<stop offset="0.489583" stop-color="#FC6825"/>
<stop offset="1" stop-color="#FC7F25"/>
</linearGradient>
<linearGradient id="paint1_linear_4094_5279" x1="41.623" y1="28.2316" x2="65.1398" y2="28.2316" gradientUnits="userSpaceOnUse">
<stop stop-color="#FF2F00"/>
<stop offset="0.489583" stop-color="#FC6825"/>
<stop offset="1" stop-color="#FC7F25"/>
</linearGradient>
<linearGradient id="paint2_linear_4094_5279" x1="27.1719" y1="28.2316" x2="29.0843" y2="28.2316" gradientUnits="userSpaceOnUse">
<stop stop-color="#FF2F00"/>
<stop offset="0.489583" stop-color="#FC6825"/>
<stop offset="1" stop-color="#FC7F25"/>
</linearGradient>
<linearGradient id="paint3_linear_4094_5279" x1="22.2764" y1="28.2316" x2="24.1888" y2="28.2316" gradientUnits="userSpaceOnUse">
<stop stop-color="#FF2F00"/>
<stop offset="0.489583" stop-color="#FC6825"/>
<stop offset="1" stop-color="#FC7F25"/>
</linearGradient>
<linearGradient id="paint4_linear_4094_5279" x1="32.0684" y1="28.2316" x2="33.9808" y2="28.2316" gradientUnits="userSpaceOnUse">
<stop stop-color="#FF2F00"/>
<stop offset="0.489583" stop-color="#FC6825"/>
<stop offset="1" stop-color="#FC7F25"/>
</linearGradient>
<linearGradient id="paint5_linear_4094_5279" x1="62.4219" y1="65.7629" x2="64.3343" y2="65.7629" gradientUnits="userSpaceOnUse">
<stop stop-color="#FF2F00"/>
<stop offset="0.489583" stop-color="#FC6825"/>
<stop offset="1" stop-color="#FC7F25"/>
</linearGradient>
<linearGradient id="paint6_linear_4094_5279" x1="21.9502" y1="50.689" x2="61.0274" y2="50.689" gradientUnits="userSpaceOnUse">
<stop stop-color="#FF2F00"/>
<stop offset="0.489583" stop-color="#FC6825"/>
<stop offset="1" stop-color="#FC7F25"/>
</linearGradient>
<linearGradient id="paint7_linear_4094_5279" x1="31.7324" y1="39.2502" x2="33.6449" y2="39.2502" gradientUnits="userSpaceOnUse">
<stop stop-color="#FF2F00"/>
<stop offset="0.489583" stop-color="#FC6825"/>
<stop offset="1" stop-color="#FC7F25"/>
</linearGradient>
<linearGradient id="paint8_linear_4094_5279" x1="21.2969" y1="39.2502" x2="27.7992" y2="39.2502" gradientUnits="userSpaceOnUse">
<stop stop-color="#FF2F00"/>
<stop offset="0.489583" stop-color="#FC6825"/>
<stop offset="1" stop-color="#FC7F25"/>
</linearGradient>
<linearGradient id="paint9_linear_4094_5279" x1="21.2969" y1="45.1252" x2="27.7992" y2="45.1252" gradientUnits="userSpaceOnUse">
<stop stop-color="#FF2F00"/>
<stop offset="0.489583" stop-color="#FC6825"/>
<stop offset="1" stop-color="#FC7F25"/>
</linearGradient>
<clipPath id="clip0_4094_5279">
<rect width="62.6667" height="62.6667" fill="white" transform="translate(15.667 22.6299)"/>
</clipPath>
</defs>
</svg>
