<svg width="94" height="94" viewBox="0 0 94 94" fill="none" xmlns="http://www.w3.org/2000/svg">
<circle cx="47" cy="47" r="47" fill="#FC6825" fill-opacity="0.2"/>
<path d="M46.2361 38.5381L47.8437 37.2919C48.0417 37.1384 48.2814 37.0481 48.5315 37.0328C48.7816 37.0176 49.0305 37.0781 49.2457 37.2064L51.1998 38.3713C51.4837 38.5405 51.6887 38.8156 51.7698 39.1361C51.8509 39.4565 51.8014 39.796 51.6321 40.0799C51.4629 40.3638 51.1878 40.5689 50.8674 40.65C50.5469 40.7311 50.2074 40.6815 49.9235 40.5123L48.6994 39.7825L48.2456 40.1339V45.7542H49.4918C49.8223 45.7542 50.1393 45.8855 50.373 46.1192C50.6068 46.3529 50.738 46.6699 50.738 47.0004C50.738 47.3309 50.6068 47.6479 50.373 47.8816C50.1393 48.1153 49.8223 48.2466 49.4918 48.2466H48.2456V56.9701C48.2456 57.3006 48.1143 57.6176 47.8806 57.8513C47.6469 58.085 47.3299 58.2163 46.9994 58.2163C46.6689 58.2163 46.3519 58.085 46.1182 57.8513C45.8845 57.6176 45.7532 57.3006 45.7532 56.9701V39.5231C45.7532 39.333 45.7967 39.1454 45.8804 38.9746C45.9641 38.8039 46.0858 38.6546 46.2361 38.5381ZM52.5451 42.0743L53.2305 42.4833V54.4777C53.2305 54.8082 53.3618 55.1252 53.5955 55.3589C53.8292 55.5926 54.1462 55.7239 54.4767 55.7239C54.8072 55.7239 55.1242 55.5926 55.3579 55.3589C55.5916 55.1252 55.7229 54.8082 55.7229 54.4777V43.9696L56.3304 44.3322C56.6143 44.5015 56.9538 44.551 57.2743 44.4699C57.5947 44.3888 57.8698 44.1837 58.039 43.8998C58.2082 43.6159 58.2577 43.2764 58.1766 42.956C58.0955 42.6356 57.8905 42.3605 57.6065 42.1913L53.8199 39.9339C53.5365 39.7743 53.2019 39.7319 52.8876 39.8157C52.5734 39.8995 52.3043 40.1028 52.1379 40.3822C51.9714 40.6617 51.9209 40.9951 51.9969 41.3114C52.073 41.6276 52.2697 41.9016 52.5451 42.0747V42.0743ZM78.1547 47.0004C78.1547 64.1794 64.1784 78.1557 46.9994 78.1557C29.8204 78.1557 15.8441 64.1794 15.8441 47.0004C15.8441 29.8214 29.8204 15.8451 46.9994 15.8451C64.1784 15.8451 78.1547 29.8214 78.1547 47.0004ZM75.6623 47.0004C75.6623 31.1956 62.8042 18.3375 46.9994 18.3375C31.1946 18.3375 18.3365 31.1956 18.3365 47.0004C18.3365 62.8052 31.1946 75.6633 46.9994 75.6633C62.8042 75.6633 75.6623 62.8052 75.6623 47.0004ZM73.1699 47.0004C73.1699 61.4309 61.4299 73.1708 46.9994 73.1708C32.5689 73.1708 20.829 61.4309 20.829 47.0004C20.829 32.5699 32.5689 20.8299 46.9994 20.8299C61.4299 20.8299 73.1699 32.5699 73.1699 47.0004ZM70.6774 47.0004C70.6774 33.9443 60.0555 23.3224 46.9994 23.3224C33.9433 23.3224 23.3214 33.9443 23.3214 47.0004C23.3214 60.0565 33.9433 70.6784 46.9994 70.6784C60.0555 70.6784 70.6774 60.0565 70.6774 47.0004ZM60.5742 59.8519C60.1901 60.257 59.7827 60.6508 59.3639 61.0203C59.2411 61.1286 59.1409 61.26 59.0689 61.407C58.997 61.554 58.9547 61.7137 58.9445 61.8771C58.9343 62.0405 58.9563 62.2042 59.0094 62.3591C59.0625 62.5139 59.1455 62.6568 59.2538 62.7795C59.3621 62.9023 59.4935 63.0025 59.6405 63.0744C59.7875 63.1464 59.9473 63.1887 60.1106 63.1989C60.274 63.2091 60.4378 63.1871 60.5926 63.134C60.7475 63.0809 60.8903 62.9979 61.0131 62.8896C61.4877 62.4707 61.949 62.0253 62.3839 61.5655C62.6075 61.3249 62.7271 61.0056 62.7166 60.6773C62.7061 60.349 62.5664 60.038 62.3278 59.8122C62.0893 59.5863 61.7712 59.4638 61.4428 59.4712C61.1144 59.4787 60.8022 59.6155 60.5741 59.8519H60.5742ZM68.145 45.6775C68.1349 45.5142 68.0928 45.3544 68.021 45.2074C67.9492 45.0603 67.8491 44.9288 67.7265 44.8204C67.6038 44.712 67.4611 44.6289 67.3063 44.5757C67.1515 44.5224 66.9878 44.5002 66.8245 44.5103C66.6611 44.5204 66.5013 44.5625 66.3543 44.6343C66.2072 44.7061 66.0757 44.8062 65.9674 44.9288C65.859 45.0514 65.7758 45.1942 65.7226 45.349C65.6694 45.5037 65.6472 45.6675 65.6572 45.8308C65.6811 46.2181 65.6932 46.6116 65.6932 47.0004C65.6948 50.2811 64.8325 53.5043 63.1932 56.346C63.1112 56.4877 63.058 56.6441 63.0365 56.8064C63.015 56.9686 63.0256 57.1335 63.0678 57.2916C63.1101 57.4497 63.183 57.598 63.2826 57.7279C63.3821 57.8578 63.5062 57.9669 63.6479 58.0488C63.7895 58.1308 63.9459 58.184 64.1082 58.2055C64.2704 58.227 64.4353 58.2164 64.5934 58.1741C64.7516 58.1319 64.8998 58.059 65.0297 57.9594C65.1597 57.8599 65.2687 57.7358 65.3507 57.5941C67.2091 54.3729 68.1866 50.7192 68.185 47.0004C68.185 46.5606 68.1713 46.1156 68.1444 45.6775H68.145ZM75.6623 17.0913C75.9928 17.0913 76.3098 16.96 76.5435 16.7263C76.7772 16.4926 76.9085 16.1756 76.9085 15.8451V14.5989C76.9085 14.2684 76.7772 13.9514 76.5435 13.7177C76.3098 13.484 75.9928 13.3527 75.6623 13.3527C75.3318 13.3527 75.0148 13.484 74.7811 13.7177C74.5474 13.9514 74.4161 14.2684 74.4161 14.5989V15.8451C74.4161 16.1756 74.5474 16.4926 74.7811 16.7263C75.0148 16.96 75.3318 17.0913 75.6623 17.0913ZM74.4161 22.0761C74.4161 22.4067 74.5474 22.7236 74.7811 22.9573C75.0148 23.1911 75.3318 23.3224 75.6623 23.3224C75.9928 23.3224 76.3098 23.1911 76.5435 22.9573C76.7772 22.7236 76.9085 22.4067 76.9085 22.0761V20.8299C76.9085 20.4994 76.7772 20.1824 76.5435 19.9487C76.3098 19.715 75.9928 19.5837 75.6623 19.5837C75.3318 19.5837 75.0148 19.715 74.7811 19.9487C74.5474 20.1824 74.4161 20.4994 74.4161 20.8299V22.0761ZM78.1547 17.0913C77.8242 17.0913 77.5072 17.2226 77.2735 17.4563C77.0398 17.69 76.9085 18.007 76.9085 18.3375C76.9085 18.668 77.0398 18.985 77.2735 19.2187C77.5072 19.4524 77.8242 19.5837 78.1547 19.5837H79.4009C79.7314 19.5837 80.0484 19.4524 80.2821 19.2187C80.5158 18.985 80.6471 18.668 80.6471 18.3375C80.6471 18.007 80.5158 17.69 80.2821 17.4563C80.0484 17.2226 79.7314 17.0913 79.4009 17.0913H78.1547ZM73.1699 17.0913H71.9237C71.5931 17.0913 71.2762 17.2226 71.0424 17.4563C70.8087 17.69 70.6774 18.007 70.6774 18.3375C70.6774 18.668 70.8087 18.985 71.0424 19.2187C71.2762 19.4524 71.5931 19.5837 71.9237 19.5837H73.1699C73.5004 19.5837 73.8174 19.4524 74.0511 19.2187C74.2848 18.985 74.4161 18.668 74.4161 18.3375C74.4161 18.007 74.2848 17.69 74.0511 17.4563C73.8174 17.2226 73.5004 17.0913 73.1699 17.0913ZM20.829 70.6784C20.829 70.3479 20.6977 70.0309 20.4639 69.7972C20.2302 69.5635 19.9133 69.4322 19.5827 69.4322C19.2522 69.4322 18.9352 69.5635 18.7015 69.7972C18.4678 70.0309 18.3365 70.3479 18.3365 70.6784V71.9246C18.3365 72.2551 18.4678 72.5721 18.7015 72.8058C18.9352 73.0395 19.2522 73.1708 19.5827 73.1708C19.9133 73.1708 20.2302 73.0395 20.4639 72.8058C20.6977 72.5721 20.829 72.2551 20.829 71.9246V70.6784ZM19.5827 79.4019C19.9133 79.4019 20.2302 79.2706 20.4639 79.0369C20.6977 78.8032 20.829 78.4862 20.829 78.1557V76.9095C20.829 76.579 20.6977 76.262 20.4639 76.0283C20.2302 75.7946 19.9133 75.6633 19.5827 75.6633C19.2522 75.6633 18.9352 75.7946 18.7015 76.0283C18.4678 76.262 18.3365 76.579 18.3365 76.9095V78.1557C18.3365 78.4862 18.4678 78.8032 18.7015 79.0369C18.9352 79.2706 19.2522 79.4019 19.5827 79.4019ZM22.0752 75.6633H23.3214C23.6519 75.6633 23.9689 75.532 24.2026 75.2983C24.4363 75.0645 24.5676 74.7476 24.5676 74.4171C24.5676 74.0865 24.4363 73.7696 24.2026 73.5358C23.9689 73.3021 23.6519 73.1708 23.3214 73.1708H22.0752C21.7446 73.1708 21.4277 73.3021 21.194 73.5358C20.9603 73.7696 20.829 74.0865 20.829 74.4171C20.829 74.7476 20.9603 75.0645 21.194 75.2983C21.4277 75.532 21.7446 75.6633 22.0752 75.6633ZM15.8441 75.6633H17.0903C17.4208 75.6633 17.7378 75.532 17.9715 75.2983C18.2052 75.0645 18.3365 74.7476 18.3365 74.4171C18.3365 74.0865 18.2052 73.7696 17.9715 73.5358C17.7378 73.3021 17.4208 73.1708 17.0903 73.1708H15.8441C15.5136 73.1708 15.1966 73.3021 14.9629 73.5358C14.7292 73.7696 14.5979 74.0865 14.5979 74.4171C14.5979 74.7476 14.7292 75.0645 14.9629 75.2983C15.1966 75.532 15.5136 75.6633 15.8441 75.6633ZM76.9085 70.6784C76.9085 70.3479 76.7772 70.0309 76.5435 69.7972C76.3098 69.5635 75.9928 69.4322 75.6623 69.4322C75.3318 69.4322 75.0148 69.5635 74.7811 69.7972C74.5474 70.0309 74.4161 70.3479 74.4161 70.6784V71.9246C74.4161 72.2551 74.5474 72.5721 74.7811 72.8058C75.0148 73.0395 75.3318 73.1708 75.6623 73.1708C75.9928 73.1708 76.3098 73.0395 76.5435 72.8058C76.7772 72.5721 76.9085 72.2551 76.9085 71.9246V70.6784ZM75.6623 78.1557C75.3318 78.1557 75.0148 78.287 74.7811 78.5207C74.5474 78.7544 74.4161 79.0714 74.4161 79.4019V80.6481C74.4161 80.9786 74.5474 81.2956 74.7811 81.5293C75.0148 81.763 75.3318 81.8943 75.6623 81.8943C75.9928 81.8943 76.3098 81.763 76.5435 81.5293C76.7772 81.2956 76.9085 80.9786 76.9085 80.6481V79.4019C76.9085 79.0714 76.7772 78.7544 76.5435 78.5207C76.3098 78.287 75.9928 78.1557 75.6623 78.1557ZM79.4009 74.4171C79.0704 74.4171 78.7534 74.5483 78.5197 74.7821C78.286 75.0158 78.1547 75.3327 78.1547 75.6633C78.1547 75.9938 78.286 76.3108 78.5197 76.5445C78.7534 76.7782 79.0704 76.9095 79.4009 76.9095H80.6471C80.9777 76.9095 81.2946 76.7782 81.5283 76.5445C81.7621 76.3108 81.8933 75.9938 81.8933 75.6633C81.8933 75.3327 81.7621 75.0158 81.5283 74.7821C81.2946 74.5483 80.9777 74.4171 80.6471 74.4171H79.4009ZM73.1699 75.6633C73.1699 75.3327 73.0386 75.0158 72.8049 74.7821C72.5711 74.5483 72.2542 74.4171 71.9237 74.4171H70.6774C70.3469 74.4171 70.0299 74.5483 69.7962 74.7821C69.5625 75.0158 69.4312 75.3327 69.4312 75.6633C69.4312 75.9938 69.5625 76.3108 69.7962 76.5445C70.0299 76.7782 70.3469 76.9095 70.6774 76.9095H71.9237C72.2542 76.9095 72.5711 76.7782 72.8049 76.5445C73.0386 76.3108 73.1699 75.9938 73.1699 75.6633ZM73.8998 72.1385L73.0186 71.2573C72.784 71.0279 72.4684 70.9003 72.1403 70.9021C71.8122 70.9039 71.4981 71.0351 71.2661 71.2671C71.0341 71.4991 70.903 71.8132 70.9011 72.1413C70.8993 72.4694 71.0269 72.785 71.2563 73.0196L72.1375 73.9008C72.3721 74.1302 72.6877 74.2578 73.0158 74.256C73.3439 74.2542 73.658 74.123 73.89 73.891C74.122 73.659 74.2532 73.3449 74.255 73.0168C74.2568 72.6887 74.1292 72.3731 73.8998 72.1385ZM78.306 80.0692C78.5406 80.2986 78.8561 80.4263 79.1842 80.4244C79.5123 80.4226 79.8265 80.2914 80.0585 80.0594C80.2905 79.8274 80.4216 79.5133 80.4234 79.1852C80.4253 78.8571 80.2977 78.5415 80.0683 78.3069L79.187 77.4257C78.9525 77.1963 78.6369 77.0687 78.3088 77.0705C77.9807 77.0724 77.6665 77.2035 77.4345 77.4355C77.2025 77.6675 77.0714 77.9817 77.0696 78.3098C77.0677 78.6379 77.1954 78.9534 77.4247 79.188L78.306 80.0692ZM77.4247 73.9005C77.6584 74.1342 77.9754 74.2654 78.3059 74.2654C78.6364 74.2654 78.9533 74.1342 79.187 73.9005L80.0683 73.0193C80.2977 72.7847 80.4253 72.4691 80.4234 72.141C80.4216 71.8129 80.2905 71.4988 80.0585 71.2668C79.8265 71.0348 79.5123 70.9036 79.1842 70.9018C78.8561 70.9 78.5406 71.0276 78.306 71.257L77.4247 72.1382C77.309 72.2539 77.2172 72.3913 77.1545 72.5425C77.0919 72.6937 77.0596 72.8558 77.0596 73.0195C77.0596 73.1832 77.0919 73.3453 77.1545 73.4965C77.2172 73.6477 77.309 73.7851 77.4247 73.9008V73.9005ZM72.1375 80.4339C72.3012 80.4341 72.4633 80.402 72.6145 80.3393C72.7657 80.2767 72.903 80.1848 73.0186 80.0689L73.8998 79.1877C74.1292 78.9531 74.2568 78.6375 74.255 78.3094C74.2532 77.9813 74.122 77.6672 73.89 77.4352C73.658 77.2032 73.3439 77.0721 73.0158 77.0702C72.6877 77.0684 72.3721 77.196 72.1375 77.4254L71.2563 78.3066C71.0821 78.4809 70.9634 78.703 70.9154 78.9447C70.8673 79.1864 70.892 79.437 70.9863 79.6646C71.0806 79.8923 71.2403 80.087 71.4453 80.2239C71.6502 80.3608 71.8911 80.4339 72.1375 80.4339ZM18.3365 15.8451C18.667 15.8451 18.984 15.7138 19.2177 15.4801C19.4514 15.2464 19.5827 14.9294 19.5827 14.5989V13.3527C19.5827 13.0221 19.4514 12.7052 19.2177 12.4715C18.984 12.2377 18.667 12.1064 18.3365 12.1064C18.006 12.1064 17.689 12.2377 17.4553 12.4715C17.2216 12.7052 17.0903 13.0221 17.0903 13.3527V14.5989C17.0903 14.9294 17.2216 15.2464 17.4553 15.4801C17.689 15.7138 18.006 15.8451 18.3365 15.8451ZM17.0903 23.3224C17.0903 23.6529 17.2216 23.9698 17.4553 24.2036C17.689 24.4373 18.006 24.5686 18.3365 24.5686C18.667 24.5686 18.984 24.4373 19.2177 24.2036C19.4514 23.9698 19.5827 23.6529 19.5827 23.3224V22.0761C19.5827 21.7456 19.4514 21.4286 19.2177 21.1949C18.984 20.9612 18.667 20.8299 18.3365 20.8299C18.006 20.8299 17.689 20.9612 17.4553 21.1949C17.2216 21.4286 17.0903 21.7456 17.0903 22.0761V23.3224ZM20.829 18.3375C20.829 18.668 20.9603 18.985 21.194 19.2187C21.4277 19.4524 21.7446 19.5837 22.0752 19.5837H23.3214C23.6519 19.5837 23.9689 19.4524 24.2026 19.2187C24.4363 18.985 24.5676 18.668 24.5676 18.3375C24.5676 18.007 24.4363 17.69 24.2026 17.4563C23.9689 17.2226 23.6519 17.0913 23.3214 17.0913H22.0752C21.7446 17.0913 21.4277 17.2226 21.194 17.4563C20.9603 17.69 20.829 18.007 20.829 18.3375ZM13.3517 19.5837H14.5979C14.9284 19.5837 15.2454 19.4524 15.4791 19.2187C15.7128 18.985 15.8441 18.668 15.8441 18.3375C15.8441 18.007 15.7128 17.69 15.4791 17.4563C15.2454 17.2226 14.9284 17.0913 14.5979 17.0913H13.3517C13.0212 17.0913 12.7042 17.2226 12.4705 17.4563C12.2368 17.69 12.1055 18.007 12.1055 18.3375C12.1055 18.668 12.2368 18.985 12.4705 19.2187C12.7042 19.4524 13.0212 19.5837 13.3517 19.5837ZM14.8118 16.5751C15.0464 16.8044 15.3619 16.9321 15.69 16.9302C16.0181 16.9284 16.3323 16.7972 16.5643 16.5652C16.7963 16.3332 16.9274 16.0191 16.9293 15.691C16.9311 15.3629 16.8035 15.0473 16.5741 14.8128L15.6928 13.9315C15.4583 13.7021 15.1427 13.5745 14.8146 13.5763C14.4865 13.5782 14.1724 13.7093 13.9404 13.9413C13.7084 14.1733 13.5772 14.4875 13.5754 14.8156C13.5735 15.1437 13.7012 15.4592 13.9305 15.6938L14.8118 16.5751ZM20.099 21.8623L20.9802 22.7435C21.2148 22.9729 21.5304 23.1005 21.8585 23.0987C22.1866 23.0968 22.5007 22.9657 22.7327 22.7337C22.9647 22.5017 23.0959 22.1875 23.0977 21.8595C23.0995 21.5314 22.9719 21.2158 22.7425 20.9812L21.8613 20.1C21.746 19.9821 21.6086 19.8883 21.4568 19.8239C21.3051 19.7596 21.1421 19.726 20.9772 19.7251C20.8124 19.7241 20.649 19.7559 20.4966 19.8186C20.3441 19.8812 20.2056 19.9735 20.0891 20.09C19.9725 20.2066 19.8802 20.3451 19.8176 20.4976C19.7549 20.65 19.7232 20.8134 19.7241 20.9782C19.725 21.143 19.7586 21.3061 19.823 21.4578C19.8873 21.6095 19.9811 21.747 20.099 21.8623ZM20.9802 13.9315L20.099 14.8128C19.9811 14.928 19.8873 15.0655 19.823 15.2172C19.7586 15.369 19.725 15.532 19.7241 15.6968C19.7232 15.8616 19.7549 16.025 19.8176 16.1774C19.8802 16.3299 19.9725 16.4684 20.0891 16.585C20.2056 16.7015 20.3441 16.7938 20.4966 16.8564C20.649 16.9191 20.8124 16.9509 20.9772 16.95C21.1421 16.949 21.3051 16.9154 21.4568 16.8511C21.6086 16.7867 21.746 16.6929 21.8613 16.5751L22.7425 15.6938C22.9719 15.4592 23.0995 15.1437 23.0977 14.8156C23.0959 14.4875 22.9647 14.1733 22.7327 13.9413C22.5007 13.7093 22.1866 13.5782 21.8585 13.5763C21.5304 13.5745 21.2148 13.7021 20.9802 13.9315ZM16.5741 21.8623C16.6919 21.747 16.7857 21.6095 16.8501 21.4578C16.9144 21.3061 16.9481 21.143 16.949 20.9782C16.9499 20.8134 16.9181 20.65 16.8555 20.4976C16.7928 20.3451 16.7005 20.2066 16.584 20.09C16.4674 19.9735 16.3289 19.8812 16.1765 19.8186C16.024 19.7559 15.8606 19.7241 15.6958 19.7251C15.531 19.726 15.368 19.7596 15.2162 19.8239C15.0645 19.8883 14.927 19.9821 14.8118 20.1L13.9305 20.9812C13.8127 21.0964 13.7189 21.2339 13.6545 21.3856C13.5902 21.5374 13.5566 21.7004 13.5556 21.8652C13.5547 22.0301 13.5865 22.1934 13.6492 22.3459C13.7118 22.4983 13.8041 22.6369 13.9206 22.7534C14.0372 22.87 14.1757 22.9622 14.3282 23.0249C14.4806 23.0875 14.644 23.1193 14.8088 23.1184C14.9736 23.1175 15.1366 23.0839 15.2884 23.0195C15.4401 22.9552 15.5776 22.8613 15.6928 22.7435L16.5741 21.8623ZM61.3308 55.9941L47.6225 63.9087C47.4331 64.0181 47.2182 64.0756 46.9994 64.0756C46.7807 64.0756 46.5658 64.0181 46.3763 63.9087L32.668 55.9941C32.4785 55.8848 32.3212 55.7275 32.2118 55.538C32.1025 55.3486 32.0449 55.1337 32.0449 54.9149V39.0858C32.0449 38.8671 32.1025 38.6522 32.2118 38.4628C32.3212 38.2733 32.4785 38.116 32.668 38.0066L46.3763 30.0921C46.5658 29.9827 46.7807 29.9251 46.9994 29.9251C47.2182 29.9251 47.4331 29.9827 47.6225 30.0921L61.3308 38.0066C61.5203 38.116 61.6776 38.2733 61.787 38.4628C61.8964 38.6522 61.9539 38.8671 61.954 39.0858V54.9149C61.9539 55.1337 61.8964 55.3486 61.787 55.538C61.6776 55.7275 61.5203 55.8848 61.3308 55.9941ZM59.4615 39.8054L46.9994 32.6104L34.5373 39.8054V54.1954L46.9994 61.3904L59.4615 54.1954V39.8054ZM42.0146 38.2769C41.684 38.2769 41.3671 38.4082 41.1334 38.6419C40.8996 38.8756 40.7683 39.1926 40.7683 39.5231V48.6502L38.201 41.5896C38.1009 41.3142 37.9069 41.0828 37.6532 40.9362C37.3994 40.7896 37.1021 40.7371 36.8135 40.7879C36.5249 40.8388 36.2634 40.9897 36.075 41.2142C35.8867 41.4387 35.7834 41.7225 35.7835 42.0155V51.9852C35.7835 52.3158 35.9148 52.6327 36.1485 52.8664C36.3822 53.1002 36.6992 53.2314 37.0297 53.2314C37.3602 53.2314 37.6772 53.1002 37.9109 52.8664C38.1446 52.6327 38.2759 52.3158 38.2759 51.9852V49.0892L40.8433 56.1498C40.9307 56.3902 41.09 56.5979 41.2996 56.7446C41.5091 56.8914 41.7587 56.9701 42.0146 56.9701C42.0873 56.97 42.1599 56.9636 42.2316 56.9511C42.52 56.9001 42.7812 56.7491 42.9694 56.5247C43.1576 56.3003 43.2608 56.0168 43.2608 55.7239V39.5231C43.2608 39.1926 43.1295 38.8756 42.8958 38.6419C42.6621 38.4082 42.3451 38.2769 42.0146 38.2769Z" fill="url(#paint0_linear_5053_5706)"/>
<defs>
<linearGradient id="paint0_linear_5053_5706" x1="78.3884" y1="15.923" x2="17.8692" y2="74.5728" gradientUnits="userSpaceOnUse">
<stop stop-color="#FF2F00"/>
<stop offset="1" stop-color="#FC6825"/>
</linearGradient>
</defs>
</svg>
