<svg width="94" height="94" viewBox="0 0 94 94" fill="none" xmlns="http://www.w3.org/2000/svg">
<circle cx="47" cy="47" r="47" fill="#FC6825" fill-opacity="0.2"/>
<path d="M22.3316 22.4531C21.7488 22.4531 21.2764 22.9255 21.2764 23.5083V26.3046C21.2764 26.8874 21.7486 27.3598 22.3316 27.3598C22.9144 27.3598 23.3868 26.8874 23.3868 26.3046V23.5083C23.3868 22.9257 22.9144 22.4531 22.3316 22.4531Z" fill="url(#paint0_linear_4094_5342)"/>
<path d="M22.3316 29.9824C21.7488 29.9824 21.2764 30.4548 21.2764 31.0376V33.8339C21.2764 34.4167 21.7486 34.8891 22.3316 34.8891C22.9144 34.8891 23.3868 34.4167 23.3868 33.8339V31.0376C23.3868 30.455 22.9144 29.9824 22.3316 29.9824Z" fill="url(#paint1_linear_4094_5342)"/>
<path d="M27.4941 27.6162H24.6978C24.115 27.6162 23.6426 28.0886 23.6426 28.6714C23.6426 29.2542 24.115 29.7267 24.6978 29.7267H27.4941C28.0769 29.7267 28.5493 29.2542 28.5493 28.6714C28.5493 28.0888 28.0769 27.6162 27.4941 27.6162Z" fill="url(#paint2_linear_4094_5342)"/>
<path d="M19.9657 27.6162H17.1695C16.5867 27.6162 16.1143 28.0886 16.1143 28.6714C16.1143 29.2542 16.5867 29.7267 17.1695 29.7267H19.9657C20.5486 29.7267 21.021 29.2542 21.021 28.6714C21.021 28.0888 20.5486 27.6162 19.9657 27.6162Z" fill="url(#paint3_linear_4094_5342)"/>
<path d="M75.6383 52.8852L68.4648 45.4481C68.4648 45.4481 68.4648 45.4481 68.4646 45.4481L68.4634 45.4467C68.4625 45.4458 68.4616 45.4453 68.4607 45.4445C68.3506 45.3308 68.2143 45.2411 68.0584 45.1855L61.8576 42.9738C61.3086 42.7778 60.705 43.0643 60.5093 43.6131C60.3135 44.1619 60.5998 44.7656 61.1486 44.9613L64.5627 46.1791L47.0725 52.4169L29.5823 46.1791L33.0954 44.926C33.6442 44.7303 33.9306 44.1266 33.7347 43.5778C33.539 43.029 32.9353 42.7428 32.3865 42.9385L26.0867 45.1855C25.9309 45.2411 25.7946 45.331 25.6844 45.4445C25.6835 45.4453 25.6825 45.4458 25.6817 45.4467L25.6805 45.4481H25.6803L18.5068 52.8852C18.2578 53.1433 18.157 53.5099 18.2388 53.8588C18.3207 54.2077 18.5741 54.4913 18.9117 54.6116L31.5426 59.1166C31.6598 59.1584 31.7794 59.1782 31.8971 59.1782C32.3307 59.1782 32.7371 58.9089 32.891 58.4774C33.0868 57.9286 32.8005 57.3248 32.2517 57.1291L21.161 53.1735L26.728 47.4021L45.1777 53.9823L39.6106 59.7537L36.0312 58.4771C35.4823 58.2811 34.8787 58.5675 34.683 59.1163C34.4872 59.6651 34.7735 60.2689 35.3223 60.4646L39.543 61.9699C39.9338 62.1094 40.3694 62.0068 40.6569 61.7087L47.0726 55.0574L53.4883 61.7087C53.6905 61.9185 53.9664 62.0312 54.2478 62.0312C54.3666 62.0312 54.4863 62.0112 54.602 61.9698L75.2334 54.6115C75.5709 54.4912 75.8243 54.2075 75.9062 53.8586C75.9882 53.5097 75.8873 53.1433 75.6383 52.8852ZM54.5344 59.7534L48.9674 53.982L67.4171 47.4018L72.9841 53.1732L54.5344 59.7534Z" fill="url(#paint4_linear_4094_5342)"/>
<path d="M59.1229 78.2028C58.9272 77.6541 58.3234 77.3679 57.7745 77.5635L47.0715 81.3808L27.4952 74.3988V60.0054C27.4952 59.4226 27.0228 58.9502 26.44 58.9502C25.8572 58.9502 25.3848 59.4226 25.3848 60.0054V75.1428C25.3848 75.589 25.6654 75.9868 26.0854 76.1367L46.7168 83.4951C46.8316 83.536 46.9514 83.5564 47.0713 83.5564C47.1913 83.5564 47.3112 83.5359 47.4259 83.4951L58.4836 79.5513C59.0324 79.3554 59.3187 78.7517 59.1229 78.2028Z" fill="url(#paint5_linear_4094_5342)"/>
<path d="M67.7041 58.9502C67.1213 58.9502 66.6489 59.4226 66.6489 60.0054V74.399L61.8406 76.1139C61.2918 76.3096 61.0054 76.9134 61.2013 77.4622C61.3552 77.894 61.7615 78.163 62.1952 78.163C62.3128 78.163 62.4326 78.1432 62.5498 78.1014L68.0587 76.1367C68.4788 75.9868 68.7593 75.589 68.7593 75.1428V60.0054C68.7593 59.4226 68.2869 58.9502 67.7041 58.9502Z" fill="url(#paint6_linear_4094_5342)"/>
<path d="M47.0708 58.8936C46.488 58.8936 46.0156 59.366 46.0156 59.9488V77.8864C46.0156 78.4692 46.488 78.9417 47.0708 78.9417C47.6537 78.9417 48.1261 78.4692 48.1261 77.8864V59.9488C48.1261 59.366 47.6537 58.8936 47.0708 58.8936Z" fill="url(#paint7_linear_4094_5342)"/>
<path d="M69.6634 24.1572L67.6627 23.7516C66.1033 23.4353 64.8912 22.2235 64.5751 20.664L64.1694 18.6632C63.9839 17.7484 63.2023 17.1094 62.2688 17.1094C61.3353 17.1094 60.5537 17.7484 60.3681 18.6634L59.9625 20.664C59.6464 22.2234 58.4344 23.4354 56.8749 23.7516L54.8742 24.1572C53.9592 24.3426 53.3203 25.1242 53.3203 26.0577C53.3203 26.9914 53.9592 27.773 54.8742 27.9584L56.8749 28.364C58.4343 28.6802 59.6464 29.8921 59.9625 31.4516L60.3681 33.4524C60.5537 34.3672 61.3353 35.0062 62.2688 35.0062C63.2023 35.0062 63.9839 34.3672 64.1694 33.4522L64.5751 31.4516C64.8912 29.8922 66.1031 28.6802 67.6627 28.364L69.6634 27.9584C70.5784 27.773 71.2173 26.9914 71.2173 26.0577C71.2173 25.1242 70.5783 24.3427 69.6634 24.1572ZM67.2433 26.2957C64.851 26.7806 62.9917 28.6399 62.5066 31.0323L62.2688 32.2055L62.031 31.0323C61.546 28.6399 59.6868 26.7808 57.2943 26.2957L56.1212 26.0579L57.2943 25.82C59.6866 25.3349 61.5459 23.4757 62.031 21.0834L62.2688 19.9102L62.5066 21.0834C62.9916 23.4756 64.8508 25.3349 67.2433 25.82L68.4164 26.0579L67.2433 26.2957Z" fill="url(#paint8_linear_4094_5342)"/>
<path d="M48.4854 21.2242L45.918 20.7037C43.7988 20.2741 42.1517 18.627 41.7221 16.5078L41.2016 13.9404C40.992 12.9071 40.1096 12.1855 39.0555 12.1855C38.0014 12.1855 37.1189 12.9071 36.9095 13.9401L36.389 16.5075C35.9594 18.6267 34.3123 20.2738 32.193 20.7034L29.6257 21.2239C28.5926 21.4334 27.8711 22.3158 27.8711 23.3699C27.8711 24.424 28.5926 25.3065 29.6257 25.5161L32.193 26.0366C34.3123 26.4662 35.9594 28.1133 36.389 30.2325L36.9095 32.7999C37.119 33.8329 38.0014 34.5544 39.0555 34.5544C40.1096 34.5544 40.9921 33.8329 41.2015 32.7999L41.722 30.2325C42.1517 28.1133 43.7987 26.4662 45.9179 26.0366L48.4853 25.5161C49.5183 25.3065 50.2398 24.4242 50.2398 23.3701C50.2398 22.316 49.5185 21.4336 48.4854 21.2242ZM48.0658 23.4477L45.4985 23.9682C42.5463 24.5668 40.252 26.8611 39.6536 29.8131L39.1331 32.3804C39.1238 32.4267 39.1203 32.444 39.0555 32.444C38.9907 32.444 38.987 32.4267 38.9778 32.3804L38.4573 29.8131C37.8588 26.8609 35.5645 24.5666 32.6125 23.9682L30.0451 23.4477C29.9988 23.4384 29.9815 23.4349 29.9815 23.3701C29.9815 23.3052 29.999 23.3016 30.0451 23.2924L32.6125 22.7719C35.5646 22.1734 37.8589 19.8791 38.4573 16.9271L38.9778 14.3597C38.9872 14.3134 38.9907 14.2961 39.0555 14.2961C39.1203 14.2961 39.1239 14.3134 39.1331 14.3597L39.6536 16.9271C40.2522 19.8792 42.5465 22.1735 45.4985 22.7719L48.0658 23.2924C48.1121 23.3018 48.1294 23.3052 48.1294 23.3701C48.1294 23.4349 48.1121 23.4385 48.0658 23.4477Z" fill="url(#paint9_linear_4094_5342)"/>
<path d="M39.7711 45.6237C36.9758 38.7433 30.7174 32.6455 30.4525 32.3892C30.0335 31.9843 29.3658 31.9956 28.9607 32.4145C28.5557 32.8334 28.5668 33.5012 28.9856 33.9064C29.0473 33.9662 35.1913 39.9574 37.816 46.418C37.9825 46.8278 38.3773 47.0763 38.794 47.0763C38.9262 47.0763 39.0608 47.0513 39.1907 46.9986C39.7306 46.779 39.9905 46.1634 39.7711 45.6237Z" fill="url(#paint10_linear_4094_5342)"/>
<path d="M43.5748 32.5146C42.9919 32.5146 42.5195 32.9871 42.5195 33.5699V43.2774C42.5195 43.8602 42.9919 44.3326 43.5748 44.3326C44.1576 44.3326 44.63 43.8602 44.63 43.2774V33.5699C44.6298 32.9871 44.1574 32.5146 43.5748 32.5146Z" fill="url(#paint11_linear_4094_5342)"/>
<path d="M61.8242 36.2319C61.3716 35.8647 60.707 35.9339 60.3401 36.3866C57.7189 39.6181 55.7932 42.7258 54.616 45.6231C54.3966 46.163 54.6567 46.7786 55.1964 46.9978C55.3266 47.0505 55.461 47.0756 55.5931 47.0756C56.0098 47.0756 56.4047 46.8272 56.5711 46.4172C57.9396 43.049 60.2672 39.8262 61.979 37.7159C62.346 37.2636 62.2768 36.5991 61.8242 36.2319Z" fill="url(#paint12_linear_4094_5342)"/>
<path d="M52.6445 29.1466C52.0664 29.0714 51.5373 29.4792 51.4623 30.0572L49.7628 43.1412C49.6878 43.719 50.0954 44.2484 50.6733 44.3234C50.7195 44.3293 50.7652 44.3324 50.8105 44.3324C51.3328 44.3324 51.7867 43.9447 51.8555 43.4129L53.555 30.3289C53.6302 29.7511 53.2224 29.2216 52.6445 29.1466Z" fill="url(#paint13_linear_4094_5342)"/>
<defs>
<linearGradient id="paint0_linear_4094_5342" x1="21.2764" y1="24.8494" x2="22.9252" y2="24.8494" gradientUnits="userSpaceOnUse">
<stop stop-color="#FF2F00"/>
<stop offset="1" stop-color="#FC6825"/>
</linearGradient>
<linearGradient id="paint1_linear_4094_5342" x1="21.2764" y1="32.3787" x2="22.9252" y2="32.3787" gradientUnits="userSpaceOnUse">
<stop stop-color="#FF2F00"/>
<stop offset="1" stop-color="#FC6825"/>
</linearGradient>
<linearGradient id="paint2_linear_4094_5342" x1="23.6426" y1="28.6469" x2="27.4759" y2="28.6469" gradientUnits="userSpaceOnUse">
<stop stop-color="#FF2F00"/>
<stop offset="1" stop-color="#FC6825"/>
</linearGradient>
<linearGradient id="paint3_linear_4094_5342" x1="16.1143" y1="28.6469" x2="19.9476" y2="28.6469" gradientUnits="userSpaceOnUse">
<stop stop-color="#FF2F00"/>
<stop offset="1" stop-color="#FC6825"/>
</linearGradient>
<linearGradient id="paint4_linear_4094_5342" x1="18.2109" y1="52.2314" x2="63.3072" y2="52.2314" gradientUnits="userSpaceOnUse">
<stop stop-color="#FF2F00"/>
<stop offset="1" stop-color="#FC6825"/>
</linearGradient>
<linearGradient id="paint5_linear_4094_5342" x1="25.3848" y1="70.9672" x2="51.7908" y2="70.9672" gradientUnits="userSpaceOnUse">
<stop stop-color="#FF2F00"/>
<stop offset="1" stop-color="#FC6825"/>
</linearGradient>
<linearGradient id="paint6_linear_4094_5342" x1="61.1396" y1="68.3332" x2="67.0925" y2="68.3332" gradientUnits="userSpaceOnUse">
<stop stop-color="#FF2F00"/>
<stop offset="1" stop-color="#FC6825"/>
</linearGradient>
<linearGradient id="paint7_linear_4094_5342" x1="46.0156" y1="68.6845" x2="47.6644" y2="68.6845" gradientUnits="userSpaceOnUse">
<stop stop-color="#FF2F00"/>
<stop offset="1" stop-color="#FC6825"/>
</linearGradient>
<linearGradient id="paint8_linear_4094_5342" x1="53.3203" y1="25.8497" x2="67.3023" y2="25.8497" gradientUnits="userSpaceOnUse">
<stop stop-color="#FF2F00"/>
<stop offset="1" stop-color="#FC6825"/>
</linearGradient>
<linearGradient id="paint9_linear_4094_5342" x1="27.8711" y1="23.1099" x2="45.3467" y2="23.1099" gradientUnits="userSpaceOnUse">
<stop stop-color="#FF2F00"/>
<stop offset="1" stop-color="#FC6825"/>
</linearGradient>
<linearGradient id="paint10_linear_4094_5342" x1="28.6641" y1="39.4103" x2="37.4023" y2="39.4103" gradientUnits="userSpaceOnUse">
<stop stop-color="#FF2F00"/>
<stop offset="1" stop-color="#FC6825"/>
</linearGradient>
<linearGradient id="paint11_linear_4094_5342" x1="42.5195" y1="38.2862" x2="44.1683" y2="38.2862" gradientUnits="userSpaceOnUse">
<stop stop-color="#FF2F00"/>
<stop offset="1" stop-color="#FC6825"/>
</linearGradient>
<linearGradient id="paint12_linear_4094_5342" x1="54.5381" y1="41.407" x2="60.5354" y2="41.407" gradientUnits="userSpaceOnUse">
<stop stop-color="#FF2F00"/>
<stop offset="1" stop-color="#FC6825"/>
</linearGradient>
<linearGradient id="paint13_linear_4094_5342" x1="49.7539" y1="36.5583" x2="52.7305" y2="36.5583" gradientUnits="userSpaceOnUse">
<stop stop-color="#FF2F00"/>
<stop offset="1" stop-color="#FC6825"/>
</linearGradient>
</defs>
</svg>
