<svg xmlns="http://www.w3.org/2000/svg" width="25" height="24" fill="none" viewBox="0 0 25 24">
  <path fill="#7D8490" d="M12.507 15.283H7.98c-.176 0-.26-.014-.287-.232A24.568 24.568 0 0 1 7.7 8.883c.019-.14.057-.181.2-.181 3.072.003 6.143.003 9.214 0 .13 0 .17.035.186.168a24.656 24.656 0 0 1 0 6.245c-.024.19-.12.165-.24.165l-4.553.003Zm4.48-8.221h-.254c-2.82 0-5.64-.003-8.46.007-.242 0-.254-.058-.204-.265.382-1.568.895-3.084 1.806-4.445.38-.568.822-1.08 1.401-1.464.807-.535 1.616-.543 2.432-.018.546.353.972.826 1.335 1.35.92 1.323 1.446 2.81 1.835 4.349.03.149.065.299.109.486Zm.005 9.865c-.456 1.91-1.047 3.738-2.302 5.286-.29.365-.639.679-1.034.93-.795.492-1.585.475-2.362-.037-.809-.533-1.351-1.293-1.812-2.115-.688-1.227-1.111-2.55-1.436-3.91-.051-.218.087-.152.18-.152 1.32-.003 2.64-.003 3.96 0h4.806v-.002Zm4.768-8.22c.859 0 1.717.004 2.576-.004.157 0 .219.039.26.197.537 2.03.537 4.16 0 6.19-.042.16-.106.197-.261.196a876.573 876.573 0 0 0-5.18 0c-.156 0-.203-.023-.181-.194a25.052 25.052 0 0 0 0-6.195c-.022-.173.027-.195.182-.193.869.006 1.736.003 2.604.003ZM3.255 8.706c.859 0 1.718.005 2.576-.003.168 0 .214.03.192.206a25.182 25.182 0 0 0 0 6.167c.017.146.015.206-.167.206a564.637 564.637 0 0 0-5.206 0c-.147 0-.208-.037-.243-.185a12.068 12.068 0 0 1 0-6.215c.04-.15.101-.184.246-.182.866.01 1.735.006 2.602.006Zm20.69-1.643h-.234c-1.597 0-3.195-.005-4.79.006-.196 0-.243-.069-.277-.234-.387-1.815-.966-3.56-1.968-5.147a9.14 9.14 0 0 0-1.34-1.66c1.566.33 3.046.975 4.347 1.896 1.89 1.317 3.3 3.024 4.262 5.139Zm.002 9.864c-.927 2.038-2.274 3.7-4.073 5.002A12.37 12.37 0 0 1 15.285 24c1.95-1.925 2.79-4.308 3.354-6.819.042-.189.097-.261.307-.26 1.58.01 3.16.006 4.739.006h.262ZM9.66 0c-.07.175-.189.24-.277.33-1.01 1.046-1.668 2.297-2.192 3.632a17.41 17.41 0 0 0-.842 2.896c-.025.12-.043.21-.218.21-1.657-.009-3.314-.005-4.97-.006a.746.746 0 0 1-.1-.017 12.384 12.384 0 0 1 3.46-4.52A12.605 12.605 0 0 1 9.66 0ZM1.057 16.927h1.017c1.327 0 2.654.005 3.981-.006.209 0 .268.069.309.26.387 1.805.963 3.54 1.961 5.119a8.111 8.111 0 0 0 1.21 1.503c.04.04.103.069.094.178a12.396 12.396 0 0 1-4.461-2.025 12.351 12.351 0 0 1-4.111-5.03Z"/>
</svg>
