<svg width="21" height="20" viewBox="0 0 21 20" fill="none" xmlns="http://www.w3.org/2000/svg">
<path d="M8.76628 14.293L7.28861 15.6184C6.90114 15.9761 6.37561 16.177 5.82764 16.177C5.27967 16.177 4.75415 15.9761 4.36667 15.6184C3.9792 15.2608 3.76152 14.7757 3.76152 14.2698C3.76152 13.764 3.9792 13.2789 4.36667 12.9212L8.15685 9.41492C8.52886 9.07041 9.03011 8.87107 9.55689 8.85816C10.0837 8.84525 10.5957 9.01975 10.987 9.34556L11.0871 9.42262C11.2454 9.56569 11.4588 9.64485 11.6804 9.64268C11.9019 9.64051 12.1134 9.5572 12.2684 9.41107C12.4234 9.26493 12.5092 9.06795 12.5068 8.86346C12.5045 8.65896 12.4142 8.4637 12.2559 8.32064C12.2088 8.2644 12.1586 8.21039 12.1056 8.1588C11.393 7.58647 10.4713 7.28557 9.52729 7.31705C8.58329 7.34853 7.68753 7.71004 7.02146 8.32834L3.1812 11.8347C2.52865 12.4903 2.17574 13.3533 2.19615 14.2434C2.21657 15.1336 2.60874 15.982 3.29076 16.6116C3.97278 17.2411 4.89192 17.6031 5.85623 17.622C6.82055 17.6408 7.75546 17.3151 8.46574 16.7127L9.91001 15.4104C10.0526 15.2668 10.131 15.0786 10.1294 14.8838C10.1278 14.689 10.0464 14.502 9.90142 14.3604C9.75648 14.2188 9.55883 14.1331 9.34822 14.1206C9.13761 14.1081 8.92969 14.1697 8.76628 14.293ZM17.6907 3.3193C16.9884 2.67507 16.0386 2.31348 15.0485 2.31348C14.0584 2.31348 13.1085 2.67507 12.4062 3.3193L10.9619 4.62165C10.8193 4.76526 10.7409 4.95339 10.7425 5.14819C10.7441 5.34299 10.8256 5.53001 10.9705 5.67161C11.1154 5.81321 11.3131 5.89889 11.5237 5.9114C11.7343 5.92392 11.9422 5.86233 12.1056 5.73905L13.5499 4.41358C13.9374 4.05592 14.4629 3.85498 15.0109 3.85498C15.5589 3.85498 16.0844 4.05592 16.4719 4.41358C16.8593 4.77125 17.077 5.25635 17.077 5.76217C17.077 6.26799 16.8593 6.75309 16.4719 7.11076L12.6817 10.6171C12.3097 10.9616 11.8084 11.1609 11.2816 11.1738C10.7549 11.1868 10.2429 11.0123 9.85157 10.6864L9.75139 10.6094C9.59308 10.4663 9.37969 10.3872 9.15815 10.3893C8.93661 10.3915 8.72508 10.4748 8.57009 10.6209C8.4151 10.7671 8.32935 10.9641 8.3317 11.1685C8.33405 11.373 8.42431 11.5683 8.58262 11.7114C8.64326 11.7686 8.70736 11.8226 8.77463 11.8732C9.48815 12.4438 10.4094 12.7436 11.3529 12.7121C12.2963 12.6807 13.1918 12.3203 13.8588 11.7037L17.6573 8.19734C18.3597 7.55315 18.7574 6.67862 18.7637 5.76468C18.77 4.85073 18.3842 3.97163 17.6907 3.3193Z" fill="#464F60"/>
</svg>
