<svg width="12" height="12" viewBox="0 0 12 12" fill="none" xmlns="http://www.w3.org/2000/svg">
<g clip-path="url(#clip0_588_17866)">
<path d="M9.84474 1.38859C8.82254 0.533595 7.54403 0.0448489 6.21234 0L3.15234 8.08363L9.84474 1.38859Z" fill="#7D7D7D"/>
<path d="M10.608 2.15326L6.7644 6.00001L10.6074 9.84435C11.5077 8.7653 12.0008 7.40441 12.0009 5.99891C12.0011 4.59342 11.5081 3.23246 10.608 2.15326Z" fill="#7D7D7D"/>
<path d="M4.70784 0.922546L0.0116398 5.62039C-0.0850241 7.13043 0.39309 8.62114 1.34994 9.79305L4.70784 0.922546Z" fill="#7D7D7D"/>
<path d="M6.00004 6.76257L2.15674 10.6075C3.23538 11.5076 4.59552 12.0006 6.00019 12.0006C7.40486 12.0006 8.765 11.5076 9.84364 10.6075L6.00004 6.76257Z" fill="#7D7D7D"/>
</g>
<defs>
<clipPath id="clip0_588_17866">
<rect width="12" height="12" fill="white"/>
</clipPath>
</defs>
</svg>
