<svg width="19" height="23" viewBox="0 0 19 23" fill="none" xmlns="http://www.w3.org/2000/svg">
<path d="M1.25 12.875V2.375C1.25 2.1393 1.25 2.02145 1.32322 1.94822C1.39645 1.875 1.5143 1.875 1.75 1.875H7.50697C7.80767 1.875 7.95802 1.875 8.07885 1.94967C8.19967 2.02435 8.26691 2.15883 8.40139 2.42779L9.22361 4.07221C9.35809 4.34117 9.42533 4.47565 9.54615 4.55033C9.66698 4.625 9.81733 4.625 10.118 4.625H17.25C17.4857 4.625 17.6036 4.625 17.6768 4.69822C17.75 4.77145 17.75 4.8893 17.75 5.125V15.125C17.75 15.3607 17.75 15.4786 17.6768 15.5518C17.6036 15.625 17.4857 15.625 17.25 15.625H10.118C9.81733 15.625 9.66698 15.625 9.54615 15.5503C9.42533 15.4757 9.35809 15.3412 9.22361 15.0722L8.40139 13.4278C8.26691 13.1588 8.19967 13.0243 8.07885 12.9497C7.95802 12.875 7.80767 12.875 7.50697 12.875H1.25ZM1.25 12.875V21.125" stroke="#030229" stroke-width="2" stroke-linecap="round"/>
</svg>
