<svg width="21" height="22" viewBox="0 0 21 22" fill="none" xmlns="http://www.w3.org/2000/svg">
<path d="M15.171 5.15764L15.633 4.69561V4.69561L15.171 5.15764ZM16.1917 6.17833L15.7297 6.64036L16.1917 6.17833ZM8.78209 9.08239L9.24412 9.54442L8.78209 9.08239ZM12.7068 5.15764L12.2448 4.69561V4.69561L12.7068 5.15764ZM8.8304 12.5189C9.08557 12.7741 9.49929 12.7741 9.75447 12.5189C10.0096 12.2638 10.0096 11.8501 9.75447 11.5949L8.8304 12.5189ZM8.78209 11.5466L9.24412 11.0845L8.78209 11.5466ZM16.1917 8.64251L16.6537 9.10454L16.1917 8.64251ZM14.3481 9.56204C14.0929 9.81721 14.0929 10.2309 14.3481 10.4861C14.6033 10.7413 15.017 10.7413 15.2722 10.4861L14.3481 9.56204ZM5.73709 16.633L6.19913 16.1709L5.73709 16.633ZM4.7164 15.6123L4.25437 16.0743H4.25437L4.7164 15.6123ZM12.0777 9.27165C11.8225 9.01647 11.4088 9.01647 11.1536 9.27165C10.8985 9.52682 10.8985 9.94054 11.1536 10.1957L12.0777 9.27165ZM12.126 10.244L12.5881 9.78199L12.126 10.244ZM4.7164 13.1481L4.25437 12.6861H4.25437L4.7164 13.1481ZM6.56 12.2286C6.81517 11.9734 6.81517 11.5597 6.56 11.3045C6.30482 11.0493 5.89111 11.0493 5.63593 11.3045L6.56 12.2286ZM14.709 5.61967L15.7297 6.64036L16.6537 5.7163L15.633 4.69561L14.709 5.61967ZM9.24412 9.54442L13.1689 5.61967L12.2448 4.69561L8.32006 8.62036L9.24412 9.54442ZM9.75447 11.5949L9.24412 11.0845L8.32006 12.0086L8.8304 12.5189L9.75447 11.5949ZM15.7297 8.18047L14.3481 9.56204L15.2722 10.4861L16.6537 9.10454L15.7297 8.18047ZM6.19913 16.1709L5.17844 15.1502L4.25437 16.0743L5.27506 17.095L6.19913 16.1709ZM11.664 12.2462L7.73924 16.1709L8.6633 17.095L12.5881 13.1702L11.664 12.2462ZM11.1536 10.1957L11.664 10.7061L12.5881 9.78199L12.0777 9.27165L11.1536 10.1957ZM5.17843 13.6101L6.56 12.2286L5.63593 11.3045L4.25437 12.6861L5.17843 13.6101ZM12.5881 13.1702C13.5237 12.2346 13.5237 10.7176 12.5881 9.78199L11.664 10.7061C12.0893 11.1313 12.0893 11.8209 11.664 12.2462L12.5881 13.1702ZM5.17844 15.1502C4.75315 14.7249 4.75315 14.0354 5.17844 13.6101L4.25437 12.6861C3.31873 13.6217 3.31873 15.1387 4.25437 16.0743L5.17844 15.1502ZM5.27506 17.095C6.2107 18.0306 7.72767 18.0306 8.6633 17.095L7.73924 16.1709C7.31395 16.5962 6.62442 16.5962 6.19913 16.1709L5.27506 17.095ZM8.32006 8.62036C7.38442 9.55599 7.38442 11.073 8.32006 12.0086L9.24412 11.0845C8.81883 10.6592 8.81883 9.96971 9.24412 9.54442L8.32006 8.62036ZM15.7297 6.64036C16.155 7.06565 16.155 7.75519 15.7297 8.18047L16.6537 9.10454C17.5894 8.1689 17.5894 6.65194 16.6537 5.7163L15.7297 6.64036ZM15.633 4.69561C14.6974 3.75997 13.1804 3.75997 12.2448 4.69561L13.1689 5.61967C13.5942 5.19438 14.2837 5.19438 14.709 5.61967L15.633 4.69561Z" fill="#FC6825"/>
</svg>
