<svg id="레이어_1" data-name="레이어 1" xmlns="http://www.w3.org/2000/svg" xmlns:xlink="http://www.w3.org/1999/xlink" viewBox="0 0 500 500"><defs><style>.cls-1{fill:none;}.cls-2{clip-path:url(#clip-path);}.cls-3{fill:url(#무제_그라디언트_27);}.cls-4{clip-path:url(#clip-path-2);}</style><clipPath id="clip-path"><path class="cls-1" d="M445.26,329l-39.53-22.83a165.5,165.5,0,0,0,0-112.32L445.26,171A29.22,29.22,0,0,0,416,120.4l-39.62,22.87a165.56,165.56,0,0,0-97.19-56.19V41.41a29.22,29.22,0,0,0-58.44,0V87.08a165.56,165.56,0,0,0-97.19,56.19L84,120.4A29.22,29.22,0,1,0,54.74,171l39.53,22.83a165.5,165.5,0,0,0,0,112.32L54.74,329A29.22,29.22,0,1,0,84,379.6l39.62-22.87a165.49,165.49,0,0,0,97.19,56.18v45.68a29.22,29.22,0,0,0,58.44,0V412.91a165.49,165.49,0,0,0,97.19-56.18L416,379.6A29.22,29.22,0,0,0,445.26,329ZM250,357.1A107.11,107.11,0,1,1,357.1,250,107.22,107.22,0,0,1,250,357.1Z"/></clipPath><linearGradient id="무제_그라디언트_27" x1="16.12" y1="15.29" x2="483.88" y2="483.05" gradientUnits="userSpaceOnUse"><stop offset="0.1" stop-color="#fd8c00"/><stop offset="0.38" stop-color="#fd0c00"/><stop offset="0.75" stop-color="#d50170"/></linearGradient><clipPath id="clip-path-2"><path class="cls-1" d="M319.57,270.35l-21.86-12.62a49.15,49.15,0,0,0,.67-7.73,48.18,48.18,0,0,0-1.81-13l23-13.28A14.61,14.61,0,1,0,305,198.46l-24.37,14.07a48,48,0,0,0-16-8.65V175.16a14.61,14.61,0,0,0-29.22,0v28.72a48,48,0,0,0-16,8.65L195,198.46a14.61,14.61,0,1,0-14.61,25.3l23,13.28a48.18,48.18,0,0,0-1.81,13,49.15,49.15,0,0,0,.67,7.73l-21.86,12.62A14.61,14.61,0,1,0,195,295.66l20.43-11.8a48.31,48.31,0,0,0,19.92,12.26V319a14.61,14.61,0,1,0,29.22,0V296.12a48.31,48.31,0,0,0,19.92-12.26L305,295.66a14.61,14.61,0,0,0,14.61-25.31Z"/></clipPath></defs><g class="cls-2"><rect class="cls-3" x="32.24" y="-0.82" width="435.53" height="499.98"/></g><g class="cls-4"><rect class="cls-3" x="32.24" y="-0.82" width="435.53" height="499.98"/></g></svg>