<svg width="20" height="20" viewBox="0 0 20 20" fill="none" xmlns="http://www.w3.org/2000/svg">
<path fill-rule="evenodd" clip-rule="evenodd" d="M2.62616 3.10524C1.60547 4.12594 1.60547 5.76872 1.60547 9.05429V11.0871C1.60547 14.3727 1.60547 16.0155 2.62616 17.0362C3.64686 18.0569 5.28965 18.0569 8.57522 18.0569H10.6081C13.8936 18.0569 15.5364 18.0569 16.5571 17.0362C17.5778 16.0155 17.5778 14.3727 17.5778 11.0871V9.05429C17.5778 6.65132 17.5778 5.12708 17.1785 4.08227V14.0638C16.4115 14.0638 15.6759 13.7591 15.1335 13.2167L14.5332 12.6164C14.0538 12.137 13.8141 11.8973 13.5551 11.77C13.0702 11.5314 12.502 11.5314 12.0171 11.77C11.7581 11.8973 11.5184 12.137 11.039 12.6164L11.039 12.6164L10.9486 12.7068L10.9486 12.7068C10.5502 13.1052 10.351 13.3044 10.148 13.3686C9.86734 13.4572 9.56091 13.3982 9.33328 13.2117C9.1686 13.0767 9.05762 12.8178 8.83567 12.2999L8.79302 12.2004C8.27212 10.9849 8.01167 10.3772 7.59826 10.0917C7.19662 9.81429 6.69704 9.71808 6.22111 9.82647C5.73122 9.93804 5.2637 10.4056 4.32866 11.3406L2.80339 12.8659V2.94342C2.74225 2.99429 2.68324 3.04817 2.62616 3.10524Z" fill="black"/>
<path d="M2.47571 9.05428C2.47571 7.38687 2.47756 6.22395 2.59553 5.34651C2.71013 4.49414 2.91974 4.04277 3.24123 3.72127C3.56273 3.39978 4.0141 3.19017 4.86647 3.07557C5.74391 2.9576 6.90682 2.95575 8.57424 2.95575H10.6071C12.2745 2.95575 13.4374 2.9576 14.3148 3.07557C15.1672 3.19017 15.6186 3.39978 15.9401 3.72127C16.2616 4.04277 16.4712 4.49414 16.5858 5.34651C16.7038 6.22395 16.7056 7.38686 16.7056 9.05428V11.0871C16.7056 12.7545 16.7038 13.9174 16.5858 14.7949C16.4712 15.6473 16.2616 16.0986 15.9401 16.4201C15.6186 16.7416 15.1672 16.9512 14.3148 17.0658C13.4374 17.1838 12.2745 17.1856 10.6071 17.1856H8.57424C6.90683 17.1856 5.74391 17.1838 4.86647 17.0658C4.0141 16.9512 3.56273 16.7416 3.24123 16.4201C2.91974 16.0986 2.71013 15.6473 2.59553 14.7949C2.47756 13.9174 2.47571 12.7545 2.47571 11.0871V9.05428Z" stroke="black" stroke-width="1.74244"/>
<ellipse cx="11.9869" cy="7.67484" rx="1.59723" ry="1.59723" fill="black"/>
</svg>
