<svg xmlns="http://www.w3.org/2000/svg" width="28" height="28" fill="none" viewBox="0 0 28 28">
  <path fill="#F7F9FC" fill-rule="evenodd" d="M21.351 2.564A1 1 0 0 1 22 3.5v3.78a4.5 4.5 0 0 1 0 8.774v3.78a1 1 0 0 1-1.753.657c-.741-.848-2.038-1.646-3.792-2.232a17.3 17.3 0 0 0-2.622-.64v4.828a3.055 3.055 0 0 1-4.59 2.636 3.054 3.054 0 0 1-1.338-1.608l-.002-.008-2.367-6.78A5.668 5.668 0 0 1 8.166 6h2.138a22.064 22.064 0 0 0 2.441-.134 18.16 18.16 0 0 0 3.71-.792c1.754-.585 3.05-1.383 3.792-2.232a1 1 0 0 1 1.104-.278Zm-9.518 5.388c-.501.032-1.012.048-1.529.048H8.167a3.669 3.669 0 0 0-1.472 7.027c.025.01.05.02.075.032a3.65 3.65 0 0 0 1.395.274h2.139c.517 0 1.028.017 1.53.048V7.952Zm2 7.641V7.74a19.548 19.548 0 0 0 3.254-.769c1.077-.359 2.065-.81 2.913-1.347V17.71c-.848-.536-1.836-.988-2.912-1.347a19.555 19.555 0 0 0-3.255-.769ZM22 13.958a2.5 2.5 0 0 0 0-4.583v4.583Zm-10.167 3.427a22.377 22.377 0 0 0-1.529-.052H8.168m3.665.052v5.061a1.053 1.053 0 0 1-2.044.357l-1.912-5.477" clip-rule="evenodd"/>
</svg>
