<svg width="19" height="18" viewBox="0 0 19 18" fill="none" xmlns="http://www.w3.org/2000/svg">
<path d="M16.1253 11.8226H5.96113C5.76858 11.8226 5.58391 11.7461 5.44776 11.6099C5.31161 11.4738 5.23511 11.2891 5.23511 11.0965C5.23511 10.904 5.31161 10.7193 5.44776 10.5832C5.58391 10.447 5.76858 10.3705 5.96113 10.3705H13.5407C14.0262 10.3705 14.4977 10.2084 14.8805 9.90981C15.2633 9.61123 15.5353 9.19333 15.6534 8.72247L16.8514 4.01063C16.8785 3.90348 16.8809 3.79153 16.8583 3.68332C16.8356 3.57512 16.7886 3.47351 16.7207 3.38626C16.6501 3.29676 16.5594 3.22515 16.456 3.17722C16.3525 3.12929 16.2393 3.10639 16.1253 3.11037H5.78689C5.6371 2.6867 5.35994 2.31974 4.9934 2.05978C4.62686 1.79983 4.18889 1.6596 3.73952 1.65834H3.05707C2.86452 1.65834 2.67985 1.73483 2.5437 1.87099C2.40755 2.00714 2.33105 2.1918 2.33105 2.38436C2.33105 2.57691 2.40755 2.76157 2.5437 2.89773C2.67985 3.03388 2.86452 3.11037 3.05707 3.11037H3.73952C3.90537 3.10554 4.06787 3.15766 4.19997 3.25805C4.33206 3.35845 4.42579 3.50106 4.46554 3.66214L4.5091 4.01063L5.76511 8.91849C5.18745 8.94449 4.64378 9.19889 4.2537 9.62573C3.86362 10.0526 3.65908 10.6169 3.68507 11.1945C3.71107 11.7722 3.96547 12.3159 4.39231 12.706C4.81916 13.096 5.38348 13.3006 5.96113 13.2746H6.09181C5.97241 13.6036 5.93404 13.9565 5.97996 14.3034C6.02587 14.6504 6.15472 14.9812 6.35559 15.2678C6.55646 15.5543 6.82343 15.7883 7.1339 15.9499C7.44437 16.1114 7.7892 16.1957 8.13917 16.1957C8.48915 16.1957 8.83398 16.1114 9.14445 15.9499C9.45492 15.7883 9.72189 15.5543 9.92276 15.2678C10.1236 14.9812 10.2525 14.6504 10.2984 14.3034C10.3443 13.9565 10.3059 13.6036 10.1865 13.2746H11.8999C11.7805 13.6036 11.7422 13.9565 11.7881 14.3034C11.834 14.6504 11.9628 14.9812 12.1637 15.2678C12.3646 15.5543 12.6315 15.7883 12.942 15.9499C13.2525 16.1114 13.5973 16.1957 13.9473 16.1957C14.2973 16.1957 14.6421 16.1114 14.9526 15.9499C15.263 15.7883 15.53 15.5543 15.7309 15.2678C15.9318 14.9812 16.0606 14.6504 16.1065 14.3034C16.1524 13.9565 16.1141 13.6036 15.9947 13.2746H16.1253C16.3179 13.2746 16.5026 13.1981 16.6387 13.0619C16.7749 12.9258 16.8514 12.7411 16.8514 12.5486C16.8514 12.356 16.7749 12.1713 16.6387 12.0352C16.5026 11.899 16.3179 11.8226 16.1253 11.8226ZM15.196 4.5624L14.245 8.36672C14.2052 8.5278 14.1115 8.67042 13.9794 8.77081C13.8473 8.8712 13.6848 8.92332 13.5189 8.91849H7.25344L6.16441 4.5624H15.196ZM8.13917 14.7266C7.99558 14.7266 7.85522 14.684 7.73582 14.6043C7.61643 14.5245 7.52338 14.4111 7.46842 14.2784C7.41347 14.1458 7.3991 13.9998 7.42711 13.859C7.45512 13.7181 7.52427 13.5888 7.6258 13.4872C7.72734 13.3857 7.8567 13.3165 7.99754 13.2885C8.13837 13.2605 8.28435 13.2749 8.41701 13.3298C8.54967 13.3848 8.66306 13.4779 8.74283 13.5972C8.82261 13.7166 8.86519 13.857 8.86519 14.0006C8.86519 14.1931 8.7887 14.3778 8.65254 14.514C8.51639 14.6501 8.33173 14.7266 8.13917 14.7266ZM13.9473 14.7266C13.8037 14.7266 13.6633 14.684 13.5439 14.6043C13.4246 14.5245 13.3315 14.4111 13.2765 14.2784C13.2216 14.1458 13.2072 13.9998 13.2352 13.859C13.2632 13.7181 13.3324 13.5888 13.4339 13.4872C13.5355 13.3857 13.6648 13.3165 13.8057 13.2885C13.9465 13.2605 14.0925 13.2749 14.2251 13.3298C14.3578 13.3848 14.4712 13.4779 14.551 13.5972C14.6307 13.7166 14.6733 13.857 14.6733 14.0006C14.6733 14.1931 14.5968 14.3778 14.4607 14.514C14.3245 14.6501 14.1398 14.7266 13.9473 14.7266Z" fill="black"/>
</svg>
