<svg width="15" height="15" viewBox="0 0 15 15" fill="none" xmlns="http://www.w3.org/2000/svg">
<path d="M7.5 0.000488281C3.3583 0.000488281 0 3.35813 0 7.50016C0 11.6422 3.35797 14.9998 7.5 14.9998C11.6424 14.9998 15 11.6422 15 7.50016C15 3.35813 11.6424 0.000488281 7.5 0.000488281ZM7.5 2.24298C8.87046 2.24298 9.981 3.35384 9.981 4.72365C9.981 6.09379 8.87046 7.20432 7.5 7.20432C6.13019 7.20432 5.01966 6.09379 5.01966 4.72365C5.01966 3.35384 6.13019 2.24298 7.5 2.24298ZM7.49835 13.039C6.13151 13.039 4.87964 12.5412 3.91406 11.7173C3.67884 11.5167 3.54311 11.2225 3.54311 10.9138C3.54311 9.52456 4.66749 8.4127 6.05706 8.4127H8.9436C10.3335 8.4127 11.4536 9.52456 11.4536 10.9138C11.4536 11.2228 11.3185 11.5163 11.083 11.717C10.1177 12.5412 8.86552 13.039 7.49835 13.039Z" fill="url(#paint0_linear_4335_6964)"/>
<defs>
<linearGradient id="paint0_linear_4335_6964" x1="1.60714" y1="2.14282" x2="12.8571" y2="13.3928" gradientUnits="userSpaceOnUse">
<stop stop-color="#FF2F00"/>
<stop offset="1" stop-color="#FC6825"/>
</linearGradient>
</defs>
</svg>
