<svg width="20" height="20" viewBox="0 0 20 20" fill="none" xmlns="http://www.w3.org/2000/svg">
<path d="M15.0342 11.3481C14.5632 11.3512 14.0987 11.4587 13.6742 11.6627C13.2496 11.8667 12.8755 12.1622 12.5788 12.528L8.51293 10.6545C8.70409 10.0692 8.70409 9.43816 8.51293 8.8528L12.5788 6.97932C13.0584 7.55807 13.7271 7.9488 14.4667 8.08255C15.2064 8.21629 15.9696 8.08445 16.6215 7.71029C17.2734 7.33614 17.7722 6.74372 18.0299 6.03759C18.2875 5.33145 18.2874 4.55701 18.0297 3.85092C17.7719 3.14484 17.273 2.55251 16.621 2.17847C15.969 1.80443 15.2058 1.67273 14.4662 1.80661C13.7265 1.94049 13.0579 2.33134 12.5784 2.91019C12.0989 3.48903 11.8393 4.21866 11.8453 4.9703C11.8477 5.16023 11.8664 5.3496 11.9011 5.53634L7.69179 7.4736C7.24301 7.03479 6.67472 6.73817 6.05811 6.6209C5.44151 6.50364 4.80401 6.57095 4.22548 6.81439C3.64696 7.05784 3.15315 7.4666 2.8059 7.98945C2.45866 8.51231 2.27344 9.12601 2.27344 9.75366C2.27344 10.3813 2.45866 10.995 2.8059 11.5179C3.15315 12.0407 3.64696 12.4495 4.22548 12.6929C4.80401 12.9364 5.44151 13.0037 6.05811 12.8864C6.67472 12.7692 7.24301 12.4725 7.69179 12.0337L11.9011 13.971C11.8664 14.1577 11.8477 14.3471 11.8453 14.537C11.8453 15.1677 12.0324 15.7843 12.3828 16.3087C12.7332 16.8331 13.2312 17.2418 13.8139 17.4832C14.3966 17.7245 15.0378 17.7877 15.6564 17.6647C16.275 17.5416 16.8432 17.2379 17.2891 16.7919C17.7351 16.3459 18.0388 15.7777 18.1619 15.1591C18.2849 14.5406 18.2218 13.8994 17.9804 13.3167C17.739 12.734 17.3303 12.2359 16.8059 11.8855C16.2815 11.5351 15.6649 11.3481 15.0342 11.3481ZM15.0342 3.37585C15.3496 3.37585 15.6579 3.46936 15.9201 3.64457C16.1823 3.81977 16.3866 4.06879 16.5073 4.36013C16.628 4.65148 16.6596 4.97207 16.5981 5.28137C16.5365 5.59066 16.3847 5.87476 16.1617 6.09775C15.9387 6.32074 15.6546 6.4726 15.3453 6.53412C15.036 6.59564 14.7154 6.56407 14.4241 6.44339C14.1327 6.32271 13.8837 6.11834 13.7085 5.85613C13.5333 5.59393 13.4398 5.28566 13.4398 4.9703C13.4398 4.54743 13.6078 4.14187 13.9068 3.84286C14.2058 3.54384 14.6114 3.37585 15.0342 3.37585ZM5.46752 11.3481C5.15217 11.3481 4.8439 11.2546 4.58169 11.0794C4.31949 10.9042 4.11512 10.6552 3.99444 10.3638C3.87376 10.0725 3.84219 9.75189 3.90371 9.4426C3.96523 9.13331 4.11709 8.8492 4.34008 8.62622C4.56306 8.40323 4.84717 8.25137 5.15646 8.18985C5.46576 8.12833 5.78635 8.1599 6.07769 8.28058C6.36904 8.40126 6.61806 8.60563 6.79326 8.86783C6.96846 9.13004 7.06198 9.43831 7.06198 9.75366C7.06198 10.1765 6.89399 10.5821 6.59497 10.8811C6.29595 11.1801 5.8904 11.3481 5.46752 11.3481ZM15.0342 16.1315C14.7189 16.1315 14.4106 16.038 14.1484 15.8628C13.8862 15.6876 13.6818 15.4385 13.5612 15.1472C13.4405 14.8558 13.4089 14.5353 13.4704 14.226C13.5319 13.9167 13.6838 13.6326 13.9068 13.4096C14.1298 13.1866 14.4139 13.0347 14.7232 12.9732C15.0325 12.9117 15.3531 12.9433 15.6444 13.0639C15.9358 13.1846 16.1848 13.389 16.36 13.6512C16.5352 13.9134 16.6287 14.2217 16.6287 14.537C16.6287 14.9599 16.4607 15.3655 16.1617 15.6645C15.8627 15.9635 15.4571 16.1315 15.0342 16.1315Z" fill="#464F60"/>
</svg>
