<svg width="20" height="20" viewBox="0 0 20 20" fill="none" xmlns="http://www.w3.org/2000/svg">
<path d="M14.3502 11.1612C13.8791 11.1643 13.4147 11.2718 12.9901 11.4758C12.5655 11.6798 12.1914 11.9753 11.8947 12.3411L7.82885 10.4676C8.02001 9.88227 8.02001 9.25127 7.82885 8.66591L11.8947 6.79243C12.3743 7.37119 13.043 7.76192 13.7827 7.89566C14.5223 8.0294 15.2855 7.89756 15.9374 7.52341C16.5893 7.14925 17.0881 6.55683 17.3458 5.8507C17.6034 5.14457 17.6034 4.37012 17.3456 3.66403C17.0878 2.95795 16.5889 2.36562 15.9369 1.99158C15.2849 1.61754 14.5217 1.48584 13.7821 1.61972C13.0424 1.7536 12.3739 2.14445 11.8943 2.7233C11.4148 3.30214 11.1552 4.03177 11.1613 4.78341C11.1637 4.97334 11.1823 5.16271 11.2171 5.34945L7.0077 7.28671C6.55893 6.8479 5.99064 6.55128 5.37403 6.43401C4.75743 6.31675 4.11993 6.38406 3.5414 6.62751C2.96288 6.87095 2.46906 7.27971 2.12182 7.80256C1.77458 8.32542 1.58936 8.93912 1.58936 9.56677C1.58936 10.1944 1.77458 10.8081 2.12182 11.331C2.46906 11.8538 2.96288 12.2626 3.5414 12.506C4.11993 12.7495 4.75743 12.8168 5.37403 12.6995C5.99064 12.5823 6.55893 12.2857 7.0077 11.8468L11.2171 13.7841C11.1823 13.9708 11.1637 14.1602 11.1613 14.3501C11.1613 14.9808 11.3483 15.5974 11.6987 16.1218C12.0491 16.6462 12.5471 17.0549 13.1298 17.2963C13.7125 17.5377 14.3537 17.6008 14.9723 17.4778C15.5909 17.3547 16.1591 17.051 16.6051 16.605C17.051 16.1591 17.3547 15.5908 17.4778 14.9723C17.6008 14.3537 17.5377 13.7125 17.2963 13.1298C17.055 12.5471 16.6462 12.0491 16.1218 11.6987C15.5974 11.3483 14.9809 11.1612 14.3502 11.1612ZM14.3502 3.18896C14.6655 3.18896 14.9738 3.28248 15.236 3.45768C15.4982 3.63288 15.7026 3.8819 15.8232 4.17324C15.9439 4.46459 15.9755 4.78518 15.914 5.09448C15.8525 5.40377 15.7006 5.68788 15.4776 5.91086C15.2546 6.13385 14.9705 6.28571 14.6612 6.34723C14.3519 6.40875 14.0313 6.37718 13.74 6.2565C13.4486 6.13582 13.1996 5.93145 13.0244 5.66925C12.8492 5.40704 12.7557 5.09877 12.7557 4.78341C12.7557 4.36054 12.9237 3.95498 13.2227 3.65597C13.5217 3.35695 13.9273 3.18896 14.3502 3.18896ZM4.78344 11.1612C4.46809 11.1612 4.15982 11.0677 3.89761 10.8925C3.63541 10.7173 3.43104 10.4683 3.31036 10.1769C3.18968 9.8856 3.1581 9.56501 3.21963 9.25571C3.28115 8.94642 3.433 8.66231 3.65599 8.43933C3.87898 8.21634 4.16309 8.06448 4.47238 8.00296C4.78167 7.94144 5.10226 7.97301 5.39361 8.09369C5.68496 8.21437 5.93398 8.41874 6.10918 8.68094C6.28438 8.94315 6.37789 9.25142 6.37789 9.56677C6.37789 9.98965 6.20991 10.3952 5.91089 10.6942C5.61187 10.9932 5.20632 11.1612 4.78344 11.1612ZM14.3502 15.9446C14.0348 15.9446 13.7265 15.8511 13.4643 15.6759C13.2021 15.5007 12.9978 15.2517 12.8771 14.9603C12.7564 14.669 12.7248 14.3484 12.7863 14.0391C12.8479 13.7298 12.9997 13.4457 13.2227 13.2227C13.4457 12.9997 13.7298 12.8478 14.0391 12.7863C14.3484 12.7248 14.669 12.7564 14.9603 12.8771C15.2517 12.9977 15.5007 13.2021 15.6759 13.4643C15.8511 13.7265 15.9446 14.0348 15.9446 14.3501C15.9446 14.773 15.7766 15.1786 15.4776 15.4776C15.1786 15.7766 14.773 15.9446 14.3502 15.9446Z" fill="#979DA6"/>
</svg>
