<svg xmlns="http://www.w3.org/2000/svg" width="24" height="24" fill="none" viewBox="0 0 24 24">
  <path fill="#fff" fill-rule="evenodd" d="M16.32 19.983a.99.99 0 0 0 .923.12.967.967 0 0 0 .603-.7C18.57 16 20.327 7.386 20.986 4.29a.65.65 0 0 0-.216-.632.667.667 0 0 0-.665-.116C16.611 4.835 5.85 8.872 1.452 10.5a.689.689 0 0 0-.452.666.69.69 0 0 0 .494.636c1.973.59 4.562 1.411 4.562 1.411s1.21 3.655 1.841 5.513a.73.73 0 0 0 .502.48.722.722 0 0 0 .676-.173c1.014-.956 2.58-2.436 2.58-2.436s2.977 2.183 4.665 3.386Zm-9.175-7.231 1.4 4.615.31-2.923 8.488-7.655a.231.231 0 0 0 .027-.314.237.237 0 0 0-.313-.053l-9.912 6.33Z" clip-rule="evenodd"/>
</svg>
