<svg width="18" height="18" viewBox="0 0 18 18" fill="none" xmlns="http://www.w3.org/2000/svg">
<path d="M1.86564 3.47328C2.0244 3.47328 2.18412 3.41978 2.31557 3.31012L4.22476 1.71801C4.52299 1.46931 4.56314 1.02592 4.31445 0.72769C4.06575 0.42946 3.62236 0.389276 3.32413 0.638006L1.41493 2.2302C1.1167 2.47889 1.07655 2.92228 1.32525 3.22051C1.46433 3.38722 1.66422 3.47328 1.86564 3.47328Z" fill="black"/>
<path d="M13.7763 1.71813L15.6855 3.31025C15.8169 3.4199 15.9766 3.47341 16.1354 3.47341C16.3368 3.47341 16.5367 3.38735 16.6758 3.2206C16.9245 2.92237 16.8843 2.47898 16.5861 2.23028L14.6769 0.638125C14.3787 0.38943 13.9353 0.429543 13.6866 0.727809C13.4379 1.02604 13.478 1.4694 13.7763 1.71813Z" fill="black"/>
<path d="M14.8667 3.83632C13.4582 2.42779 11.6323 1.5885 9.66796 1.433V0.703125C9.66796 0.314789 9.35318 0 8.96484 0C8.5765 0 8.26172 0.314789 8.26172 0.703125V1.43905C6.32415 1.60882 4.52499 2.44462 3.13326 3.83636C1.56618 5.40338 0.703125 7.48691 0.703125 9.70305C0.703125 11.9192 1.56618 14.0028 3.13323 15.5698C3.27857 15.7151 3.4284 15.8543 3.58232 15.9874L3.01693 16.9371C2.8183 17.2708 2.92774 17.7023 3.26141 17.901C3.37419 17.9681 3.49808 18 3.62042 18C3.86012 18 4.09373 17.8774 4.22525 17.6565L4.72482 16.8173C6.0024 17.5881 7.4695 17.9999 8.99996 17.9999C10.5243 17.9999 11.9872 17.5928 13.2743 16.816L13.7747 17.6564C13.9062 17.8773 14.1398 18 14.3795 18C14.5018 18 14.6258 17.968 14.7385 17.9009C15.0722 17.7023 15.1816 17.2708 14.983 16.9371L14.1041 15.4607C14.0026 15.2902 13.8337 15.1705 13.6392 15.1312C13.4447 15.0919 13.2426 15.1366 13.0828 15.2543C11.8938 16.1305 10.4819 16.5936 8.99996 16.5936C5.20049 16.5936 2.10937 13.5026 2.10937 9.70305C2.10937 5.90354 5.20049 2.8125 8.99996 2.8125C12.7994 2.8125 15.8905 5.90358 15.8905 9.70309C15.8905 10.8636 15.5968 12.0107 15.0411 13.0203C14.8539 13.3605 14.9779 13.788 15.3181 13.9753C15.6583 14.1625 16.0859 14.0385 16.2731 13.6983C16.9428 12.4816 17.2968 11.1 17.2968 9.70305C17.2968 7.48691 16.4338 5.40338 14.8667 3.83632Z" fill="black"/>
<path d="M8.96485 4.53516C8.57651 4.53516 8.26172 4.84995 8.26172 5.23828V9.70309C8.26172 9.88959 8.33579 10.0684 8.46766 10.2003L10.4564 12.189C10.5937 12.3263 10.7736 12.3949 10.9536 12.3949C11.1335 12.3949 11.3135 12.3263 11.4507 12.189C11.7254 11.9145 11.7254 11.4692 11.4507 11.1946L9.66797 9.41185V5.23828C9.66797 4.84995 9.35318 4.53516 8.96485 4.53516Z" fill="black"/>
</svg>
