<svg width="22" height="22" viewBox="0 0 22 22" fill="none" xmlns="http://www.w3.org/2000/svg">
<path d="M1.83203 7.33329L1.21599 6.71725L0.599943 7.33329L1.21599 7.94934L1.83203 7.33329ZM19.2487 8.20451C19.7299 8.20451 20.1199 7.81445 20.1199 7.33329C20.1199 6.85213 19.7299 6.46207 19.2487 6.46207L19.2487 8.20451ZM4.88265 3.05058L1.21599 6.71725L2.44808 7.94934L6.11474 4.28267L4.88265 3.05058ZM1.21599 7.94934L4.88265 11.616L6.11474 10.3839L2.44808 6.71725L1.21599 7.94934ZM1.83203 8.20451L19.2487 8.20451L19.2487 6.46207L1.83203 6.46207L1.83203 8.20451Z" fill="#FC6825"/>
<path d="M20.168 14.6667L20.784 14.0506L21.4001 14.6667L20.784 15.2827L20.168 14.6667ZM11.918 15.5379C11.4368 15.5379 11.0468 15.1478 11.0468 14.6667C11.0468 14.1855 11.4368 13.7954 11.918 13.7954L11.918 15.5379ZM17.1173 10.384L20.784 14.0506L19.5519 15.2827L15.8853 11.616L17.1173 10.384ZM20.784 15.2827L17.1173 18.9494L15.8853 17.7173L19.5519 14.0506L20.784 15.2827ZM20.168 15.5379L11.918 15.5379L11.918 13.7954L20.168 13.7954L20.168 15.5379Z" fill="#FC6825"/>
</svg>
