<svg width="16" height="15" viewBox="0 0 16 15" fill="none" xmlns="http://www.w3.org/2000/svg">
<path d="M1.85645 5.12001L1.2404 4.50396L0.624357 5.12001L1.2404 5.73605L1.85645 5.12001ZM13.5816 5.99123C14.0627 5.99123 14.4528 5.60117 14.4528 5.12001C14.4528 4.63885 14.0627 4.24879 13.5816 4.24879L13.5816 5.99123ZM3.70885 2.03551L1.2404 4.50396L2.47249 5.73605L4.94094 3.2676L3.70885 2.03551ZM1.2404 5.73605L3.70885 8.2045L4.94094 6.97241L2.47249 4.50396L1.2404 5.73605ZM1.85645 5.99123L13.5816 5.99123L13.5816 4.24879L1.85645 4.24879L1.85645 5.99123Z" fill="black"/>
<path d="M14.1982 10.0569L14.8143 9.44086L15.4303 10.0569L14.8143 10.673L14.1982 10.0569ZM8.64423 10.9281C8.16307 10.9281 7.77301 10.5381 7.77301 10.0569C7.77301 9.57575 8.16307 9.18569 8.64423 9.18569L8.64423 10.9281ZM12.3458 6.97241L14.8143 9.44086L13.5822 10.673L11.1137 8.2045L12.3458 6.97241ZM14.8143 10.673L12.3458 13.1414L11.1137 11.9093L13.5822 9.44086L14.8143 10.673ZM14.1982 10.9281L8.64423 10.9281L8.64423 9.18569L14.1982 9.18569L14.1982 10.9281Z" fill="black"/>
</svg>
