<svg xmlns="http://www.w3.org/2000/svg" width="24" height="24" fill="none" viewBox="0 0 24 24">
  <path fill="#fff" d="M23 5.924a8.186 8.186 0 0 1-2.357.646 4.115 4.115 0 0 0 1.805-2.27 8.215 8.215 0 0 1-2.606.995 4.104 4.104 0 0 0-6.992 3.743 11.648 11.648 0 0 1-8.458-4.287 4.103 4.103 0 0 0 1.27 5.478 4.075 4.075 0 0 1-1.859-.514v.052a4.106 4.106 0 0 0 3.292 4.023 4.09 4.09 0 0 1-1.853.071 4.107 4.107 0 0 0 3.833 2.85A8.233 8.233 0 0 1 3 18.41a11.607 11.607 0 0 0 6.29 1.844c7.547 0 11.674-6.253 11.674-11.676 0-.177-.004-.354-.012-.53A8.32 8.32 0 0 0 23 5.924Z"/>
</svg>
