<svg width="14" height="14" viewBox="0 0 14 14" fill="none" xmlns="http://www.w3.org/2000/svg">
<path d="M0 7C0 3.13401 3.13401 0 7 0C10.866 0 14 3.13401 14 7C14 10.866 10.866 14 7 14C3.13401 14 0 10.866 0 7Z" fill="#1D9BF0"/>
<path d="M5.719 10.6923C8.8235 10.6923 10.521 8.11982 10.521 5.89032C10.521 5.81682 10.521 5.74332 10.5175 5.67332C10.8465 5.43532 11.1335 5.13782 11.361 4.79832C11.06 4.93132 10.7345 5.02232 10.3915 5.06432C10.7415 4.85432 11.0075 4.52532 11.1335 4.12982C10.808 4.32232 10.4475 4.46232 10.0625 4.53932C9.7545 4.21032 9.317 4.00732 8.8305 4.00732C7.8995 4.00732 7.1435 4.76332 7.1435 5.69432C7.1435 5.82732 7.1575 5.95682 7.189 6.07932C5.7855 6.00932 4.543 5.33732 3.71 4.31532C3.5665 4.56382 3.4825 4.85432 3.4825 5.16232C3.4825 5.74682 3.78 6.26482 4.235 6.56582C3.9585 6.55882 3.6995 6.48182 3.472 6.35582C3.472 6.36282 3.472 6.36982 3.472 6.37682C3.472 7.19582 4.053 7.87482 4.8265 8.03232C4.6865 8.07082 4.536 8.09182 4.382 8.09182C4.2735 8.09182 4.1685 8.08132 4.0635 8.06032C4.277 8.73233 4.9 9.21882 5.6385 9.23282C5.061 9.68432 4.333 9.95382 3.542 9.95382C3.4055 9.95382 3.2725 9.94683 3.1395 9.92933C3.878 10.4123 4.767 10.6923 5.719 10.6923Z" fill="white"/>
</svg>
