<svg xmlns="http://www.w3.org/2000/svg" width="26" height="21" fill="none" viewBox="0 0 26 21">
  <path fill="#7D8490" d="M25.84 2.486a10.54 10.54 0 0 1-3.045.834A5.316 5.316 0 0 0 25.127.387a10.613 10.613 0 0 1-3.367 1.287A5.296 5.296 0 0 0 17.89 0a5.302 5.302 0 0 0-5.164 6.51A15.05 15.05 0 0 1 1.8.97a5.279 5.279 0 0 0-.718 2.665c0 1.84.936 3.463 2.358 4.413a5.264 5.264 0 0 1-2.401-.664v.068a5.305 5.305 0 0 0 4.252 5.197 5.282 5.282 0 0 1-2.394.092 5.307 5.307 0 0 0 4.953 3.682 10.637 10.637 0 0 1-6.585 2.27c-.427 0-.85-.026-1.264-.075A14.996 14.996 0 0 0 8.126 21c9.751 0 15.084-8.078 15.084-15.085 0-.23-.005-.458-.015-.685a10.75 10.75 0 0 0 2.645-2.744Z"/>
</svg>
