<svg width="19" height="19" viewBox="0 0 19 19" fill="none" xmlns="http://www.w3.org/2000/svg">
<path d="M12.4371 10.0621C13.2133 9.45144 13.7798 8.61406 14.0579 7.66645C14.3359 6.71884 14.3117 5.70812 13.9886 4.77491C13.6655 3.84169 13.0596 3.03239 12.2551 2.45959C11.4506 1.88679 10.4876 1.57898 9.50006 1.57898C8.51249 1.57898 7.54948 1.88679 6.745 2.45959C5.94052 3.03239 5.33458 3.84169 5.01148 4.77491C4.68837 5.70812 4.66417 6.71884 4.94224 7.66645C5.22032 8.61406 5.78683 9.45144 6.56298 10.0621C5.23304 10.5949 4.07262 11.4787 3.20543 12.6191C2.33824 13.7595 1.7968 15.1139 1.63881 16.5379C1.62737 16.6419 1.63653 16.7471 1.66575 16.8475C1.69496 16.9479 1.74368 17.0416 1.80911 17.1232C1.94124 17.288 2.13343 17.3936 2.34339 17.4167C2.55335 17.4398 2.76389 17.3785 2.92869 17.2464C3.09349 17.1142 3.19905 16.922 3.22214 16.7121C3.39598 15.1645 4.13389 13.7353 5.2949 12.6974C6.4559 11.6595 7.9586 11.0857 9.51589 11.0857C11.0732 11.0857 12.5759 11.6595 13.7369 12.6974C14.8979 13.7353 15.6358 15.1645 15.8096 16.7121C15.8312 16.9066 15.924 17.0863 16.0702 17.2164C16.2164 17.3465 16.4056 17.4179 16.6013 17.4167H16.6884C16.8959 17.3928 17.0856 17.2879 17.2161 17.1247C17.3466 16.9616 17.4073 16.7535 17.3851 16.5458C17.2263 15.1178 16.682 13.7599 15.8103 12.6177C14.9387 11.4755 13.7726 10.5921 12.4371 10.0621ZM9.50006 9.5C8.87375 9.5 8.26151 9.31428 7.74075 8.96632C7.22 8.61836 6.81412 8.1238 6.57444 7.54516C6.33476 6.96653 6.27205 6.32982 6.39424 5.71555C6.51643 5.10127 6.81802 4.53703 7.26089 4.09416C7.70375 3.65129 8.268 3.3497 8.88227 3.22751C9.49655 3.10532 10.1333 3.16803 10.7119 3.40771C11.2905 3.64739 11.7851 4.05327 12.133 4.57403C12.481 5.09478 12.6667 5.70702 12.6667 6.33333C12.6667 7.17318 12.3331 7.97864 11.7392 8.5725C11.1454 9.16637 10.3399 9.5 9.50006 9.5Z" fill="black"/>
</svg>
