<svg width="13" height="13" viewBox="0 0 13 13" fill="none" xmlns="http://www.w3.org/2000/svg">
<path d="M12.1009 5.17097C11.9345 5.05402 11.7842 4.91386 11.6543 4.75439C11.664 4.53219 11.7068 4.31293 11.7812 4.10449C11.9212 3.61032 12.0956 2.99538 11.7597 2.51551C11.4215 2.03034 10.8035 2.01419 10.3071 2.00094C10.0981 2.00963 9.88914 1.98617 9.68678 1.93129C9.57563 1.74936 9.49076 1.55135 9.4349 1.34363C9.26758 0.850519 9.06166 0.237966 8.50891 0.050731C7.97266 -0.131208 7.4915 0.214396 7.06697 0.517892C6.89652 0.660096 6.70503 0.772438 6.5 0.850519C6.29487 0.772477 6.10329 0.660133 5.93277 0.517892C5.50977 0.214131 5.02734 -0.130148 4.49109 0.050731C3.93859 0.237966 3.73242 0.84999 3.56637 1.34231C3.51075 1.54909 3.42677 1.7464 3.31703 1.92812C3.1141 1.98479 2.90409 2.0089 2.6942 1.99962C2.19781 2.01286 1.5798 2.02928 1.2416 2.51419C0.903399 2.99909 1.08012 3.61058 1.22002 4.10449C1.29332 4.31189 1.33612 4.52966 1.34697 4.75042C1.21761 4.9122 1.0667 5.05382 0.898828 5.17097C0.498418 5.48956 0 5.88627 0 6.50015C0 7.11403 0.498418 7.51074 0.899082 7.82934C1.06593 7.94619 1.21663 8.08635 1.34697 8.24591C1.33729 8.46811 1.29446 8.68737 1.22002 8.89581C1.08012 9.38998 0.905684 10.0049 1.2416 10.4848C1.5798 10.97 2.19781 10.9861 2.6942 10.9994C2.90312 10.9907 3.11213 11.0141 3.31449 11.069C3.42564 11.2509 3.51051 11.449 3.56637 11.6567C3.73217 12.149 3.93859 12.7613 4.49109 12.9485C4.58942 12.9822 4.69228 12.9993 4.79578 12.9991C5.21168 12.9991 5.59152 12.7268 5.9343 12.4814C6.10454 12.3398 6.29556 12.2279 6.5 12.1498C6.7051 12.2279 6.89667 12.3402 7.06723 12.4824C7.4915 12.7862 7.97291 13.1302 8.50916 12.9496C9.06166 12.7623 9.26783 12.1503 9.43363 11.658C9.48947 11.4513 9.57343 11.254 9.68297 11.0722C9.8859 11.0155 10.0959 10.9914 10.3058 11.0007C10.8022 10.9874 11.4202 10.971 11.7584 10.4861C12.0966 10.0012 11.9201 9.38972 11.7802 8.89581C11.7071 8.68837 11.6643 8.47062 11.6533 8.24989C11.783 8.08809 11.9343 7.94647 12.1024 7.82934C12.5029 7.51154 13.0013 7.11429 13.0013 6.50015C13.0013 5.88601 12.5029 5.48956 12.1022 5.17097H12.1009ZM8.91414 5.48717L6.20598 8.31212C6.10437 8.41803 5.96661 8.47753 5.82296 8.47753C5.67931 8.47753 5.54155 8.41803 5.43994 8.31212L4.08586 6.89952C3.983 6.79493 3.92418 6.65201 3.92235 6.5022C3.92144 6.42802 3.93455 6.35437 3.96093 6.28548C3.98731 6.21658 4.02644 6.15378 4.07608 6.10065C4.12573 6.04753 4.18493 6.00513 4.25029 5.97586C4.31565 5.9466 4.38589 5.93105 4.45701 5.93011C4.60065 5.92819 4.73913 5.98587 4.84199 6.09046L4.85164 6.10079L5.82283 7.11376L8.14836 4.68818C8.24943 4.5846 8.38538 4.52644 8.52708 4.52617C8.66877 4.52589 8.80493 4.58351 8.90638 4.68669C9.00782 4.78987 9.06649 4.93039 9.06979 5.07814C9.07309 5.22589 9.02077 5.36911 8.92404 5.47711L8.91414 5.48717Z" fill="url(#paint0_linear_38_2873)"/>
<defs>
<linearGradient id="paint0_linear_38_2873" x1="0.904107" y1="3.091" x2="12.3458" y2="9.42417" gradientUnits="userSpaceOnUse">
<stop stop-color="#FF8736"/>
<stop offset="0.26" stop-color="#FC6825"/>
<stop offset="0.53" stop-color="#F95B1C"/>
<stop offset="0.78" stop-color="#FF2F00"/>
<stop offset="1" stop-color="#FF2F00"/>
</linearGradient>
</defs>
</svg>
