<svg width="14" height="12" viewBox="0 0 14 12" fill="none" xmlns="http://www.w3.org/2000/svg">
<path d="M11.2146 9.02539H10.485C9.79706 9.02539 9.45311 9.02539 9.23941 8.81169C9.02571 8.59799 9.02571 8.25404 9.02571 7.56614C9.02571 6.87825 9.02571 6.5343 9.23941 6.3206C9.45311 6.1069 9.79706 6.1069 10.485 6.1069H11.2146C11.9025 6.1069 12.2464 6.1069 12.4601 6.3206C12.6738 6.5343 12.6738 6.87825 12.6738 7.56614C12.6738 8.25404 12.6738 8.59799 12.4601 8.81169C12.2464 9.02539 11.9025 9.02539 11.2146 9.02539Z" stroke="#030229" stroke-width="1.31332"/>
<path d="M3.91797 3.91797H5.37722" stroke="#030229" stroke-width="1.31332" stroke-linecap="round"/>
<path d="M8.29623 1H5.37774C3.31405 1 2.28221 1 1.64111 1.64111C1 2.28221 1 3.31405 1 5.37774V6.83699C1 8.90067 1 9.93252 1.64111 10.5736C2.28221 11.2147 3.31405 11.2147 5.37774 11.2147H8.29623C10.3599 11.2147 11.3918 11.2147 12.0329 10.5736C12.674 9.93252 12.674 8.90067 12.674 6.83699V5.37774C12.674 3.31405 12.674 2.28221 12.0329 1.64111C11.3918 1 10.3599 1 8.29623 1Z" stroke="#030229" stroke-width="1.31332"/>
</svg>
