<svg width="14" height="15" viewBox="0 0 14 15" fill="none" xmlns="http://www.w3.org/2000/svg">
<path d="M2.12015 12.2124L1.60422 12.7283H1.60422L2.12015 12.2124ZM12.5119 12.2124L13.0278 12.7283L12.5119 12.2124ZM12.5119 3.27986L13.0278 2.76394V2.76394L12.5119 3.27986ZM4.39753 4.82763C3.99457 4.82763 3.66791 5.15429 3.66791 5.55725C3.66791 5.96021 3.99457 6.28687 4.39753 6.28687V4.82763ZM5.85678 6.28687C6.25974 6.28687 6.5864 5.96021 6.5864 5.55725C6.5864 5.15429 6.25974 4.82763 5.85678 4.82763V6.28687ZM12.9393 10.4509L12.4234 9.93499L12.9393 10.4509ZM0.598336 13.1284C0.313401 13.4134 0.313401 13.8753 0.598336 14.1603C0.883272 14.4452 1.34524 14.4452 1.63018 14.1603L0.598336 13.1284ZM13.7316 2.05889C14.0165 1.77395 14.0165 1.31198 13.7316 1.02705C13.4466 0.742112 12.9846 0.742112 12.6997 1.02705L13.7316 2.05889ZM5.85678 3.36838H8.77527V1.90913H5.85678V3.36838ZM8.77527 12.1239H5.85678V13.5831H8.77527V12.1239ZM2.20866 8.47574V7.0165H0.749417V8.47574H2.20866ZM5.85678 12.1239C4.80431 12.1239 4.08836 12.1223 3.55222 12.0502C3.03706 11.981 2.79846 11.8589 2.63607 11.6965L1.60422 12.7283C2.08294 13.207 2.68081 13.4054 3.35777 13.4965C4.01375 13.5847 4.84556 13.5831 5.85678 13.5831V12.1239ZM0.749417 8.47574C0.749417 9.48696 0.747867 10.3188 0.836061 10.9748C0.927077 11.6517 1.12551 12.2496 1.60422 12.7283L2.63607 11.6965C2.47367 11.5341 2.35156 11.2955 2.2823 10.7803C2.21021 10.2442 2.20866 9.52821 2.20866 8.47574H0.749417ZM8.77527 13.5831C9.78649 13.5831 10.6183 13.5847 11.2743 13.4965C11.9512 13.4054 12.5491 13.207 13.0278 12.7283L11.996 11.6965C11.8336 11.8589 11.595 11.981 11.0798 12.0502C10.5437 12.1223 9.82774 12.1239 8.77527 12.1239V13.5831ZM12.4234 8.47574C12.4234 9.52821 12.4218 10.2442 12.3498 10.7803C12.2805 11.2955 12.1584 11.5341 11.996 11.6965L13.0278 12.7283C13.5065 12.2496 13.705 11.6517 13.796 10.9748C13.8842 10.3188 13.8826 9.48696 13.8826 8.47574H12.4234ZM8.77527 3.36838C9.82774 3.36838 10.5437 3.36993 11.0798 3.44201C11.595 3.51127 11.8336 3.63339 11.996 3.79578L13.0278 2.76394C12.5491 2.28523 11.9512 2.08679 11.2743 1.99578C10.6183 1.90758 9.78649 1.90913 8.77527 1.90913V3.36838ZM13.8826 7.0165C13.8826 6.00528 13.8842 5.17347 13.796 4.51749C13.705 3.84053 13.5065 3.24265 13.0278 2.76394L11.996 3.79578C12.1584 3.95818 12.2805 4.19678 12.3498 4.71193C12.4218 5.24807 12.4234 5.96403 12.4234 7.0165H13.8826ZM5.85678 1.90913C4.84556 1.90913 4.01375 1.90758 3.35777 1.99578C2.68081 2.08679 2.08294 2.28523 1.60422 2.76394L2.63607 3.79578C2.79846 3.63339 3.03706 3.51127 3.55222 3.44201C4.08836 3.36993 4.80431 3.36838 5.85678 3.36838V1.90913ZM2.20866 7.0165C2.20866 5.96403 2.21021 5.24807 2.2823 4.71193C2.35156 4.19678 2.47367 3.95818 2.63607 3.79578L1.60422 2.76394C1.12551 3.24265 0.927077 3.84052 0.836061 4.51749C0.747867 5.17347 0.749417 6.00528 0.749417 7.0165H2.20866ZM12.4234 7.0165V8.47574H13.8826V7.0165H12.4234ZM4.39753 6.28687H5.85678V4.82763H4.39753V6.28687ZM10.9641 11.3942H11.6938V9.93499H10.9641V11.3942ZM11.6938 7.0165H10.9641V8.47574H11.6938V7.0165ZM8.77527 9.20537C8.77527 9.52869 8.77372 9.84458 8.80849 10.1032C8.84608 10.3828 8.93767 10.7018 9.20268 10.9668L10.2345 9.93499C10.2858 9.9863 10.2706 10.0265 10.2547 9.90874C10.2361 9.76997 10.2345 9.56994 10.2345 9.20537H8.77527ZM10.9641 9.93499C10.5996 9.93499 10.3995 9.93344 10.2608 9.91478C10.143 9.89895 10.1832 9.88368 10.2345 9.93499L9.20268 10.9668C9.46769 11.2318 9.78674 11.3234 10.0663 11.361C10.3249 11.3958 10.6408 11.3942 10.9641 11.3942V9.93499ZM10.2345 9.20537C10.2345 8.84079 10.2361 8.64076 10.2547 8.50199C10.2706 8.38421 10.2858 8.42444 10.2345 8.47574L9.20268 7.4439C8.93767 7.70891 8.84608 8.02796 8.80849 8.30755C8.77372 8.56616 8.77527 8.88205 8.77527 9.20537H10.2345ZM10.9641 7.0165C10.6408 7.0165 10.3249 7.01495 10.0663 7.04972C9.78673 7.08731 9.46769 7.17889 9.20268 7.4439L10.2345 8.47574C10.1832 8.52705 10.143 8.51179 10.2608 8.49595C10.3995 8.47729 10.5996 8.47574 10.9641 8.47574V7.0165ZM13.8826 9.20537C13.8826 8.88205 13.8842 8.56616 13.8494 8.30755C13.8118 8.02796 13.7202 7.70891 13.4552 7.4439L12.4234 8.47574C12.3721 8.42444 12.3873 8.38421 12.4032 8.50199C12.4218 8.64076 12.4234 8.84079 12.4234 9.20537H13.8826ZM11.6938 8.47574C12.0583 8.47574 12.2584 8.47729 12.3971 8.49595C12.5149 8.51179 12.4747 8.52705 12.4234 8.47574L13.4552 7.4439C13.1902 7.17889 12.8712 7.08731 12.5916 7.04972C12.333 7.01495 12.0171 7.0165 11.6938 7.0165V8.47574ZM11.6938 11.3942C12.0171 11.3942 12.333 11.3958 12.5916 11.361C12.8712 11.3234 13.1902 11.2318 13.4552 10.9668L12.4234 9.93499C12.4747 9.88368 12.5149 9.89895 12.3971 9.91478C12.2584 9.93344 12.0583 9.93499 11.6938 9.93499V11.3942ZM12.4234 9.20537C12.4234 9.56994 12.4218 9.76997 12.4032 9.90874C12.3873 10.0265 12.3721 9.9863 12.4234 9.93499L13.4552 10.9668C13.7202 10.7018 13.8118 10.3828 13.8494 10.1032C13.8842 9.84458 13.8826 9.52869 13.8826 9.20537H12.4234ZM1.63018 14.1603L13.7316 2.05889L12.6997 1.02705L0.598336 13.1284L1.63018 14.1603Z" fill="#FC6825"/>
</svg>
