<svg xmlns="http://www.w3.org/2000/svg" width="24" height="24" fill="none" viewBox="0 0 24 24">
  <path fill="#030229" fill-rule="evenodd" d="M9.019 1.906h5.222c1.723 0 3.128 0 4.235.148 1.156.156 2.15.491 2.944 1.285.794.793 1.13 1.788 1.285 2.944.149 1.108.149 2.511.148 4.235v3.94c0 .364 0 .714-.016 1.031a18.334 18.334 0 0 1-.132 1.954c-.156 1.156-.491 2.15-1.285 2.944-.793.794-1.788 1.13-2.944 1.285-1.108.148-2.511.148-4.235.148H9.019c-1.724 0-3.128 0-4.235-.148-1.156-.156-2.151-.491-2.945-1.285C1.046 19.594.71 18.6.555 17.443.406 16.335.406 14.93.406 13.208v-2.69c0-1.724 0-3.128.15-4.235.154-1.156.49-2.15 1.283-2.944.794-.794 1.79-1.13 2.945-1.285 1.107-.149 2.511-.149 4.235-.148Zm11.645 12.09c-.002.523-.005.993-.015 1.418a3.148 3.148 0 0 1-.021.225 1.19 1.19 0 0 1-.024.133 1.19 1.19 0 0 1-.134.024c-.255.035-.615.037-1.243.037H17.96c-.628 0-.989-.002-1.244-.037a1.19 1.19 0 0 1-.133-.024 1.19 1.19 0 0 1-.025-.133c-.034-.255-.036-.616-.036-1.244s.002-.988.036-1.243a1.19 1.19 0 0 1 .025-.134 1.19 1.19 0 0 1 .133-.024c.255-.034.616-.037 1.244-.037h1.266c.628 0 .988.003 1.243.037.063.008.105.017.134.024.007.029.016.071.024.134.026.195.034.452.036.844Zm0-3.183c-.399-.045-.873-.045-1.375-.045h-1.391c-.543 0-1.054 0-1.473.057-.466.062-.977.212-1.4.635-.422.423-.572.934-.635 1.4-.056.419-.056.93-.056 1.473v.125c0 .543 0 1.054.056 1.472.063.466.213.978.635 1.4.423.423.934.573 1.4.636.42.056.93.056 1.473.056h1.391c.378 0 .74 0 1.066-.019-.122.384-.283.637-.482.837-.32.319-.776.54-1.689.662-.944.127-2.2.13-4.022.13H9.098c-1.822 0-3.078-.003-4.023-.13-.913-.122-1.369-.343-1.688-.662-.319-.32-.54-.776-.663-1.689-.127-.944-.129-2.2-.129-4.022v-2.532c0-1.822.002-3.078.13-4.022.122-.913.343-1.37.662-1.689.32-.319.775-.54 1.688-.662.945-.127 2.201-.13 4.023-.13h5.064c1.822 0 3.078.003 4.022.13.913.122 1.37.343 1.689.662.319.32.54.776.662 1.689.127.944.13 2.2.13 4.022v.216ZM5.472 8.065c0-.605.49-1.095 1.094-1.095h2.533a1.094 1.094 0 1 1 0 2.189H6.565c-.604 0-1.094-.49-1.094-1.094Z" clip-rule="evenodd"/>
</svg>
