<svg width="19" height="17" viewBox="0 0 19 17" fill="none" xmlns="http://www.w3.org/2000/svg">
<rect x="12.125" y="8.5" width="5.25" height="3.5" fill="white" fill-opacity="0.25"/>
<path d="M11.4688 1.5H7.53125C4.74702 1.5 3.3549 1.5 2.48995 2.37868C1.625 3.25736 1.625 4.67157 1.625 7.5V9.5C1.625 12.3284 1.625 13.7426 2.48995 14.6213C3.3549 15.5 4.74702 15.5 7.53125 15.5H11.4688C14.253 15.5 15.6451 15.5 16.5101 14.6213C17.375 13.7426 17.375 12.3284 17.375 9.5V7.5C17.375 4.67157 17.375 3.25736 16.5101 2.37868C15.6451 1.5 14.253 1.5 11.4688 1.5Z" stroke="#FF2F00" stroke-width="1.5"/>
<path d="M5.125 5H7.75" stroke="#FF2F00" stroke-width="1.5" stroke-linecap="round"/>
<path d="M15.625 12H13.875C13.1728 12 12.8217 12 12.5694 11.8315C12.4602 11.7585 12.3665 11.6648 12.2935 11.5556C12.125 11.3033 12.125 10.9522 12.125 10.25C12.125 9.54777 12.125 9.19665 12.2935 8.94443C12.3665 8.83524 12.4602 8.74149 12.5694 8.66853C12.8217 8.5 13.1728 8.5 13.875 8.5H15.625C16.3272 8.5 16.6783 8.5 16.9306 8.66853C17.0398 8.74149 17.1335 8.83524 17.2065 8.94443C17.375 9.19665 17.375 9.54777 17.375 10.25C17.375 10.9522 17.375 11.3033 17.2065 11.5556C17.1335 11.6648 17.0398 11.7585 16.9306 11.8315C16.6783 12 16.3272 12 15.625 12Z" stroke="#FF2F00" stroke-width="1.5"/>
</svg>
