<svg width="21" height="21" viewBox="0 0 21 21" fill="none" xmlns="http://www.w3.org/2000/svg">
<rect x="13.125" y="10.5" width="5.25" height="3.5" fill="white" fill-opacity="0.25"/>
<path d="M12.4688 3.5H8.53125C5.74702 3.5 4.3549 3.5 3.48995 4.37868C2.625 5.25736 2.625 6.67157 2.625 9.5V11.5C2.625 14.3284 2.625 15.7426 3.48995 16.6213C4.3549 17.5 5.74702 17.5 8.53125 17.5H12.4688C15.253 17.5 16.6451 17.5 17.5101 16.6213C18.375 15.7426 18.375 14.3284 18.375 11.5V9.5C18.375 6.67157 18.375 5.25736 17.5101 4.37868C16.6451 3.5 15.253 3.5 12.4688 3.5Z" stroke="white" stroke-width="1.5"/>
<path d="M6.125 7H8.75" stroke="white" stroke-width="1.5" stroke-linecap="round"/>
<path d="M16.625 14H14.875C14.1728 14 13.8217 14 13.5694 13.8315C13.4602 13.7585 13.3665 13.6648 13.2935 13.5556C13.125 13.3033 13.125 12.9522 13.125 12.25C13.125 11.5478 13.125 11.1967 13.2935 10.9444C13.3665 10.8352 13.4602 10.7415 13.5694 10.6685C13.8217 10.5 14.1728 10.5 14.875 10.5H16.625C17.3272 10.5 17.6783 10.5 17.9306 10.6685C18.0398 10.7415 18.1335 10.8352 18.2065 10.9444C18.375 11.1967 18.375 11.5478 18.375 12.25C18.375 12.9522 18.375 13.3033 18.2065 13.5556C18.1335 13.6648 18.0398 13.7585 17.9306 13.8315C17.6783 14 17.3272 14 16.625 14Z" stroke="white" stroke-width="1.5"/>
</svg>
