<svg width="13" height="13" viewBox="0 0 13 13" fill="none" xmlns="http://www.w3.org/2000/svg">
<path fill-rule="evenodd" clip-rule="evenodd" d="M11.7535 2.4403C12.0855 2.10835 12.0855 1.57016 11.7535 1.23822C11.4216 0.906271 10.8834 0.906271 10.5515 1.23822L6.00125 5.78844L1.45104 1.23823C1.1191 0.906283 0.580906 0.906283 0.24896 1.23823C-0.0829856 1.57017 -0.0829856 2.10836 0.24896 2.44031L4.79917 6.99052L0.248959 11.5407C-0.0829864 11.8727 -0.0829865 12.4109 0.248959 12.7428C0.580905 13.0748 1.1191 13.0748 1.45104 12.7428L6.00125 8.1926L10.5515 12.7428C10.8834 13.0748 11.4216 13.0748 11.7535 12.7428C12.0855 12.4109 12.0855 11.8727 11.7535 11.5407L7.20333 6.99052L11.7535 2.4403Z" fill="#464F60" fill-opacity="0.6"/>
</svg>
