<svg width="65" height="65" viewBox="0 0 65 65" fill="none" xmlns="http://www.w3.org/2000/svg">
<g clip-path="url(#clip0_83_3161)">
<path d="M5.83984 6.60156H17.5195C17.7216 6.60156 17.9153 6.52131 18.0581 6.37846C18.201 6.23561 18.2812 6.04186 18.2812 5.83984C18.2812 5.63782 18.201 5.44408 18.0581 5.30123C17.9153 5.15838 17.7216 5.07813 17.5195 5.07812H5.83984C5.63782 5.07813 5.44408 5.15838 5.30123 5.30123C5.15838 5.44408 5.07813 5.63782 5.07812 5.83984C5.07813 6.04186 5.15838 6.23561 5.30123 6.37846C5.44408 6.52131 5.63782 6.60156 5.83984 6.60156Z" fill="#464F60"/>
<path d="M63.1021 37.4359L56.9601 33.8965L64.3233 18.1149C64.919 16.833 64.9819 15.3672 64.4983 14.039C64.0147 12.7107 63.0241 11.6285 61.7437 11.0297L50.2734 5.67607V5.33203C50.2714 3.91851 49.709 2.56345 48.7095 1.56394C47.71 0.564428 46.3549 0.00201501 44.9414 0L5.33203 0C3.91851 0.00201501 2.56345 0.564428 1.56394 1.56394C0.564428 2.56345 0.00201501 3.91851 0 5.33203L0 59.668C0.00201501 61.0815 0.564428 62.4365 1.56394 63.4361C2.56345 64.4356 3.91851 64.998 5.33203 65H44.9414C45.8808 65.0002 46.8032 64.7499 47.6138 64.2751C48.1923 64.6073 48.8478 64.7822 49.5149 64.7822C50.182 64.7822 50.8375 64.6073 51.416 64.2751L63.1021 57.5275C63.6806 57.1922 64.161 56.7108 64.4952 56.1316C64.8294 55.5523 65.0056 54.8955 65.0063 54.2268V40.7342C65.0053 40.0659 64.8289 39.4095 64.4947 38.8307C64.1605 38.2519 63.6803 37.771 63.1021 37.4359ZM50.2734 7.36328L61.0962 12.4033C62.0109 12.8315 62.7184 13.6049 63.0637 14.554C63.409 15.5031 63.3639 16.5504 62.9383 17.4662L55.6359 33.1246L51.416 30.6871C51.0604 30.4859 50.6745 30.3436 50.2734 30.2656V7.36328ZM44.9414 63.4766H5.33203C4.83188 63.4766 4.33663 63.3781 3.87455 63.1867C3.41247 62.9953 2.99261 62.7147 2.63895 62.361C2.28529 62.0074 2.00475 61.5875 1.81335 61.1255C1.62195 60.6634 1.52344 60.1681 1.52344 59.668V5.33203C1.52344 4.32193 1.9247 3.3532 2.63895 2.63895C3.3532 1.9247 4.32193 1.52344 5.33203 1.52344H44.9414C45.9515 1.52344 46.9202 1.9247 47.6345 2.63895C48.3487 3.3532 48.75 4.32193 48.75 5.33203V30.2656C48.3488 30.3445 47.9629 30.4877 47.6074 30.6896L45.1953 32.0861V11.9336C45.1953 11.3275 44.9546 10.7463 44.526 10.3177C44.0975 9.88919 43.5162 9.64844 42.9102 9.64844H7.36328C6.75722 9.64844 6.17598 9.88919 5.74743 10.3177C5.31888 10.7463 5.07812 11.3275 5.07812 11.9336V41.3867C5.07812 41.9928 5.31888 42.574 5.74743 43.0026C6.17598 43.4311 6.75722 43.6719 7.36328 43.6719H34.0234V48.75H5.83984C5.63782 48.75 5.44408 48.8303 5.30123 48.9731C5.15838 49.116 5.07812 49.3097 5.07812 49.5117C5.07812 49.7137 5.15838 49.9075 5.30123 50.0503C5.44408 50.1932 5.63782 50.2734 5.83984 50.2734H34.0234V54.2268C34.0259 54.4336 34.045 54.6399 34.0806 54.8438H5.83984C5.63782 54.8438 5.44408 54.924 5.30123 55.0669C5.15838 55.2097 5.07812 55.4035 5.07812 55.6055C5.07812 55.8075 5.15838 56.0012 5.30123 56.1441C5.44408 56.2869 5.63782 56.3672 5.83984 56.3672H34.6861C35.0058 56.8409 35.428 57.2366 35.9214 57.525L45.9697 63.3268C45.6354 63.4234 45.2894 63.4738 44.9414 63.4766ZM43.6719 11.9336V32.9608L35.9277 37.4359C35.3492 37.7713 34.8688 38.2527 34.5346 38.8319C34.2004 39.4112 34.0242 40.068 34.0234 40.7367V42.1484H7.36328C7.16126 42.1484 6.96751 42.0682 6.82466 41.9253C6.68181 41.7825 6.60156 41.5887 6.60156 41.3867V11.9336C6.60156 11.7316 6.68181 11.5378 6.82466 11.395C6.96751 11.2521 7.16126 11.1719 7.36328 11.1719H42.9102C43.1122 11.1719 43.3059 11.2521 43.4488 11.395C43.5916 11.5378 43.6719 11.7316 43.6719 11.9336ZM63.4829 54.2268C63.4825 54.628 63.3768 55.0221 63.1763 55.3697C62.9758 55.7172 62.6875 56.006 62.3403 56.2072L50.6543 62.9535C50.3066 63.1532 49.9127 63.2583 49.5117 63.2583C49.1108 63.2583 48.7168 63.1532 48.3691 62.9535L36.6895 56.206C36.3425 56.0046 36.0543 55.7157 35.8538 55.3682C35.6534 55.0207 35.5475 54.6267 35.5469 54.2255V40.7342C35.5473 40.3329 35.653 39.9388 35.8535 39.5913C36.054 39.2437 36.3423 38.9549 36.6895 38.7537L48.3691 32.0074C48.7168 31.8077 49.1108 31.7026 49.5117 31.7026C49.9127 31.7026 50.3066 31.8077 50.6543 32.0074L62.3403 38.755C62.6873 38.9564 62.9754 39.2452 63.1759 39.5927C63.3764 39.9402 63.4823 40.3343 63.4829 40.7354V54.2268Z" fill="#464F60"/>
<path d="M43.9911 53.7634C43.8281 53.7628 43.669 53.714 43.5337 53.6231C43.3984 53.5322 43.293 53.4034 43.2307 53.2528C43.1684 53.1022 43.1521 52.9365 43.1837 52.7767C43.2153 52.6168 43.2935 52.4698 43.4084 52.3543L54.4533 41.3093C54.5292 41.2299 54.6203 41.1663 54.7212 41.1225C54.822 41.0787 54.9306 41.0555 55.0405 41.0543C55.1505 41.053 55.2596 41.0737 55.3614 41.1152C55.4632 41.1567 55.5557 41.2182 55.6334 41.2959C55.7112 41.3736 55.7726 41.4661 55.8141 41.568C55.8556 41.6698 55.8763 41.7789 55.8751 41.8888C55.8738 41.9987 55.8506 42.1073 55.8068 42.2082C55.763 42.309 55.6995 42.4001 55.62 42.476L44.5751 53.521C44.4985 53.5979 44.4075 53.6589 44.3073 53.7006C44.2071 53.7422 44.0996 53.7635 43.9911 53.7634Z" fill="#464F60"/>
<path d="M55.0325 53.7634C54.924 53.7635 54.8165 53.7422 54.7163 53.7006C54.616 53.6589 54.525 53.5979 54.4485 53.521L43.4036 42.476C43.3241 42.4001 43.2606 42.309 43.2168 42.2082C43.173 42.1073 43.1497 41.9987 43.1485 41.8888C43.1472 41.7789 43.168 41.6698 43.2095 41.568C43.251 41.4661 43.3124 41.3736 43.3901 41.2959C43.4679 41.2182 43.5604 41.1567 43.6622 41.1152C43.764 41.0737 43.8731 41.053 43.983 41.0543C44.093 41.0555 44.2016 41.0787 44.3024 41.1225C44.4033 41.1663 44.4943 41.2299 44.5703 41.3093L55.6152 52.3543C55.7301 52.4698 55.8083 52.6168 55.8399 52.7767C55.8715 52.9365 55.8551 53.1022 55.7929 53.2528C55.7306 53.4034 55.6252 53.5322 55.4899 53.6231C55.3546 53.714 55.1954 53.7628 55.0325 53.7634Z" fill="#464F60"/>
<path d="M31.4156 43.4179C31.3071 43.418 31.1996 43.3966 31.0994 43.355C30.9991 43.3133 30.9081 43.2523 30.8316 43.1754L13.651 25.9935L7.18532 32.4605C7.02855 32.6059 6.82154 32.6849 6.60778 32.6809C6.39401 32.6768 6.19012 32.5901 6.03894 32.4389C5.88776 32.2878 5.80105 32.0839 5.79702 31.8701C5.793 31.6563 5.87197 31.4493 6.01735 31.2926L13.0683 24.2479C13.1449 24.1712 13.2358 24.1103 13.3359 24.0688C13.436 24.0272 13.5433 24.0059 13.6517 24.0059C13.7601 24.0059 13.8674 24.0272 13.9675 24.0688C14.0676 24.1103 14.1585 24.1712 14.235 24.2479L31.9983 42.0061C32.1132 42.1217 32.1914 42.2687 32.223 42.4285C32.2546 42.5884 32.2383 42.7541 32.176 42.9047C32.1137 43.0553 32.0083 43.1841 31.873 43.275C31.7377 43.3658 31.5786 43.4147 31.4156 43.4153V43.4179Z" fill="#464F60"/>
<path d="M43.3841 34.074C43.2758 34.074 43.1685 34.0525 43.0685 34.0109C42.9685 33.9693 42.8777 33.9084 42.8014 33.8316L31.4657 22.4972L21.6764 32.2865C21.5215 32.4413 21.3115 32.5281 21.0926 32.528C20.8736 32.5279 20.6637 32.4408 20.509 32.2859C20.3543 32.131 20.2675 31.921 20.2676 31.7021C20.2677 31.4832 20.3548 31.2733 20.5097 31.1186L30.883 20.7465C30.9594 20.6696 31.0503 20.6086 31.1505 20.567C31.2506 20.5253 31.3579 20.5039 31.4663 20.5039C31.5748 20.5039 31.6821 20.5253 31.7822 20.567C31.8824 20.6086 31.9732 20.6696 32.0497 20.7465L43.9681 32.6649C44.083 32.7805 44.1612 32.9276 44.1928 33.0876C44.2244 33.2476 44.2079 33.4133 44.1455 33.564C44.083 33.7146 43.9774 33.8435 43.8419 33.9342C43.7065 34.025 43.5471 34.0736 43.3841 34.074Z" fill="#464F60"/>
<path d="M17.0797 22.1545C16.3635 22.1545 15.6635 21.9421 15.068 21.5442C14.4726 21.1463 14.0085 20.5808 13.7345 19.9191C13.4605 19.2574 13.3888 18.5293 13.5286 17.827C13.6685 17.1246 14.0134 16.4794 14.5199 15.9731C15.0264 15.4668 15.6717 15.1221 16.3741 14.9825C17.0765 14.8429 17.8046 14.9148 18.4662 15.1891C19.1277 15.4633 19.6931 15.9276 20.0908 16.5232C20.4885 17.1187 20.7006 17.8189 20.7004 18.5351C20.699 19.4948 20.3171 20.4148 19.6383 21.0934C18.9596 21.7719 18.0394 22.1535 17.0797 22.1545ZM17.0797 16.5686C16.6898 16.5686 16.3087 16.6842 15.9846 16.9009C15.6605 17.1175 15.408 17.4255 15.259 17.7857C15.11 18.146 15.0712 18.5424 15.1475 18.9247C15.2239 19.307 15.4119 19.658 15.6878 19.9334C15.9638 20.2088 16.3152 20.3962 16.6976 20.4718C17.0801 20.5474 17.4764 20.5078 17.8363 20.3581C18.1963 20.2084 18.5038 19.9553 18.7198 19.6307C18.9358 19.3062 19.0508 18.9249 19.05 18.5351C19.05 18.0124 18.8425 17.5111 18.473 17.1414C18.1035 16.7717 17.6024 16.5638 17.0797 16.5635V16.5686Z" fill="#464F60"/>
</g>
<defs>
<clipPath id="clip0_83_3161">
<rect width="65" height="65" fill="white"/>
</clipPath>
</defs>
</svg>
