<svg xmlns="http://www.w3.org/2000/svg" width="68" height="68" fill="none" viewBox="0 0 68 68">
  <g clip-path="url(#a)">
    <path fill="url(#b)" d="M66.83 40.603a1.317 1.317 0 0 0-1.13-.637h-.236L55.928 18.82h2.233a2.727 2.727 0 0 0 2.714-2.732 2.726 2.726 0 0 0-2.715-2.732H36.45V9.76a5.335 5.335 0 0 0 2.358-4.432C38.808 2.391 36.433 0 33.514 0c-2.918 0-5.293 2.39-5.293 5.328 0 1.847.936 3.475 2.357 4.432v3.597H8.867a2.727 2.727 0 0 0-2.714 2.732 2.727 2.727 0 0 0 2.714 2.732h2.232L1.565 39.966h-.236c-.465 0-.888.238-1.131.637a1.335 1.335 0 0 0-.051 1.305l1.723 3.414a3.874 3.874 0 0 0 3.47 2.144h15.248a3.87 3.87 0 0 0 3.47-2.144l1.723-3.414a1.336 1.336 0 0 0-.051-1.305 1.315 1.315 0 0 0-1.133-.637h-.236L14.827 18.82h15.75v37.275h-7.16c-1.758 0-3.188 1.44-3.188 3.208v1.744h-1.586c-1.758 0-3.188 1.44-3.188 3.209V67c0 .552.444 1 .993 1h34.13a.997.997 0 0 0 .994-1v-2.744c0-1.769-1.43-3.209-3.187-3.209h-1.586v-1.744c0-1.769-1.43-3.208-3.188-3.208h-7.16V27.23c0-.553-.446-1-.994-1a.997.997 0 0 0-.994 1v28.864h-1.901V17.82c0-.553-.445-1-.994-1H8.867a.73.73 0 0 1-.727-.732.73.73 0 0 1 .727-.732H31.57a.997.997 0 0 0 .993-1v-3.784c.037.007.075.012.112.018l.057.009c.064.01.128.017.193.025l.071.008.182.015c.027 0 .053.004.08.005.076.004.152.005.228.005h.058c.075 0 .151-.002.227-.005l.08-.005c.06-.004.122-.008.182-.015l.071-.008c.065-.007.128-.015.192-.024.018-.003.038-.005.056-.01l.113-.016v3.783c0 .553.444 1 .993 1h22.704a.731.731 0 0 1 0 1.464H35.461a.997.997 0 0 0-.994 1v4.672c0 .553.445 1 .994 1a.997.997 0 0 0 .993-1v-3.672h15.75L42.67 39.967h-.236a1.335 1.335 0 0 0-1.184 1.942l1.723 3.415a3.874 3.874 0 0 0 3.47 2.143H61.69a3.87 3.87 0 0 0 3.47-2.143l1.724-3.415a1.332 1.332 0 0 0-.053-1.304v-.002ZM43.61 58.095c.663 0 1.203.543 1.203 1.21v1.744H29.619a.997.997 0 0 0-.993 1c0 .552.444 1 .993 1h18.766c.662 0 1.202.543 1.202 1.21v1.743H17.442V64.26c0-.667.54-1.21 1.202-1.21h6.366a.997.997 0 0 0 .994-1c0-.553-.445-1-.994-1h-2.794v-1.744c0-.667.54-1.21 1.202-1.21h20.194-.001ZM22.288 44.417a1.895 1.895 0 0 1-1.7 1.049H5.34a1.896 1.896 0 0 1-1.7-1.05l-1.237-2.451h21.122l-1.238 2.451Zm-.094-4.451H3.733l9.23-20.47 9.23 20.469ZM34.982 8.313l-.11.052-.055.025a3.538 3.538 0 0 1-.328.12l-.096.029-.072.02-.1.023-.075.016-.099.018a12.12 12.12 0 0 0-.081.011l-.093.012-.103.01-.074.005a2.775 2.775 0 0 1-.364 0l-.074-.005-.103-.01-.092-.011a12.12 12.12 0 0 1-.082-.012l-.099-.018-.074-.016c-.033-.008-.067-.014-.1-.024l-.072-.02c-.032-.009-.065-.017-.097-.027l-.104-.035c-.033-.012-.065-.022-.098-.036l-.125-.05c-.019-.008-.037-.018-.055-.025l-.11-.052a3.336 3.336 0 0 1-1.84-2.983c0-1.837 1.484-3.33 3.307-3.33 1.824 0 3.308 1.494 3.308 3.33 0 1.305-.75 2.438-1.84 2.983Zm19.083 11.184 9.23 20.468H44.834l9.23-20.468Zm9.323 24.918a1.895 1.895 0 0 1-1.7 1.05H46.442a1.896 1.896 0 0 1-1.7-1.05l-1.237-2.452h21.123l-1.237 2.452h-.002Z"/>
  </g>
  <defs>
    <linearGradient id="b" x1=".001" x2="52.367" y1="33.209" y2="33.209" gradientUnits="userSpaceOnUse">
      <stop stop-color="#FF2F00"/>
      <stop offset="1" stop-color="#FC6825"/>
    </linearGradient>
    <clipPath id="a">
      <path fill="#fff" d="M0 0h67.029v68H0z"/>
    </clipPath>
  </defs>
</svg>
