<svg xmlns="http://www.w3.org/2000/svg" width="55" height="52" fill="none" viewBox="0 0 55 52">
  <path fill="#464F60" d="M52.07 12.893h-5.407c-1.616 0-2.93 1.33-2.93 2.964v6.102c0 .45.36.816.805.816a.81.81 0 0 0 .806-.816v-6.102c0-.736.592-1.334 1.319-1.334h5.406c.728 0 1.32.598 1.32 1.334v33.178c0 .736-.592 1.335-1.32 1.335h-5.406c-.727 0-1.32-.6-1.32-1.335v-23.84a.81.81 0 0 0-.805-.814.81.81 0 0 0-.806.814v23.84c0 1.635 1.315 2.965 2.93 2.965h5.407c1.616 0 2.93-1.33 2.93-2.965V15.858c0-1.634-1.314-2.964-2.93-2.964v-.001ZM2.93 52h5.407c1.616 0 2.93-1.33 2.93-2.964V31.904c0-1.634-1.314-2.965-2.93-2.965H2.93C1.315 28.94 0 30.27 0 31.904v17.132C0 50.67 1.315 52 2.93 52ZM1.611 31.903c0-.736.592-1.335 1.32-1.335h5.406c.727 0 1.32.6 1.32 1.335v17.132a1.33 1.33 0 0 1-1.32 1.334H2.93a1.329 1.329 0 0 1-1.319-1.334V31.903Zm13.772 10.789a.81.81 0 0 0-.806.815v5.529c0 1.634 1.315 2.964 2.93 2.964h5.407c1.616 0 2.93-1.33 2.93-2.964v-22.48c0-1.635-1.314-2.965-2.93-2.965h-5.406c-1.616 0-2.93 1.33-2.93 2.964v13.706c0 .45.36.815.805.815a.81.81 0 0 0 .806-.815V26.555c0-.735.591-1.334 1.319-1.334h5.406c.727 0 1.32.599 1.32 1.334v22.48a1.33 1.33 0 0 1-1.32 1.335h-5.406c-.728 0-1.32-.599-1.32-1.334v-5.53a.81.81 0 0 0-.805-.814Zm22.109-24.451h-5.406c-1.616 0-2.93 1.33-2.93 2.965v27.83c0 1.634 1.314 2.964 2.93 2.964h5.406c1.616 0 2.93-1.33 2.93-2.965V21.207c0-1.635-1.314-2.965-2.93-2.965Zm1.32 30.794a1.33 1.33 0 0 1-1.32 1.335h-5.406a1.33 1.33 0 0 1-1.32-1.334v-27.83a1.33 1.33 0 0 1 1.32-1.334h5.406c.727 0 1.32.599 1.32 1.335v27.828Zm3.393-45.912c.286-1.814-1.26-3.377-3.053-3.088l-10.17 1.637c-1.287.208-1.799 1.805-.877 2.737l.85.86c-5.687 3.692-12.561 5.74-19.415 5.11a2.33 2.33 0 0 0-2.477 1.837l-.362 1.674a2.34 2.34 0 0 0 1.7 2.781c9.442 2.4 19.577.572 27.94-3.931l1.542 1.559c.922.932 2.501.414 2.706-.888l1.62-10.287-.004-.001Zm-3.206 10.002-1.946-1.969a.799.799 0 0 0-.958-.138C27.925 15.57 17.957 17.42 8.79 15.09a.716.716 0 0 1-.518-.85l.362-1.675a.713.713 0 0 1 .758-.562c7.498.688 15.082-1.646 21.281-5.932a.82.82 0 0 0 .115-1.249l-1.525-1.544 10.142-1.633a1.061 1.061 0 0 1 1.208 1.222L39 13.127v-.002Z"/>
</svg>
