<svg width="77" height="76" viewBox="0 0 77 76" fill="none" xmlns="http://www.w3.org/2000/svg">
<path d="M54.226 59.7588C61.1742 59.7588 66.8068 54.1262 66.8068 47.178C66.8068 40.2298 61.1742 34.5972 54.226 34.5972H54.1555C54.2021 34.0793 54.226 33.5547 54.226 33.0246C54.226 23.4709 46.4811 15.726 36.9274 15.726C27.3736 15.726 19.6288 23.4709 19.6288 33.0246C19.6288 33.0395 19.6288 33.0544 19.6288 33.0693C13.4761 34.3182 8.84521 39.7578 8.84521 46.2791C8.84521 53.7236 14.8802 59.7585 22.3247 59.7585" stroke="#FF2F00" stroke-width="4" stroke-linecap="round" stroke-linejoin="round"/>
<path d="M38.5 59.7588L38.5 44.0328M38.5 44.0328L44.7904 50.3232M38.5 44.0328L32.2096 50.3232" stroke="#FF2F00" stroke-width="4" stroke-linecap="round" stroke-linejoin="round"/>
</svg>
