<svg width="169" height="169" viewBox="0 0 169 169" fill="none" xmlns="http://www.w3.org/2000/svg">
<path d="M168.374 84.5C168.374 38.1668 130.814 0.606394 84.4805 0.606396C38.1473 0.606398 0.586908 38.1668 0.58691 84.5C0.586912 130.833 38.1474 168.394 84.4805 168.394C130.814 168.394 168.374 130.833 168.374 84.5Z" fill="#FF5A54"/>
<path fill-rule="evenodd" clip-rule="evenodd" d="M164.349 110.33C153.79 142.992 123.751 166.892 87.9244 168.331L41.3928 121.799C39.9909 120.649 38.7826 119.235 37.838 117.599C35.0866 112.835 35.0866 107.09 37.838 102.327L71.2753 44.4081C74.025 39.6479 79.0027 36.7744 84.5007 36.7744C88.968 36.7744 93.0917 38.6714 95.9553 41.936L164.349 110.33Z" fill="#DB3A3C"/>
<path fill-rule="evenodd" clip-rule="evenodd" d="M84.5007 91.8547C86.6525 91.8547 88.4191 90.1521 88.4964 88.0009L89.5071 60.0168C89.5882 57.7401 87.7902 55.8743 85.5114 55.8743C84.0822 55.8743 84.9185 55.8743 83.4893 55.8743C81.2116 55.8743 79.4125 57.7401 79.4946 60.0168L80.505 88.0009C80.5823 90.1517 82.3489 91.8547 84.5007 91.8547ZM84.5007 100.997C81.672 100.997 79.3782 103.289 79.3782 106.117C79.3782 108.945 81.672 111.24 84.5007 111.24C87.3283 111.24 89.6204 108.945 89.6204 106.117C89.6204 103.289 87.3287 100.997 84.5007 100.997ZM97.7254 44.4081L131.164 102.327C133.914 107.09 133.914 112.835 131.164 117.598C128.415 122.36 123.438 125.232 117.94 125.232H51.0606C45.5623 125.232 40.5866 122.359 37.838 117.598C35.0866 112.835 35.0866 107.09 37.838 102.327L71.2753 44.4081C74.025 39.6479 79.0027 36.7744 84.5007 36.7744C89.999 36.7741 94.9767 39.6475 97.7254 44.4081Z" fill="white"/>
</svg>
