<svg width="35" height="22" viewBox="0 0 35 22" fill="none" xmlns="http://www.w3.org/2000/svg">
<g clip-path="url(#clip0_2659_7673)">
<path d="M7.1683 4.29888C12.8746 -1.37892 22.1264 -1.37892 27.8327 4.29888L28.5194 4.98221C28.8048 5.2661 28.8048 5.72637 28.5194 6.01026L26.1702 8.34781C26.0275 8.48975 25.7962 8.48975 25.6536 8.34781L24.7085 7.40746C20.7276 3.44649 14.2734 3.44649 10.2925 7.40746L9.28041 8.41449C9.13775 8.55644 8.90646 8.55644 8.7638 8.41449L6.41452 6.07695C6.1292 5.79306 6.1292 5.33278 6.41452 5.04889L7.1683 4.29888ZM32.6912 9.13316L34.7821 11.2136C35.0674 11.4975 35.0674 11.9577 34.7821 12.2416L25.3542 21.6225C25.0689 21.9064 24.6063 21.9064 24.321 21.6225C24.321 21.6225 24.321 21.6225 24.321 21.6225L17.6297 14.9646C17.5584 14.8937 17.4427 14.8937 17.3714 14.9646C17.3714 14.9646 17.3714 14.9646 17.3714 14.9646L10.6802 21.6225C10.3949 21.9064 9.93231 21.9064 9.64699 21.6225C9.64699 21.6225 9.64699 21.6225 9.64699 21.6225L0.218869 12.2415C-0.066446 11.9576 -0.066446 11.4974 0.218869 11.2135L2.30974 9.13304C2.59505 8.84915 3.05764 8.84915 3.34296 9.13304L10.0344 15.791C10.1057 15.862 10.2213 15.862 10.2927 15.791C10.2927 15.791 10.2927 15.791 10.2927 15.791L16.9838 9.13304C17.2691 8.84914 17.7317 8.84913 18.017 9.13302C18.017 9.13302 18.017 9.13303 18.017 9.13303L24.7084 15.791C24.7797 15.862 24.8954 15.862 24.9667 15.791L31.658 9.13316C31.9433 8.84927 32.4059 8.84927 32.6912 9.13316Z" fill="#3B99FC"/>
</g>
<defs>
<clipPath id="clip0_2659_7673">
<rect width="35" height="21.875" fill="white"/>
</clipPath>
</defs>
</svg>
