<svg width="171" height="171" viewBox="0 0 171 171" fill="none" xmlns="http://www.w3.org/2000/svg">
<path d="M85.5 171C132.72 171 171 132.72 171 85.5C171 38.2797 132.72 0 85.5 0C38.2797 0 0 38.2797 0 85.5C0 132.72 38.2797 171 85.5 171Z" fill="#78CAEF"/>
<path d="M158.59 76.4124V129.887C158.59 129.89 158.587 129.89 158.587 129.894C154.469 136.657 149.44 142.803 143.672 148.159C141.599 150.086 139.428 151.911 137.17 153.624C134.738 155.471 132.204 157.191 129.577 158.775C125.075 161.49 120.304 163.801 115.31 165.657C106.027 169.112 95.9837 171 85.5003 171C65.4863 171 47.0777 164.121 32.5077 152.602C28.5433 149.464 24.8614 145.985 21.5149 142.205C18.1263 138.388 15.0764 134.266 12.4102 129.886V76.4121H158.59V76.4124Z" fill="#FFD15C"/>
<path d="M158.588 93.2491H29.2427C19.9449 93.2491 12.4072 85.7114 12.4072 76.4136C12.4072 67.1158 19.9449 59.5781 29.2427 59.5781H149.44C154.492 59.5781 158.588 63.6741 158.588 68.7266V93.2491Z" fill="#EDBB4C"/>
<path d="M29.2424 85.2222C24.3853 85.2222 20.4336 81.2708 20.4336 76.4133C20.4336 71.5559 24.385 67.6045 29.2424 67.6045H158.588V85.2222H29.2424Z" fill="#5C5E70"/>
<path d="M158.587 126.404V129.894C154.469 136.657 149.44 142.803 143.672 148.16C141.599 150.086 139.428 151.911 137.17 153.625C134.738 155.471 132.204 157.191 129.577 158.776C125.075 161.491 120.304 163.801 115.31 165.657C111.384 161.487 108.983 155.872 108.983 149.699C108.983 136.835 119.411 126.404 132.278 126.404H158.587Z" fill="#EDBB4C"/>
<path d="M143.671 148.16C141.598 150.086 139.427 151.911 137.17 153.625C134.737 155.471 132.204 157.191 129.576 158.776C126.153 157.188 123.779 153.719 123.779 149.699C123.779 144.171 128.26 139.693 133.784 139.693C138.789 139.693 142.931 143.365 143.671 148.16Z" fill="#F4A14E"/>
<path d="M30.4385 85.2219C30.4385 85.2219 30.4385 82.1369 30.4385 77.2798C30.4385 72.4226 30.4385 59.6621 30.4385 59.6621H114.78V85.2219H30.4385Z" fill="#4BC999"/>
<path d="M30.4385 60.8877C30.4385 55.3459 34.9309 50.8535 40.4727 50.8535H114.78V70.9223H40.4727C34.9309 70.9216 30.4385 66.4292 30.4385 60.8877Z" fill="#41B787"/>
<path d="M99.1164 40.0678V3.50483C99.1164 1.56939 97.547 0 95.6112 0H75.3881C73.4524 0 71.8833 1.56939 71.8833 3.50483V40.0674C71.8833 42.0032 70.3139 43.5723 68.3785 43.5723C65.5216 43.5723 63.8647 46.8066 65.5339 49.1251L82.6553 72.9061C84.054 74.8489 86.9453 74.8489 88.344 72.9061L105.465 49.1251C107.135 46.8066 105.478 43.5723 102.621 43.5723C100.685 43.5726 99.1164 42.0035 99.1164 40.0678Z" fill="#FF525D"/>
<path d="M123.622 70.9238H55.6865V85.2237H123.622V70.9238Z" fill="#4BC999"/>
</svg>
