<svg xmlns="http://www.w3.org/2000/svg" width="72" height="64" fill="none" viewBox="0 0 72 64">
  <g clip-path="url(#a)">
    <path fill="#CCD2E3" d="M61.085 64h7.077A3.837 3.837 0 0 0 72 60.172V24.35a3.837 3.837 0 0 0-3.837-3.828h-7.077a3.837 3.837 0 0 0-3.837 3.828v7.63a1.054 1.054 0 0 0 2.11 0v-7.63c0-.95.775-1.723 1.727-1.723h7.077c.953 0 1.727.773 1.727 1.723v35.82c0 .95-.774 1.723-1.727 1.723h-7.077a1.727 1.727 0 0 1-1.727-1.723V36.189a1.054 1.054 0 0 0-2.11 0v23.982a3.837 3.837 0 0 0 3.837 3.827V64ZM3.836 64h7.078a3.837 3.837 0 0 0 3.836-3.827v-22.12a3.837 3.837 0 0 0-3.836-3.827H3.836A3.837 3.837 0 0 0 0 38.053v12.368a1.054 1.054 0 0 0 2.11 0V38.053c0-.95.774-1.723 1.726-1.723h7.078c.952 0 1.727.773 1.727 1.723v22.12c0 .95-.775 1.723-1.727 1.723H3.836a1.727 1.727 0 0 1-1.727-1.723v-5.545a1.054 1.054 0 0 0-2.109 0v5.545A3.837 3.837 0 0 0 3.836 64Zm19.083-39.488a3.837 3.837 0 0 0-3.836 3.827v31.832a3.837 3.837 0 0 0 3.836 3.827h7.078a3.837 3.837 0 0 0 3.836-3.827V28.339a3.837 3.837 0 0 0-3.836-3.827h-7.078Zm8.806 3.827v31.832c0 .95-.775 1.723-1.727 1.723H22.92a1.727 1.727 0 0 1-1.727-1.723V28.339c0-.95.775-1.723 1.727-1.723h7.078c.952 0 1.727.773 1.727 1.723Zm10.277 1.894a3.837 3.837 0 0 0-3.837 3.828v26.11a3.837 3.837 0 0 0 3.837 3.827h7.077a3.837 3.837 0 0 0 3.837-3.827v-26.11a3.837 3.837 0 0 0-3.837-3.828h-7.077Zm8.806 3.828v26.11c0 .95-.775 1.723-1.727 1.723h-7.078a1.727 1.727 0 0 1-1.727-1.723v-26.11c0-.95.775-1.723 1.727-1.723h7.078c.952 0 1.727.773 1.727 1.723Z"/>
    <path fill="#CCD2E3" d="M70.348 8.184c0-3.149-2.568-5.71-5.724-5.71-3.155 0-5.487 2.334-5.705 5.285l-10.77 6.033a5.708 5.708 0 0 0-4.73-.22L32.18 5.817C32.24 2.608 29.64 0 26.46 0c-3.181 0-5.818 2.649-5.72 5.884L9.434 13.88c-3.744-1.447-7.783 1.33-7.783 5.325 0 3.149 2.568 5.71 5.723 5.71 3.156 0 5.818-2.648 5.72-5.885l11.303-7.994a5.71 5.71 0 0 0 4.182-.026l11.24 7.753c-.06 3.213 2.543 5.819 5.72 5.819a5.726 5.726 0 0 0 5.707-5.287l10.771-6.033c3.776 1.937 8.33-.802 8.33-5.08v.003Zm-5.724-3.606a3.614 3.614 0 0 1 3.614 3.606 3.614 3.614 0 0 1-3.614 3.606c-1.992 0-3.614-1.638-3.614-3.606a3.614 3.614 0 0 1 3.614-3.606ZM7.376 22.81a3.614 3.614 0 0 1-3.614-3.605c0-3.375 4.318-4.95 6.463-2.214 1.836 2.351.162 5.82-2.85 5.82ZM22.48 9.813l-9.907 7.005a5.818 5.818 0 0 0-1.22-1.716l9.907-7.005a5.829 5.829 0 0 0 1.22 1.716Zm.613-2.79c-.928-2.357.824-4.92 3.366-4.92a3.614 3.614 0 0 1 3.614 3.606c0 2.1-1.724 3.075-1.596 2.99a3.618 3.618 0 0 1-5.384-1.677Zm17.223 9.523-9.831-6.781a5.82 5.82 0 0 0 1.2-1.731l9.83 6.78a5.827 5.827 0 0 0-1.2 1.732Zm5.225 5.93c-2.174 0-3.878-1.916-3.579-4.095.438-3.221 4.756-4.341 6.622-1.45.58.904.57 1.802.567 1.788a3.611 3.611 0 0 1-3.61 3.757Zm5.42-5.435a5.754 5.754 0 0 0-1.034-1.835l9.276-5.195a5.765 5.765 0 0 0 1.034 1.835L50.96 17.04Z"/>
  </g>
  <defs>
    <clipPath id="a">
      <path fill="#fff" d="M0 0h72v64H0z"/>
    </clipPath>
  </defs>
</svg>
