<svg width="74" height="74" viewBox="0 0 74 74" fill="none" xmlns="http://www.w3.org/2000/svg">
<path d="M52.4125 58.4873C59.2129 58.4873 64.7257 52.9745 64.7257 46.1742C64.7257 39.3738 59.2129 33.8611 52.4125 33.8611H52.3435C52.3892 33.3541 52.4125 32.8407 52.4125 32.3219C52.4125 22.9714 44.8325 15.3914 35.482 15.3914C26.1315 15.3914 18.5514 22.9714 18.5514 32.3219C18.5514 32.3365 18.5515 32.351 18.5515 32.3656C12.5297 33.5879 7.99731 38.9118 7.99731 45.2944C7.99731 52.5804 13.9039 58.487 21.19 58.487" stroke="white" stroke-width="4" stroke-linecap="round" stroke-linejoin="round"/>
<path d="M37.0212 58.4873L37.0212 43.0959M37.0212 43.0959L43.1777 49.2525M37.0212 43.0959L30.8646 49.2525" stroke="white" stroke-width="4" stroke-linecap="round" stroke-linejoin="round"/>
</svg>
