<svg xmlns="http://www.w3.org/2000/svg" width="55" height="47" fill="none" viewBox="0 0 55 47">
  <path fill="#464F60" d="M46.662 47h5.407c1.615 0 2.93-1.262 2.93-2.811V17.88c0-1.55-1.315-2.81-2.93-2.81h-5.407c-1.616 0-2.93 1.26-2.93 2.81v5.604c0 .427.36.773.805.773.445 0 .806-.346.806-.773V17.88c0-.698.592-1.265 1.319-1.265h5.407c.727 0 1.319.567 1.319 1.265v26.307c0 .697-.592 1.265-1.32 1.265h-5.406c-.727 0-1.32-.568-1.32-1.265V26.576c0-.426-.36-.773-.805-.773-.445 0-.806.347-.806.773v17.612c0 1.55 1.315 2.81 2.93 2.81V47ZM2.93 47h5.407c1.616 0 2.93-1.261 2.93-2.811V27.945c0-1.55-1.314-2.811-2.93-2.811H2.93c-1.615 0-2.93 1.26-2.93 2.81v9.083c0 .427.36.773.806.773.444 0 .805-.346.805-.773v-9.082c0-.698.592-1.266 1.32-1.266h5.406c.727 0 1.32.568 1.32 1.266v16.244c0 .697-.593 1.265-1.32 1.265H2.93c-.727 0-1.319-.568-1.319-1.265v-4.072c0-.427-.36-.773-.805-.773-.445 0-.806.345-.806.773v4.072c0 1.55 1.315 2.81 2.93 2.81Zm14.578-28.999c-1.616 0-2.93 1.261-2.93 2.81v23.377c0 1.55 1.314 2.81 2.93 2.81h5.406c1.616 0 2.93-1.26 2.93-2.81V20.812c0-1.55-1.314-2.811-2.93-2.811h-5.406Zm6.726 2.81v23.377c0 .698-.592 1.265-1.319 1.265H17.51c-.728 0-1.32-.567-1.32-1.265V20.812c0-.698.592-1.265 1.32-1.265h5.406c.727 0 1.32.567 1.32 1.265Zm7.851 1.392c-1.616 0-2.93 1.261-2.93 2.81v19.175c0 1.55 1.314 2.811 2.93 2.811h5.406c1.616 0 2.93-1.26 2.93-2.81V25.013c0-1.55-1.314-2.81-2.93-2.81h-5.406Zm6.727 2.81v19.175c0 .698-.592 1.266-1.32 1.266h-5.406c-.727 0-1.32-.568-1.32-1.266V25.014c0-.698.593-1.265 1.32-1.265h5.406c.728 0 1.32.567 1.32 1.265Z"/>
  <path fill="#464F60" d="M53.738 6.01c0-2.312-1.962-4.194-4.372-4.194s-4.192 1.715-4.358 3.882l-8.228 4.43a4.52 4.52 0 0 0-3.612-.162L24.58 4.273C24.628 1.915 22.641 0 20.211 0s-4.443 1.945-4.368 4.321l-8.636 5.871c-2.86-1.062-5.946.977-5.946 3.911 0 2.312 1.962 4.194 4.372 4.194s4.444-1.945 4.37-4.322l8.634-5.871a4.522 4.522 0 0 0 3.194-.019l8.587 5.694c-.046 2.36 1.942 4.273 4.37 4.273 2.3 0 4.191-1.715 4.359-3.883l8.227-4.43c2.884 1.422 6.364-.59 6.364-3.731v.002Zm-4.372-2.648c1.522 0 2.76 1.188 2.76 2.648 0 1.46-1.238 2.648-2.76 2.648-1.522 0-2.76-1.202-2.76-2.648 0-1.46 1.238-2.648 2.76-2.648ZM5.634 16.752c-1.522 0-2.76-1.189-2.76-2.649 0-2.478 3.299-3.635 4.937-1.626 1.403 1.727.123 4.274-2.177 4.274Zm11.539-9.546-7.568 5.145a4.28 4.28 0 0 0-.933-1.26l7.568-5.145c.23.475.554.909.933 1.26Zm.468-2.05c-.71-1.73.63-3.612 2.57-3.612 1.523 0 2.761 1.188 2.761 2.648 0 1.543-1.317 2.259-1.219 2.196-1.454.943-3.462.355-4.112-1.231Zm13.156 6.995-7.51-4.98a4.26 4.26 0 0 0 .916-1.271l7.51 4.98c-.376.358-.697.8-.916 1.27Zm3.992 4.355c-1.661 0-2.963-1.407-2.734-3.008.334-2.365 3.633-3.187 5.058-1.065.443.665.435 1.324.433 1.314.067 1.51-1.197 2.759-2.757 2.759Zm4.14-3.992a4.185 4.185 0 0 0-.79-1.347l7.086-3.816c.18.506.452.96.79 1.348l-7.086 3.816Z"/>
</svg>
