<svg xmlns="http://www.w3.org/2000/svg" width="72" height="68" fill="none" viewBox="0 0 72 68">
  <g clip-path="url(#a)">
    <path fill="#CCD2E3" d="M68.164 16.86h-7.078c-2.115 0-3.836 1.74-3.836 3.877v7.98a1.06 1.06 0 0 0 1.054 1.066 1.06 1.06 0 0 0 1.055-1.066v-7.98c0-.962.775-1.745 1.727-1.745h7.078c.952 0 1.727.783 1.727 1.745v43.387c0 .962-.775 1.745-1.727 1.745h-7.078a1.738 1.738 0 0 1-1.727-1.745V32.949a1.06 1.06 0 0 0-1.055-1.066 1.06 1.06 0 0 0-1.054 1.066v31.175c0 2.136 1.72 3.876 3.836 3.876h7.078C70.279 68 72 66.261 72 64.124V20.738c0-2.137-1.721-3.876-3.836-3.876v-.002ZM3.836 68h7.078c2.115 0 3.836-1.74 3.836-3.876V41.72c0-2.137-1.721-3.876-3.836-3.876H3.836C1.721 37.844 0 39.583 0 41.72v22.404C0 66.26 1.721 68 3.836 68ZM2.11 41.719c0-.962.775-1.745 1.727-1.745h7.078c.952 0 1.727.783 1.727 1.745v22.403c0 .962-.775 1.745-1.727 1.745H3.836a1.738 1.738 0 0 1-1.727-1.745V41.72Zm18.027 14.109a1.06 1.06 0 0 0-1.054 1.066v7.23c0 2.137 1.721 3.876 3.836 3.876h7.078c2.115 0 3.836-1.74 3.836-3.876V34.726c0-2.137-1.721-3.876-3.836-3.876h-7.078c-2.115 0-3.836 1.739-3.836 3.876V52.65a1.06 1.06 0 0 0 1.055 1.066 1.06 1.06 0 0 0 1.054-1.066V34.726c0-.962.775-1.745 1.727-1.745h7.078c.952 0 1.727.783 1.727 1.745v29.398c0 .962-.775 1.745-1.727 1.745h-7.078a1.738 1.738 0 0 1-1.727-1.745v-7.23a1.06 1.06 0 0 0-1.055-1.066ZM49.08 23.855h-7.077c-2.115 0-3.836 1.739-3.836 3.876v36.393c0 2.137 1.721 3.876 3.836 3.876h7.078c2.115 0 3.836-1.739 3.836-3.876V27.732c0-2.137-1.721-3.876-3.836-3.876v-.002Zm1.728 40.269c0 .962-.775 1.745-1.727 1.745h-7.078a1.738 1.738 0 0 1-1.727-1.745V27.732c0-.962.775-1.745 1.727-1.745h7.078c.952 0 1.727.783 1.727 1.745v36.392Zm4.442-60.04c.374-2.372-1.65-4.417-3.996-4.039L37.94 2.187c-1.685.271-2.356 2.36-1.15 3.58l1.113 1.123c-7.445 4.829-16.443 7.506-25.415 6.683-1.522-.14-2.917.894-3.243 2.402l-.474 2.19c-.353 1.632.625 3.23 2.226 3.636 12.36 3.139 25.628.747 36.577-5.141l2.018 2.039c1.206 1.219 3.274.541 3.542-1.161l2.12-13.453-.005-.001Zm-4.196 13.08-2.548-2.575a1.047 1.047 0 0 0-1.255-.18c-10.695 5.95-23.744 8.37-35.742 5.324a.936.936 0 0 1-.68-1.113l.474-2.19a.933.933 0 0 1 .993-.734c9.816.9 19.744-2.153 27.86-7.757a1.072 1.072 0 0 0 .15-1.633l-1.997-2.02 13.277-2.135c.929-.149 1.73.66 1.581 1.599l-2.113 13.415v-.001Z"/>
  </g>
  <defs>
    <clipPath id="a">
      <path fill="#fff" d="M0 0h72v68H0z"/>
    </clipPath>
  </defs>
</svg>
