<svg width="171" height="171" viewBox="0 0 171 171" fill="none" xmlns="http://www.w3.org/2000/svg">
<g clip-path="url(#clip0_374_2841)">
<path d="M170.998 84.854C171.346 131.88 133.303 170.579 86.2781 170.997C53.0867 171.292 24.2155 152.673 9.79068 125.265C7.76139 121.409 10.5702 116.776 14.9277 116.776H33.1392C87.3435 116.776 131.285 72.8349 131.285 18.6305C131.285 16.3217 133.907 14.9757 135.774 16.3347C156.962 31.7618 170.79 56.6881 170.998 84.854Z" fill="#FF9F22"/>
<path d="M129.751 111.747V148.546C129.751 149.468 129.004 150.216 128.081 150.216H29.6225C21.5625 143.25 14.8173 134.805 9.80958 125.301C7.7696 121.43 10.5514 116.776 14.9276 116.776H33.1391C44.0082 116.776 54.465 115.009 64.2373 111.747H129.751V111.747Z" fill="#DD7D00"/>
<path d="M134.763 134.762H31.7383C30.8162 134.762 30.0684 134.015 30.0684 133.093V85.4527C30.0684 46.2008 59.5575 13.2202 98.5625 8.82697C110.247 7.51108 124.716 9.43215 127.582 11.0557C130.656 12.797 133.611 14.7231 136.433 16.8189V133.093C136.433 134.015 135.685 134.762 134.763 134.762Z" fill="#D3D3D8"/>
<path d="M127.583 11.0562V124.242C127.583 125.164 126.835 125.912 125.913 125.912H12.9832C6.38698 113.637 2.70213 99.5634 2.8531 84.617C3.32568 37.8037 38.9264 -0.128923 85.7417 0.000329332C100.95 0.0424114 115.224 4.0549 127.583 11.0562Z" fill="#ECECF1"/>
<path d="M30.0681 125.912H10.1345C3.53835 113.637 -0.146498 99.5634 0.00446295 84.617C0.477051 37.8037 38.926 -0.128923 85.7412 0.000329332C93.49 0.0217043 100.996 1.07409 108.131 3.02723C107.571 3.01487 107.01 3.00786 106.448 3.00619C59.633 2.87694 21.1841 40.8096 20.7115 87.6228C20.5729 101.363 24.4414 114.366 30.0681 125.912Z" fill="#D3D3D8"/>
<path d="M70.1367 105.269C70.1367 106.191 69.3889 106.938 68.4668 106.938H31.1895C30.2673 106.938 29.5195 106.191 29.5195 105.269C29.5195 104.346 30.2673 103.599 31.1895 103.599H68.4668C69.3892 103.599 70.1367 104.346 70.1367 105.269ZM111.885 10.083H91.8457C90.9236 10.083 90.1758 10.8308 90.1758 11.7529C90.1758 12.6751 90.9236 13.4229 91.8457 13.4229H111.885C112.807 13.4229 113.555 12.6751 113.555 11.7529C113.555 10.8308 112.807 10.083 111.885 10.083ZM111.885 16.6992H101.865C100.943 16.6992 100.195 17.447 100.195 18.3692C100.195 19.2913 100.943 20.0391 101.865 20.0391H111.885C112.807 20.0391 113.555 19.2913 113.555 18.3692C113.555 17.447 112.807 16.6992 111.885 16.6992ZM31.1895 56.8408H92.6619C93.5841 56.8408 94.3319 56.093 94.3319 55.1709C94.3319 54.2488 93.5841 53.501 92.6619 53.501H31.1895C30.2673 53.501 29.5195 54.2488 29.5195 55.1709C29.5195 56.0934 30.2673 56.8408 31.1895 56.8408ZM100.603 60.8486H31.1895C30.2673 60.8486 29.5195 61.5964 29.5195 62.5186C29.5195 63.4407 30.2673 64.1885 31.1895 64.1885H100.603C101.526 64.1885 102.273 63.4407 102.273 62.5186C102.273 61.5964 101.526 60.8486 100.603 60.8486ZM108.545 45.8193H31.1895C30.2673 45.8193 29.5195 46.5671 29.5195 47.4893C29.5195 48.4114 30.2673 49.1592 31.1895 49.1592H108.545C109.467 49.1592 110.215 48.4114 110.215 47.4893C110.215 46.5671 109.467 45.8193 108.545 45.8193Z" fill="#B9B9BE"/>
<path d="M44.959 35.4658C44.959 36.3879 44.2112 37.1357 43.289 37.1357H31.1895C30.2673 37.1357 29.5195 36.3879 29.5195 35.4658C29.5195 34.5437 30.2673 33.7959 31.1895 33.7959H43.2887C44.2112 33.7959 44.959 34.5437 44.959 35.4658ZM65.1269 26.4482H31.1895C30.2673 26.4482 29.5195 27.196 29.5195 28.1182C29.5195 29.0403 30.2673 29.7881 31.1895 29.7881H65.1269C66.0491 29.7881 66.7969 29.0403 66.7969 28.1182C66.7969 27.196 66.0494 26.4482 65.1269 26.4482Z" fill="#8C96DD"/>
<path d="M77.1723 89.3343C77.1723 90.2565 76.4248 91.0042 75.5024 91.0042H63.7024L61.6928 93.0135C61.3344 93.3722 60.8321 93.5469 60.3281 93.4924C59.8238 93.4367 59.3726 93.1544 59.1011 92.7263L55.7806 87.4827L49.4399 97.7097C49.1326 98.2056 48.5929 98.4995 48.0211 98.4995C47.9356 98.4995 47.8491 98.4928 47.763 98.4795C47.1003 98.376 46.5636 97.8857 46.401 97.2344L42.3825 81.159L36.9616 90.1937C36.66 90.6966 36.1163 91.0046 35.5298 91.0046H28.0342C27.1117 91.0046 26.3643 90.2568 26.3643 89.3347C26.3643 88.4125 27.1117 87.6647 28.0342 87.6647H34.5836L41.5923 75.984C41.9396 75.4048 42.6006 75.0909 43.2699 75.1914C43.9378 75.2906 44.4802 75.7829 44.6439 76.4382L48.6824 92.5927L54.3461 83.4579C54.6491 82.9692 55.1821 82.6707 55.7576 82.668H55.7652C56.3374 82.668 56.8697 82.9609 57.1763 83.4445L60.8064 89.177L61.8294 88.154C62.1427 87.8407 62.5672 87.6651 63.01 87.6651H75.5017C76.4245 87.6644 77.1723 88.4122 77.1723 89.3343ZM83.6229 87.6644H83.1416C82.2191 87.6644 81.4717 88.4122 81.4717 89.3343C81.4717 90.2565 82.2191 91.0042 83.1416 91.0042H83.6229C84.5453 91.0042 85.2928 90.2565 85.2928 89.3343C85.2928 88.4122 84.5453 87.6644 83.6229 87.6644Z" fill="#232E7A"/>
<path d="M105.205 98.08C104.283 98.08 103.535 97.3322 103.535 96.41V75.2578C103.535 74.3357 104.283 73.5879 105.205 73.5879C106.127 73.5879 106.875 74.3357 106.875 75.2578V96.41C106.875 97.3322 106.127 98.08 105.205 98.08ZM105.205 143.613C107.972 143.613 110.215 145.856 110.215 148.623V156.972C110.215 158.817 108.72 160.312 106.875 160.312H103.535C101.691 160.312 100.195 158.817 100.195 156.972V148.623C100.195 145.856 102.438 143.613 105.205 143.613Z" fill="#232E7A"/>
<path d="M105.205 153.633C102.438 153.633 100.195 151.39 100.195 148.623V111.885C100.195 109.118 102.438 106.875 105.205 106.875C107.972 106.875 110.215 109.118 110.215 111.885V148.623C110.215 151.39 107.972 153.633 105.205 153.633Z" fill="#3342AE"/>
<path d="M105.205 120.234C102.438 120.234 100.195 117.991 100.195 115.225V85.166C100.195 82.3993 102.438 80.1562 105.205 80.1562C107.972 80.1562 110.215 82.3993 110.215 85.166V115.225C110.215 117.991 107.972 120.234 105.205 120.234Z" fill="#3D4EC6"/>
<path d="M110.215 91.8457H100.195C99.2732 91.8457 98.5254 91.0979 98.5254 90.1758C98.5254 89.2537 99.2732 88.5059 100.195 88.5059H110.215C111.137 88.5059 111.885 89.2537 111.885 90.1758C111.885 91.0979 111.137 91.8457 110.215 91.8457ZM111.885 124.334V118.446C111.885 117.523 111.137 116.776 110.215 116.776C109.292 116.776 108.545 117.523 108.545 118.446V125.007C108.545 125.45 108.721 125.874 109.034 126.188C114.734 131.887 114.889 141.063 109.501 146.953H100.195C99.2732 146.953 98.5254 147.701 98.5254 148.623C98.5254 149.545 99.2732 150.293 100.195 150.293H110.215C110.642 150.293 111.07 150.13 111.395 149.804C118.391 142.809 118.554 131.529 111.885 124.334Z" fill="#7CD2E3"/>
<path d="M108.545 150.293H104.231C103.309 150.293 102.562 149.545 102.562 148.623C102.562 147.701 103.309 146.953 104.231 146.953H108.545C109.467 146.953 110.215 147.701 110.215 148.623C110.215 149.545 109.467 150.293 108.545 150.293ZM110.215 90.1758C110.215 89.2537 109.467 88.5059 108.545 88.5059H104.231C103.309 88.5059 102.562 89.2537 102.562 90.1758C102.562 91.0979 103.309 91.8457 104.231 91.8457H108.545C109.467 91.8457 110.215 91.0979 110.215 90.1758Z" fill="#A6E0EC"/>
</g>
<defs>
<clipPath id="clip0_374_2841">
<rect width="171" height="171" fill="white"/>
</clipPath>
</defs>
</svg>
