<svg width="60" height="60" viewBox="0 0 60 60" fill="none" xmlns="http://www.w3.org/2000/svg">
<path d="M21 29C20.4477 29 20 29.4477 20 30C20 30.5523 20.4477 31 21 31L21 29ZM39 31C39.5523 31 40 30.5523 40 30C40 29.4477 39.5523 29 39 29V31ZM31 21C31 20.4477 30.5523 20 30 20C29.4477 20 29 20.4477 29 21H31ZM29 39C29 39.5523 29.4477 40 30 40C30.5523 40 31 39.5523 31 39H29ZM21 31L30 31V29L21 29L21 31ZM30 31L39 31V29L30 29V31ZM29 21V30H31V21H29ZM29 30L29 39H31L31 30H29Z" fill="#464F60" fill-opacity="0.5"/>
<circle cx="30" cy="30" r="22.5" stroke="#464F60" stroke-opacity="0.5" stroke-width="2" stroke-linecap="round" stroke-linejoin="round"/>
</svg>
