<svg xmlns="http://www.w3.org/2000/svg" width="51" height="52" fill="none" viewBox="0 0 51 52">
  <path fill="#464F60" d="M50.849 31.05a1.001 1.001 0 0 0-.86-.488h-.18l-7.256-16.17h1.699c1.138 0 2.065-.937 2.065-2.089 0-1.151-.927-2.089-2.065-2.089H27.733v-2.75a4.085 4.085 0 0 0 1.794-3.39C29.527 1.829 27.72 0 25.5 0s-4.027 1.828-4.027 4.075c0 1.411.712 2.657 1.793 3.389v2.75H6.745c-1.138 0-2.064.938-2.064 2.09 0 1.151.926 2.088 2.065 2.088h1.698L1.19 30.562h-.18a1 1 0 0 0-.86.488c-.185.304-.2.677-.04.997l1.312 2.611a2.946 2.946 0 0 0 2.64 1.64h11.602a2.943 2.943 0 0 0 2.64-1.64l1.311-2.611c.16-.319.146-.692-.039-.997a1 1 0 0 0-.861-.488h-.18l-7.255-16.17h11.985v28.504h-5.449c-1.337 0-2.425 1.1-2.425 2.454v1.333h-1.207c-1.337 0-2.426 1.101-2.426 2.454v2.098a.76.76 0 0 0 .756.765h25.97a.76.76 0 0 0 .755-.765v-2.098c0-1.353-1.088-2.454-2.425-2.454h-1.207V45.35c0-1.353-1.088-2.454-2.426-2.454h-5.448V20.823a.76.76 0 0 0-.756-.764.76.76 0 0 0-.756.764v22.073h-1.447V13.628a.76.76 0 0 0-.756-.765H6.747a.557.557 0 0 1-.553-.56c0-.309.248-.56.553-.56H24.02a.76.76 0 0 0 .756-.764V8.085l.086.014.043.007a6.302 6.302 0 0 0 .2.025l.14.011.06.004c.058.003.116.004.173.004h.044c.058 0 .116-.002.173-.004.02 0 .04-.003.061-.004l.139-.01.054-.007c.05-.005.097-.011.146-.018l.043-.007.085-.014v2.894a.76.76 0 0 0 .756.765h17.275c.305 0 .554.25.554.56a.557.557 0 0 1-.554.559H26.98a.76.76 0 0 0-.756.765v3.573a.76.76 0 0 0 .756.764.76.76 0 0 0 .756-.764v-2.809H39.72l-7.255 16.17h-.18c-.354 0-.676.183-.861.488-.185.305-.2.678-.04.997l1.312 2.611a2.946 2.946 0 0 0 2.64 1.64h11.601a2.943 2.943 0 0 0 2.64-1.64l1.312-2.611c.16-.319.145-.692-.04-.997v-.001ZM33.18 44.425c.504 0 .915.416.915.926v1.333h-11.56a.76.76 0 0 0-.756.765.76.76 0 0 0 .756.765h14.278a.92.92 0 0 1 .914.925v1.333H13.27V49.14c0-.51.41-.925.915-.925h4.844a.76.76 0 0 0 .756-.765.76.76 0 0 0-.756-.765h-2.126v-1.333c0-.51.41-.925.914-.925h15.365Zm-16.224-10.46a1.44 1.44 0 0 1-1.293.803H4.062a1.442 1.442 0 0 1-1.293-.803l-.942-1.874H17.9l-.942 1.874Zm-.072-3.403H2.84L9.863 14.91l7.023 15.652v.001Zm9.73-24.205c-.026.014-.054.026-.083.04-.014.005-.028.013-.042.019a2.673 2.673 0 0 1-.17.066l-.079.026-.073.021-.055.016-.077.018-.056.012a.98.98 0 0 1-.075.013l-.062.01-.07.009a2.029 2.029 0 0 1-.079.007c-.019 0-.038.003-.056.004a2.098 2.098 0 0 1-.277 0l-.056-.004a2.029 2.029 0 0 1-.079-.007l-.07-.01-.062-.009-.076-.013-.056-.012c-.025-.006-.051-.011-.076-.018l-.055-.016-.074-.02-.079-.027-.074-.028-.096-.038-.042-.02c-.028-.013-.055-.025-.083-.04a2.552 2.552 0 0 1-1.4-2.28c0-1.405 1.129-2.546 2.516-2.546 1.388 0 2.517 1.142 2.517 2.546a2.55 2.55 0 0 1-1.4 2.28Zm14.52 8.552 7.023 15.652H34.112l7.023-15.652Zm7.094 19.056a1.44 1.44 0 0 1-1.293.802h-11.6a1.44 1.44 0 0 1-1.293-.803L33.1 32.09h16.072l-.942 1.874Z"/>
</svg>
