<svg width="171" height="171" viewBox="0 0 171 171" fill="none" xmlns="http://www.w3.org/2000/svg">
<g clip-path="url(#clip0_368_2256)">
<path d="M85.5 171C132.72 171 171 132.72 171 85.5C171 38.2797 132.72 0 85.5 0C38.2797 0 0 38.2797 0 85.5C0 132.72 38.2797 171 85.5 171Z" fill="#7584F2"/>
<path d="M171 85.5001C171.003 79.7573 170.431 74.0286 169.29 68.4001L140.06 39.1698L124.292 52.1685L105.903 33.7793H61.1959L39.1797 143.189L64.3554 168.365C71.2665 170.12 78.3696 171.005 85.5 171C132.722 171 171 132.722 171 85.5001Z" fill="#4855B7"/>
<path d="M133.55 32.6538L140.05 39.1531L125.425 53.7716L118.922 47.2723L133.55 32.6538Z" fill="#FC6825"/>
<path d="M148.583 65.9385V75.1464H127.896V65.9385H148.583Z" fill="#FC6825"/>
<path d="M106.641 87.7813H46.9011V55.141C46.857 50.7298 47.6877 46.3536 49.3452 42.2655C51.0028 38.1773 53.4543 34.4583 56.558 31.3234C59.6617 28.1885 63.356 25.6999 67.4274 24.0015C71.4988 22.3032 75.8664 21.4287 80.2778 21.4287C84.6892 21.4287 89.0569 22.3032 93.1282 24.0015C97.1996 25.6999 100.894 28.1885 103.998 31.3234C107.101 34.4583 109.553 38.1773 111.21 42.2655C112.868 46.3536 113.699 50.7298 113.655 55.141H99.6272C99.6609 52.5786 99.1852 50.035 98.228 47.658C97.2707 45.2809 95.8508 43.1176 94.0507 41.2937C92.2506 39.4698 90.1061 38.0216 87.7418 37.0331C85.3775 36.0447 82.8404 35.5357 80.2778 35.5357C77.7152 35.5357 75.1781 36.0447 72.8138 37.0331C70.4495 38.0216 68.3051 39.4698 66.505 41.2937C64.7049 43.1176 63.285 45.2809 62.3277 47.658C61.3704 50.035 60.8948 52.5786 60.9284 55.141V73.7539H106.641V87.7813Z" fill="white"/>
<path d="M80.2768 35.7896C85.4074 35.7949 90.3263 37.8353 93.9542 41.4632C97.5821 45.0911 99.6225 50.01 99.6278 55.1406H113.655C113.65 46.2897 110.132 37.8029 103.873 31.5444C97.6145 25.2859 89.1276 21.7675 80.2768 21.7622H80.1064V35.7896H80.2768Z" fill="#E9EDF5"/>
<path d="M80.1064 73.7539H106.641V87.7812H80.1064V73.7539Z" fill="white"/>
<path d="M39.1797 71.2656H121.373V143.189H39.1797V71.2656Z" fill="#FFCE00"/>
<path d="M80.1064 71.2656H121.374V143.189H80.1098L80.1064 71.2656Z" fill="#FDBA12"/>
<path d="M89.9853 100.115C89.9836 98.4518 89.5546 96.8166 88.7393 95.3666C87.924 93.9166 86.7498 92.7003 85.3293 91.8345C83.9088 90.9688 82.2897 90.4825 80.6273 90.4224C78.9649 90.3622 77.3149 90.7303 75.8355 91.4911C74.3562 92.252 73.0972 93.3802 72.1793 94.7676C71.2614 96.1549 70.7153 97.7548 70.5935 99.4139C70.4716 101.073 70.7781 102.735 71.4835 104.242C72.189 105.749 73.2697 107.049 74.622 108.017V125.468H85.9106V108.017C87.1715 107.121 88.1993 105.936 88.9082 104.562C89.6171 103.187 89.9864 101.662 89.9853 100.115Z" fill="#636978"/>
<path d="M80.2768 90.4063H80.1064V125.475H85.9211V108.017C87.5957 106.822 88.8473 105.125 89.4952 103.172C90.1431 101.22 90.1538 99.1113 89.5258 97.1519C88.8978 95.1926 87.6636 93.4834 86.0013 92.2709C84.3389 91.0585 82.3343 90.4055 80.2768 90.4063Z" fill="#414952"/>
</g>
<defs>
<clipPath id="clip0_368_2256">
<rect width="171" height="171" fill="white"/>
</clipPath>
</defs>
</svg>
