<svg width="171" height="171" viewBox="0 0 171 171" fill="none" xmlns="http://www.w3.org/2000/svg">
<path d="M170.971 85.5C170.971 38.279 132.699 0 85.4856 0C38.2738 0 0 38.279 0 85.5C0 132.721 38.2738 171 85.4856 171C132.699 171 170.971 132.721 170.971 85.5Z" fill="#407FFF"/>
<path d="M136.579 16.9458C147.222 31.2015 153.523 48.8883 153.523 68.048C153.523 115.268 115.25 153.548 68.0364 153.548C48.8806 153.548 31.1964 147.245 16.9434 136.602C32.5297 157.481 57.4298 171 85.4858 171C132.699 171 170.971 132.721 170.971 85.5C170.971 57.4388 157.456 32.5348 136.579 16.9458Z" fill="#406AEF"/>
<path d="M82.7262 99.5756L86.7196 103.57H67.5064C63.5781 103.57 60.3936 106.755 60.3936 110.684C60.3936 114.613 63.5781 117.799 67.5064 117.799H86.8957L82.9179 121.778C80.1404 124.555 80.1404 129.06 82.9179 131.838C85.6955 134.617 90.1991 134.617 92.9766 131.838L103.98 120.833L108.131 116.682C111.394 113.418 111.394 108.127 108.131 104.863L103.98 100.712L92.7848 89.5143C90.0164 86.7446 85.5259 86.7446 82.7562 89.5143L82.7262 89.5456C79.9564 92.3153 79.9564 96.8059 82.7262 99.5756Z" fill="#E3FAFF"/>
<path d="M108.131 104.863L103.98 100.712L92.7846 89.5143C90.4128 87.1411 86.7794 86.8085 84.0449 88.5019C84.5028 88.785 84.9373 89.119 85.3339 89.5143L96.5289 100.712L100.68 104.863C103.943 108.126 103.943 113.418 100.68 116.68L96.5289 120.833L85.5257 131.838C85.1252 132.239 84.6842 132.576 84.2224 132.86C86.9634 134.551 90.6007 134.215 92.9777 131.838L103.981 120.833L108.131 116.68C111.394 113.418 111.394 108.126 108.131 104.863Z" fill="#CCF4FF"/>
<path d="M88.246 49.2157L84.2513 53.2105H103.466C107.394 53.2105 110.579 56.3951 110.579 60.3246C110.579 64.2541 107.394 67.4387 103.466 67.4387H84.0751L88.0542 71.4179C90.8318 74.1954 90.8318 78.7003 88.0542 81.4791C85.2754 84.2567 80.7718 84.2567 77.9943 81.4791L66.9911 70.4733L62.8397 66.322C59.5769 63.0578 59.5769 57.7675 62.8397 54.5034L66.9911 50.352L78.1861 39.1544C80.9558 36.3847 85.4463 36.3847 88.2147 39.1544L88.246 39.1858C91.0144 41.9555 91.0144 46.446 88.246 49.2157Z" fill="#E3FAFF"/>
<path d="M84.0756 67.4385H78.0352L82.013 71.4176C84.7918 74.1964 84.7918 78.7 82.013 81.4789C81.4141 82.079 80.7305 82.5408 80.0038 82.8813C82.6405 84.1194 85.876 83.6563 88.0547 81.4789C90.8322 78.7 90.8322 74.1951 88.0547 71.4176L84.0756 67.4385Z" fill="#CCF4FF"/>
<path d="M82.1744 39.1556L82.2044 39.1856C84.9741 41.9553 84.9741 46.4458 82.2044 49.2155L78.2109 53.2103H84.2514L88.2461 49.2155C91.0145 46.4458 91.0145 41.9553 88.2461 39.1856L88.2148 39.1556C86.0413 36.9807 82.8097 36.5215 80.1796 37.7609C80.9011 38.1001 81.5782 38.5593 82.1744 39.1556Z" fill="#CCF4FF"/>
<path d="M103.467 53.2104H97.4248C101.354 53.2104 104.539 56.395 104.539 60.3246C104.539 64.2541 101.354 67.4387 97.4248 67.4387H103.467C107.395 67.4387 110.579 64.2541 110.579 60.3246C110.579 56.395 107.395 53.2104 103.467 53.2104Z" fill="#CCF4FF"/>
</svg>
