<svg width="35" height="32" viewBox="0 0 35 32" fill="none" xmlns="http://www.w3.org/2000/svg">
<g clip-path="url(#clip0_2659_7598)">
<path fill-rule="evenodd" clip-rule="evenodd" d="M10.0176 28.6964L14.6024 29.9113V28.3226L14.9766 27.9487H17.5965V29.8179V31.1263H14.7895L11.3275 29.631L10.0176 28.6964Z" fill="#CDBDB2"/>
<path fill-rule="evenodd" clip-rule="evenodd" d="M24.9883 28.6964L20.4971 29.9113V28.3226L20.1228 27.9487H17.5029V29.8179V31.1263H20.3099L23.7719 29.631L24.9883 28.6964Z" fill="#CDBDB2"/>
<path fill-rule="evenodd" clip-rule="evenodd" d="M14.9768 25.2388L14.6025 28.3228L15.0704 27.949H19.9359L20.4973 28.3228L20.123 25.2388L19.3745 24.7715L15.6318 24.8649L14.9768 25.2388Z" fill="#393939"/>
<path fill-rule="evenodd" clip-rule="evenodd" d="M12.4502 4.39795L14.6958 9.63153L15.7251 24.865H19.3742L20.497 9.63153L22.5555 4.39795H12.4502Z" fill="#F89C35"/>
<path fill-rule="evenodd" clip-rule="evenodd" d="M2.62574 15.8931L0.00585938 23.4631L6.55557 23.0892H10.7661V19.8182L10.579 13.0894L9.64329 13.837L2.62574 15.8931Z" fill="#F89D35"/>
<path fill-rule="evenodd" clip-rule="evenodd" d="M7.58496 16.7344L15.2575 16.9213L14.4154 20.8465L10.7663 19.9119L7.58496 16.7344Z" fill="#D87C30"/>
<path fill-rule="evenodd" clip-rule="evenodd" d="M7.58496 16.8276L10.7663 19.8183V22.8089L7.58496 16.8276Z" fill="#EA8D3A"/>
<path fill-rule="evenodd" clip-rule="evenodd" d="M10.7656 19.9116L14.5083 20.8462L15.7247 24.8648L14.8826 25.3321L10.7656 22.9022V19.9116Z" fill="#F89D35"/>
<path fill-rule="evenodd" clip-rule="evenodd" d="M10.7661 22.9023L10.0176 28.6967L14.9767 25.2388L10.7661 22.9023Z" fill="#EB8F35"/>
<path fill-rule="evenodd" clip-rule="evenodd" d="M15.257 16.9209L15.7248 24.8647L14.3213 20.7994L15.257 16.9209Z" fill="#EA8E3A"/>
<path fill-rule="evenodd" clip-rule="evenodd" d="M6.46191 22.9958L10.766 22.9023L10.0175 28.6967L6.46191 22.9958Z" fill="#D87C30"/>
<path fill-rule="evenodd" clip-rule="evenodd" d="M2.06434 31.2198L10.0176 28.6965L6.462 22.9956L0.00585938 23.4629L2.06434 31.2198Z" fill="#EB8F35"/>
<path fill-rule="evenodd" clip-rule="evenodd" d="M14.6961 9.63135L10.6727 12.9958L7.58496 16.7341L15.2575 17.0144L14.6961 9.63135Z" fill="#E8821E"/>
<path fill-rule="evenodd" clip-rule="evenodd" d="M10.0176 28.6967L14.9767 25.2388L14.6024 28.2294V29.9116L11.234 29.2574L10.0176 28.6967Z" fill="#DFCEC3"/>
<path fill-rule="evenodd" clip-rule="evenodd" d="M24.9883 28.6967L20.1228 25.2388L20.4971 28.2294V29.9116L23.8655 29.2574L24.9883 28.6967Z" fill="#DFCEC3"/>
<path fill-rule="evenodd" clip-rule="evenodd" d="M13.1993 18.6035L14.2285 20.753L10.5794 19.8185L13.1993 18.6035Z" fill="#393939"/>
<path fill-rule="evenodd" clip-rule="evenodd" d="M1.9707 0.00537109L14.6959 9.63142L12.5438 4.39784L1.9707 0.00537109Z" fill="#E88F35"/>
<path fill-rule="evenodd" clip-rule="evenodd" d="M1.97034 0.00537109L0.286133 5.14549L1.22181 10.7529L0.566835 11.1267L1.50251 11.9678L0.753969 12.622L1.78321 13.5566L1.12824 14.1173L2.62532 15.9865L9.64286 13.837C13.0737 11.0956 14.7579 9.69372 14.6955 9.63142C14.6331 9.56911 10.3914 6.36043 1.97034 0.00537109Z" fill="#8E5A30"/>
<path fill-rule="evenodd" clip-rule="evenodd" d="M32.3801 15.8931L35 23.4631L28.4503 23.0892H24.2398V19.8182L24.4269 13.0894L25.3626 13.837L32.3801 15.8931Z" fill="#F89D35"/>
<path fill-rule="evenodd" clip-rule="evenodd" d="M27.4209 16.7344L19.7484 16.9213L20.5905 20.8465L24.2396 19.9119L27.4209 16.7344Z" fill="#D87C30"/>
<path fill-rule="evenodd" clip-rule="evenodd" d="M27.4209 16.8276L24.2396 19.8183V22.8089L27.4209 16.8276Z" fill="#EA8D3A"/>
<path fill-rule="evenodd" clip-rule="evenodd" d="M24.2402 19.9116L20.4975 20.8462L19.2812 24.8648L20.1233 25.3321L24.2402 22.9022V19.9116Z" fill="#F89D35"/>
<path fill-rule="evenodd" clip-rule="evenodd" d="M24.2397 22.9023L24.9883 28.6967L20.1228 25.3322L24.2397 22.9023Z" fill="#EB8F35"/>
<path fill-rule="evenodd" clip-rule="evenodd" d="M19.7489 16.9209L19.2811 24.8647L20.6846 20.7994L19.7489 16.9209Z" fill="#EA8E3A"/>
<path fill-rule="evenodd" clip-rule="evenodd" d="M28.5439 22.9958L24.2399 22.9023L24.9884 28.6967L28.5439 22.9958Z" fill="#D87C30"/>
<path fill-rule="evenodd" clip-rule="evenodd" d="M32.9415 31.2198L24.9883 28.6965L28.5439 22.9956L35 23.4629L32.9415 31.2198Z" fill="#EB8F35"/>
<path fill-rule="evenodd" clip-rule="evenodd" d="M20.3098 9.63135L24.3332 12.9958L27.4209 16.7341L19.7484 17.0144L20.3098 9.63135Z" fill="#E8821E"/>
<path fill-rule="evenodd" clip-rule="evenodd" d="M21.8066 18.6035L20.7773 20.753L24.4265 19.8185L21.8066 18.6035Z" fill="#393939"/>
<path fill-rule="evenodd" clip-rule="evenodd" d="M33.0352 0.00537109L20.31 9.63142L22.462 4.39784L33.0352 0.00537109Z" fill="#E88F35"/>
<path fill-rule="evenodd" clip-rule="evenodd" d="M33.0355 0.00537109L34.7197 5.14549L33.7841 10.7529L34.439 11.1267L33.5034 11.9678L34.2519 12.622L33.2227 13.5566L33.8776 14.1173L32.3805 15.9865L25.363 13.837C21.9322 11.0956 20.248 9.69372 20.3104 9.63142C20.3727 9.56911 24.6145 6.36043 33.0355 0.00537109Z" fill="#8E5A30"/>
</g>
<defs>
<clipPath id="clip0_2659_7598">
<rect width="35" height="31.2308" fill="white"/>
</clipPath>
</defs>
</svg>
