<svg width="36" height="19" viewBox="0 0 36 19" fill="none" xmlns="http://www.w3.org/2000/svg">
<g clip-path="url(#clip0_116_5745)">
<path fill-rule="evenodd" clip-rule="evenodd" d="M35.8675 4.23896L35.8219 4.00169C35.3289 1.52401 33.3113 0 30.5292 0H24.5546H5.48824C2.70398 0 0.668995 1.53999 0.175994 4.01993L0.130387 4.2572C0.0413419 4.79791 -0.00209425 5.33633 7.75647e-05 5.9934V12.9313C0.00405877 13.7217 0.0737227 14.3052 0.08532 14.4023L0.0869502 14.4166L0.0912937 14.4417C0.419237 17.2958 2.43685 19 5.48824 19H22.5478H22.6021H23.5881H23.5903C23.7488 19 23.8769 18.8654 23.8769 18.6989V18.6966V7.46265V7.46037C23.8769 7.29383 23.7488 7.15922 23.5903 7.15922H23.5881H22.5478H22.5456C22.3871 7.15922 22.259 7.29383 22.259 7.46037V7.46265V17.3095H5.8922C3.18178 17.3095 1.62676 15.5733 1.62459 12.9929L1.62676 5.97742C1.62676 3.37428 3.18178 1.6974 5.8922 1.6974H27.5017H30.1253C32.8357 1.6974 34.3733 3.35603 34.3733 5.95918L34.3755 12.9724C34.3733 15.5527 32.8335 17.298 30.1231 17.298L29.5693 17.3049C29.4542 17.306 29.3467 17.3066 29.2391 17.3072C29.1317 17.3077 29.0241 17.3083 28.909 17.3095H28.5985C28.4399 17.3095 28.3118 17.4441 28.3118 17.6106V17.6128V18.6897V18.692C28.3118 18.8585 28.4399 18.9932 28.5985 18.9932H28.807L29.326 18.9909C29.4237 18.9909 29.5213 18.9886 29.619 18.9863H29.6192H30.5314C33.5828 18.9863 35.5808 17.2729 35.9087 14.4211L35.9131 14.396L35.9148 14.382C35.9266 14.2858 35.998 13.7019 36 12.9108V5.97514C36 5.31808 35.9544 4.77966 35.8675 4.23896ZM14.9813 12.2879C14.9813 13.4241 15.6589 14.1975 16.6688 14.1975H17.1205C17.2791 14.1975 17.4094 14.0628 17.4094 13.8941V12.9449V12.9427C17.4094 12.8651 17.3811 12.7876 17.3268 12.7283C17.2704 12.6689 17.1965 12.6393 17.1227 12.6416H17.1205H16.6015V5.05112V5.04883C16.6015 4.88229 16.4733 4.74768 16.3148 4.74768H16.3126H16.3104H15.2701H15.268C15.1094 4.74768 14.9813 4.88229 14.9813 5.04883V12.2879ZM18.6212 8.07627V8.07405C18.6212 7.90748 18.7493 7.77287 18.9078 7.77287H18.91H19.9503H19.9525C20.111 7.77287 20.2392 7.90748 20.2392 8.07405V8.07627V12.6438H20.7452H20.7473C20.8212 12.6415 20.895 12.6712 20.9515 12.7305C20.9776 12.7579 20.9993 12.7921 21.0123 12.8263C21.0253 12.8651 21.034 12.9039 21.034 12.9426V12.9449V13.8941V13.8963C21.034 14.0628 20.9059 14.1974 20.7473 14.1974H20.7452H20.3108C19.3009 14.1974 18.6212 13.4332 18.6212 12.297V8.07627ZM13.7411 5.17675C13.7453 5.16946 13.7477 5.16125 13.75 5.1533C13.7513 5.14879 13.7526 5.14437 13.7542 5.14024C13.7607 5.11972 13.765 5.09918 13.765 5.07864C13.7672 5.06724 13.7607 4.99652 13.7585 4.98054C13.7498 4.94405 13.7346 4.91438 13.7173 4.88245L13.714 4.87676C13.7091 4.8679 13.7049 4.86034 13.6977 4.85278C13.6912 4.84593 13.6847 4.83966 13.6781 4.83339V4.83334C13.6716 4.82708 13.6651 4.82082 13.6586 4.814C13.6521 4.80944 13.6461 4.80487 13.6402 4.80031C13.6341 4.79575 13.6282 4.79118 13.6217 4.78662C13.618 4.78469 13.6143 4.78259 13.6107 4.78044C13.6011 4.77499 13.5913 4.76936 13.5805 4.76609C13.5544 4.75468 13.4827 4.74555 13.4827 4.74555H12.2904H12.2882C12.2773 4.74555 12.2578 4.74555 12.247 4.74784L12.2322 4.75131C12.2126 4.75587 12.1986 4.75912 12.1775 4.76837C12.1427 4.78434 12.1101 4.80487 12.084 4.83453L8.41586 8.1472C8.01188 8.57153 7.97502 9.24461 8.33118 9.71233L12.0493 14.0653C12.0522 14.0698 12.0559 14.0733 12.06 14.0771C12.0622 14.0791 12.0644 14.0812 12.0667 14.0836L12.0797 14.0973C12.1036 14.1201 12.1297 14.1383 12.1579 14.152L12.1624 14.1541L12.1655 14.1555C12.1682 14.1566 12.1709 14.1577 12.1731 14.1589C12.2035 14.1703 12.2361 14.1794 12.2708 14.1794H12.273H13.4914H13.4936H13.4957C13.4979 14.1794 13.5001 14.1771 13.5023 14.1771C13.5326 14.1771 13.5631 14.1703 13.5891 14.1589C13.5999 14.1543 13.6108 14.1497 13.6239 14.1429C13.6413 14.1338 13.6586 14.1201 13.676 14.1064C13.6803 14.1018 13.6852 14.0978 13.6901 14.0938C13.6949 14.0898 13.6999 14.0859 13.7042 14.0813C13.7237 14.0585 13.7411 14.0334 13.7542 14.006V14.0047L13.7543 14.004C13.7546 14.0033 13.7551 14.0028 13.7563 14.0014C13.76 13.9938 13.7621 13.9846 13.764 13.9764L13.765 13.9718C13.7738 13.9467 13.7781 13.9193 13.7803 13.8942V13.8668C13.7781 13.8029 13.7585 13.7391 13.7194 13.6866L9.76672 8.92976L13.6847 5.26344C13.7086 5.23835 13.7281 5.20869 13.7411 5.17675ZM19.9481 6.41319H18.9057C18.7819 6.41319 18.6798 6.32877 18.6363 6.21698C18.6255 6.18504 18.6169 6.15081 18.6169 6.11431V5.04887V5.04659C18.6169 4.88233 18.745 4.75 18.9035 4.75H18.9057H19.946H19.9481C20.0654 4.75 20.1675 4.82529 20.2109 4.93252C20.2261 4.96674 20.2348 5.00781 20.2348 5.04887V6.11431C20.2348 6.15538 20.2261 6.19417 20.2109 6.23067C20.1675 6.33789 20.0676 6.41319 19.9481 6.41319ZM7.29947 5.03743C7.29947 4.87088 7.17133 4.73628 7.01279 4.73628H7.01062H5.97033H5.96815C5.9334 4.73628 5.90083 4.7454 5.86825 4.75681L5.84219 4.7705C5.82047 4.7819 5.80092 4.79559 5.78355 4.81157C5.78029 4.81499 5.77649 4.81841 5.77269 4.82183C5.76889 4.82526 5.76509 4.82868 5.76183 4.8321C5.74011 4.85491 5.72274 4.88229 5.70971 4.91195C5.70971 4.91423 5.70753 4.91651 5.70537 4.91879C5.69016 4.9553 5.68147 4.99408 5.68147 5.03743V13.8736C5.68147 13.9146 5.69016 13.9557 5.70537 13.9922C5.7488 14.1016 5.85088 14.1769 5.96815 14.1769H5.97033H7.01062H7.01279C7.17133 14.1769 7.29947 14.0423 7.29947 13.8758V13.8736V5.04199V5.03743ZM30.2513 11.1292L30.2382 11.1839C29.9863 12.4593 28.9851 13.2577 27.5799 13.26H26.6613H24.9521H24.9499C24.7913 13.26 24.6632 13.1254 24.6632 12.9589V12.9566V11.8798C24.6632 11.8702 24.6656 11.8606 24.6679 11.851C24.6695 11.8446 24.671 11.8382 24.6719 11.8319C24.6733 11.8243 24.6743 11.8167 24.6753 11.8091C24.6772 11.7938 24.6791 11.7786 24.6849 11.7634C24.698 11.7338 24.7153 11.7064 24.737 11.6813C24.7392 11.679 24.7408 11.6761 24.7425 11.6733C24.7441 11.6704 24.7457 11.6676 24.7479 11.6653C24.7501 11.663 24.7522 11.6619 24.7544 11.6607C24.7566 11.6596 24.7588 11.6585 24.7609 11.6562C24.7848 11.6356 24.8109 11.6151 24.8413 11.6014C24.8559 11.5952 24.8715 11.5932 24.8874 11.5912C24.8952 11.5902 24.903 11.5892 24.9107 11.5877C24.9172 11.5868 24.9227 11.585 24.9283 11.5833C24.9359 11.5809 24.9432 11.5786 24.9521 11.5786H26.6613H27.3714C28.3336 11.5786 28.8222 11.12 28.8222 10.2165V10.1846C28.8222 9.30169 28.3336 8.84315 27.3714 8.84315H26.6613H24.9521C24.9129 8.84315 24.8739 8.83397 24.8391 8.81806C24.7718 8.78837 24.7153 8.73129 24.6871 8.6583C24.6719 8.6218 24.6632 8.58072 24.6632 8.53971V7.46284C24.6632 7.37842 24.6958 7.30313 24.7479 7.24838C24.8 7.19363 24.8717 7.15941 24.9499 7.15941H26.6591H27.5452C29.0677 7.15941 30.1144 8.0583 30.2816 9.50475C30.286 9.52985 30.3881 10.2987 30.2621 11.0698L30.2513 11.1292Z" fill="black"/>
</g>
<defs>
<clipPath id="clip0_116_5745">
<rect width="36" height="19" fill="white"/>
</clipPath>
</defs>
</svg>
