<svg width="32" height="32" viewBox="0 0 32 32" fill="none" xmlns="http://www.w3.org/2000/svg">
<path fill-rule="evenodd" clip-rule="evenodd" d="M16.0649 2.375C15.5455 3.6275 8.3133 20.8974 7.8896 21.897C7.6922 22.3628 7.5306 22.7677 7.5306 22.7967C7.5306 22.8258 11.4006 18.9798 16.1306 14.25C20.8606 9.5202 24.7306 5.623 24.7306 5.5895C24.7306 5.556 23.9544 5.2 23.0056 4.7984C22.0568 4.3968 20.1851 3.6029 18.8461 3.0341C17.5072 2.4653 16.3686 2 16.316 2C16.2634 2 16.1504 2.1688 16.0649 2.375ZM8.39 9.0906L2 15.4812L2.0586 16.6156C2.1535 18.454 2.5598 19.9865 3.3895 21.6365C3.8911 22.6339 4.8708 24.1095 5.3121 24.5323L5.6046 24.8125L5.9612 23.9313C6.1573 23.4466 6.9777 21.475 7.7843 19.55C8.5908 17.625 9.6461 15.105 10.1293 13.95C10.6125 12.795 11.4235 10.86 11.9314 9.65C14.1323 4.4068 14.8375 2.7 14.8028 2.7C14.7903 2.7 11.9045 5.5758 8.39 9.0906ZM21.1429 10.7226L16.4152 15.4343L21.076 20.0922L25.7368 24.75L26.1846 24.25C26.7438 23.6256 27.7554 22.1441 28.1258 21.4071C30.0562 17.566 30.0257 12.8526 28.0457 9.0527C27.6665 8.325 26.8336 7.12 26.2256 6.4197L25.8707 6.0108L21.1429 10.7226ZM11.1934 20.6492C8.7255 23.1388 6.7072 25.2145 6.7084 25.262C6.7106 25.3506 7.2304 25.5732 12.6387 27.8015L15.7967 29.1026L16.5387 28.7934C16.9467 28.6234 18.7881 27.8614 20.6306 27.1001C22.4731 26.3388 24.2204 25.6149 24.5136 25.4913L25.0465 25.2667L20.464 20.6834C17.9436 18.1625 15.8362 16.1051 15.781 16.1113C15.7258 16.1176 13.6614 18.1596 11.1934 20.6492Z" fill="#4F473E"/>
</svg>
