<svg width="23" height="20" viewBox="0 0 23 20" fill="none" xmlns="http://www.w3.org/2000/svg">
<path d="M13.6562 1H8.59375C5.01402 1 3.22416 1 2.11208 2.12973C1 3.25946 1 5.07774 1 8.71428V11.2857C1 14.9223 1 16.7405 2.11208 17.8703C3.22416 19 5.01402 19 8.59375 19H13.6562C17.236 19 19.0258 19 20.1379 17.8703C21.25 16.7405 21.25 14.9223 21.25 11.2857V8.71429C21.25 5.07774 21.25 3.25946 20.1379 2.12973C19.0258 1 17.236 1 13.6562 1Z" stroke="#9BA4BB" stroke-width="2"/>
<path d="M5.5 5.5H8.875" stroke="#9BA4BB" stroke-width="2" stroke-linecap="round"/>
<path d="M14.5 12.5V12C14.5 11.0572 14.5 10.5858 14.7929 10.2929C15.0858 10 15.5572 10 16.5 10H19.25C20.1928 10 20.6642 10 20.9571 10.2929C21.25 10.5858 21.25 11.0572 21.25 12V12.5C21.25 13.4428 21.25 13.9142 20.9571 14.2071C20.6642 14.5 20.1928 14.5 19.25 14.5H16.5C15.5572 14.5 15.0858 14.5 14.7929 14.2071C14.5 13.9142 14.5 13.4428 14.5 12.5Z" stroke="#9BA4BB" stroke-width="2"/>
</svg>
