<svg xmlns="http://www.w3.org/2000/svg" width="42" height="35" fill="none" viewBox="0 0 42 35">
  <rect width="42" height="20" y="9" fill="#FC6825" fill-opacity=".1" rx="4"/>
  <path fill="#FC6825" d="M12.464 19.056c.448.08.828.316 1.14.708.312.392.468.836.468 1.332 0 .424-.112.808-.336 1.152-.216.336-.532.604-.948.804-.416.192-.9.288-1.452.288H8V15h3.18c.568 0 1.056.096 1.464.288.408.192.716.452.924.78.208.32.312.68.312 1.08 0 .48-.128.88-.384 1.2-.256.32-.6.556-1.032.708Zm-3.096-.552h1.692c.448 0 .796-.1 1.044-.3.256-.208.384-.504.384-.888 0-.376-.128-.668-.384-.876-.248-.216-.596-.324-1.044-.324H9.368v2.388Zm1.848 3.72c.464 0 .828-.112 1.092-.336.264-.224.396-.536.396-.936 0-.408-.14-.732-.42-.972-.28-.24-.652-.36-1.116-.36h-1.8v2.604h1.848Zm10.403-2.352c0 .248-.016.472-.048.672h-5.052c.04.528.236.952.588 1.272.352.32.784.48 1.296.48.736 0 1.256-.308 1.56-.924h1.476a2.998 2.998 0 0 1-1.092 1.5c-.52.384-1.168.576-1.944.576-.632 0-1.2-.14-1.704-.42a3.139 3.139 0 0 1-1.176-1.2c-.28-.52-.42-1.12-.42-1.8 0-.68.136-1.276.408-1.788.28-.52.668-.92 1.164-1.2.504-.28 1.08-.42 1.728-.42.624 0 1.18.136 1.668.408.488.272.868.656 1.14 1.152.272.488.408 1.052.408 1.692Zm-1.428-.432c-.008-.504-.188-.908-.54-1.212-.352-.304-.788-.456-1.308-.456-.472 0-.876.152-1.212.456-.336.296-.536.7-.6 1.212h3.66Zm4.369-1.596v3.66c0 .248.057.428.169.54.12.104.32.156.6.156h.84v1.14h-1.08c-.616 0-1.088-.144-1.416-.432-.328-.288-.492-.756-.492-1.404v-3.66h-.78v-1.116h.78v-1.644h1.38v1.644h1.608v1.116H24.56Zm2.414 2.16c0-.664.136-1.252.408-1.764a3.047 3.047 0 0 1 2.712-1.62c.52 0 .972.104 1.356.312.392.2.704.452.936.756v-.96h1.38v6.612h-1.38v-.984a2.717 2.717 0 0 1-.948.78c-.4.208-.856.312-1.368.312a2.938 2.938 0 0 1-1.56-.432 3.206 3.206 0 0 1-1.128-1.224c-.272-.528-.408-1.124-.408-1.788Zm5.412.024c0-.456-.096-.852-.288-1.188a1.938 1.938 0 0 0-.732-.768 1.93 1.93 0 0 0-.984-.264c-.352 0-.68.088-.984.264-.304.168-.552.42-.744.756-.184.328-.276.72-.276 1.176 0 .456.092.856.276 1.2.192.344.44.608.744.792a1.974 1.974 0 0 0 1.968 0c.304-.176.548-.432.732-.768.192-.344.288-.744.288-1.2Z"/>
</svg>
