<svg xmlns="http://www.w3.org/2000/svg" width="77" height="22" fill="none" viewBox="0 0 77 22">
  <rect width="75.935" height="20.935" x=".532" y=".532" fill="url(#a)" rx="4.468"/>
  <path fill="#fff" fill-opacity=".9" d="M12.315 15h-1.95c-.165 0-.286-.035-.364-.104-.07-.078-.104-.2-.104-.364V6.108c0-.165.035-.282.104-.351.078-.078.2-.117.364-.117h1.352a.99.99 0 0 1 .416.078.994.994 0 0 1 .351.273l2.522 2.886V6.108c0-.165.035-.282.104-.351.078-.078.2-.117.364-.117h1.95c.165 0 .282.039.351.117.078.07.117.186.117.351v8.424c0 .165-.039.286-.117.364-.07.07-.186.104-.351.104h-1.95c-.165 0-.286-.035-.364-.104-.07-.078-.104-.2-.104-.364v-1.599l-2.223-2.691v4.29c0 .165-.039.286-.117.364-.07.07-.186.104-.351.104Zm15.3-2.457c0 .399-.06.763-.182 1.092a1.8 1.8 0 0 1-.624.832c-.295.225-.706.403-1.235.533-.52.13-1.183.195-1.989.195s-1.473-.065-2.002-.195c-.529-.13-.945-.308-1.248-.533a1.925 1.925 0 0 1-.624-.832 3.355 3.355 0 0 1-.169-1.092V8.11c0-.399.056-.758.17-1.079.12-.33.328-.611.623-.845.303-.234.72-.416 1.248-.546.529-.13 1.196-.195 2.002-.195.806 0 1.47.065 1.99.195.528.13.94.312 1.234.546.303.234.511.516.624.845.121.32.182.68.182 1.079v4.433Zm-5.122-.468c0 .173.065.32.195.442.13.113.43.169.897.169.468 0 .767-.056.897-.169a.582.582 0 0 0 .195-.442V8.578a.53.53 0 0 0-.195-.416c-.13-.121-.429-.182-.897-.182s-.767.06-.897.182a.53.53 0 0 0-.195.416v3.497Zm9.715-4.095v1.664h.975c.225 0 .377-.056.455-.169a.8.8 0 0 0 .117-.442v-.442a.737.737 0 0 0-.117-.429c-.078-.121-.23-.182-.455-.182h-.975ZM31.74 15h-2.002c-.165 0-.286-.035-.364-.104-.07-.078-.104-.2-.104-.364V6.108c0-.165.035-.282.104-.351.078-.078.2-.117.364-.117h4.329c.97 0 1.638.204 2.002.611.373.399.559.919.559 1.56v.598c0 .364-.056.676-.169.936a.99.99 0 0 1-.559.546c.468.052.845.243 1.131.572.295.33.442.767.442 1.313v2.756c0 .165-.039.286-.117.364-.07.07-.186.104-.351.104H34.99c-.165 0-.286-.035-.364-.104-.07-.078-.104-.2-.104-.364v-1.989c0-.19-.039-.33-.117-.416-.07-.095-.195-.143-.377-.143h-1.82v2.548c0 .165-.039.286-.117.364-.07.07-.186.104-.351.104Zm9.596 0H39.4c-.165 0-.286-.035-.364-.104-.07-.078-.104-.2-.104-.364V6.108c0-.165.035-.282.104-.351.078-.078.2-.117.364-.117h2.093c.139 0 .252.03.338.091a.82.82 0 0 1 .26.299l1.17 2.119c.044.078.078.134.104.169a.176.176 0 0 0 .13.052h.117c.052 0 .091-.017.117-.052a.794.794 0 0 0 .117-.169l1.157-2.119a.89.89 0 0 1 .247-.299.64.64 0 0 1 .351-.091h2.106c.165 0 .282.039.351.117.078.07.117.186.117.351v8.424c0 .165-.039.286-.117.364-.07.07-.186.104-.35.104h-2.003c-.165 0-.286-.035-.364-.104-.07-.078-.104-.2-.104-.364V9.956l-.767 1.417a.818.818 0 0 1-.286.325.793.793 0 0 1-.403.091h-.52a.868.868 0 0 1-.416-.091.865.865 0 0 1-.273-.325l-.767-1.417v4.576c0 .165-.039.286-.117.364-.07.07-.186.104-.35.104Zm12.02-6.63-.61 1.976h2.04l-.61-1.976a.444.444 0 0 0-.118-.169.176.176 0 0 0-.13-.052h-.325c-.052 0-.1.017-.143.052a.571.571 0 0 0-.104.169Zm-.74 6.162c0 .165-.04.286-.118.364-.069.07-.186.104-.35.104h-1.912c-.164 0-.286-.035-.364-.104-.069-.078-.104-.2-.104-.364V11.1c0-.26.04-.559.117-.897.087-.338.217-.732.39-1.183l1.131-2.951a.623.623 0 0 1 .234-.325.807.807 0 0 1 .43-.104h3.496c.165 0 .3.035.403.104a.6.6 0 0 1 .247.325l1.131 2.951c.174.45.3.845.377 1.183.087.338.13.637.13.897v3.432c0 .165-.039.286-.117.364-.069.07-.186.104-.35.104h-1.964c-.173 0-.303-.035-.39-.104-.078-.078-.117-.2-.117-.364v-1.82h-2.3v1.82ZM66.543 15h-6.616c-.165 0-.286-.035-.364-.104-.07-.078-.105-.2-.105-.364V6.108c0-.165.035-.282.104-.351.078-.078.2-.117.364-.117h2.016c.164 0 .281.039.35.117.078.07.117.186.117.351v6.435h1.782v-2.106c0-.165.034-.282.104-.351.078-.078.199-.117.363-.117h1.885c.165 0 .282.039.352.117.078.07.117.186.117.351v4.095c0 .165-.04.286-.118.364-.069.07-.186.104-.35.104Z"/>
  <rect width="75.935" height="20.935" x=".532" y=".532" stroke="url(#b)" stroke-width="1.065" rx="4.468"/>
  <defs>
    <linearGradient id="a" x1="4.961" x2="8.868" y1="6.479" y2="27.516" gradientUnits="userSpaceOnUse">
      <stop stop-color="#6A748A"/>
      <stop offset=".505" stop-color="#9BA4BB"/>
      <stop offset="1" stop-color="#687492"/>
    </linearGradient>
    <linearGradient id="b" x1="4.4" x2="51.552" y1="1.222" y2="46.312" gradientUnits="userSpaceOnUse">
      <stop stop-color="#9BA4BB"/>
      <stop offset=".469" stop-color="#E6EBF2"/>
      <stop offset="1" stop-color="#525E7C"/>
    </linearGradient>
  </defs>
</svg>
