<svg xmlns="http://www.w3.org/2000/svg" width="52" height="22" fill="none" viewBox="0 0 52 22">
  <rect width="50.65" height="20.65" x=".675" y=".675" fill="url(#a)" rx="4.325"/>
  <path fill="#fff" fill-opacity=".9" d="M16.397 16h-6.032c-.165 0-.286-.035-.364-.104-.07-.078-.104-.2-.104-.364V7.108c0-.165.035-.282.104-.351.078-.078.2-.117.364-.117h6.032c.165 0 .282.039.351.117.078.07.117.186.117.351v1.521c0 .165-.039.286-.117.364-.07.07-.186.104-.351.104h-3.588v1.001h2.535c.165 0 .282.039.351.117.078.07.117.186.117.351v1.391c0 .165-.039.286-.117.364-.07.07-.186.104-.351.104h-2.535v1.118h3.588c.165 0 .282.039.351.117.078.07.117.186.117.351v1.521c0 .165-.039.286-.117.364-.07.07-.186.104-.351.104Zm4.489 0H18.87c-.165 0-.286-.035-.364-.104-.07-.078-.104-.2-.104-.364V7.108c0-.165.035-.282.104-.351.078-.078.2-.117.364-.117h3.978c1.178 0 1.985.234 2.418.702.433.468.65 1.079.65 1.833v1.664c0 .754-.217 1.365-.65 1.833-.433.468-1.24.702-2.418.702h-1.495v2.158c0 .165-.04.286-.117.364-.07.07-.186.104-.351.104Zm.442-6.929v1.963h1.17c.251 0 .416-.065.494-.195a.842.842 0 0 0 .117-.442v-.689a.842.842 0 0 0-.117-.442c-.078-.13-.243-.195-.494-.195h-1.17ZM27.524 16c-.165 0-.286-.035-.364-.104-.07-.078-.104-.2-.104-.364v-1.547c0-.165.035-.282.104-.351.078-.078.2-.117.364-.117h1.287V9.149h-1.287c-.165 0-.286-.035-.364-.104-.07-.078-.104-.2-.104-.364V7.108c0-.165.035-.282.104-.351.078-.078.2-.117.364-.117h5.538c.165 0 .282.039.351.117.078.07.117.186.117.351v1.573c0 .165-.039.286-.117.364-.07.07-.186.104-.35.104H31.8v4.368h1.261c.165 0 .282.039.351.117.078.07.117.186.117.351v1.547c0 .165-.039.286-.117.364-.07.07-.186.104-.35.104h-5.539Zm13.838 0H38.19c-1.083 0-1.89-.217-2.418-.65-.52-.433-.78-1.1-.78-2.002V9.305c0-.901.26-1.569.78-2.002.529-.442 1.335-.663 2.418-.663h3.172c.165 0 .282.039.351.117.078.07.117.186.117.351v1.573c0 .165-.039.286-.117.364-.07.07-.186.104-.35.104h-2.614c-.268 0-.468.056-.598.169-.13.104-.195.264-.195.481v3.094c0 .217.065.377.195.481.13.095.33.143.598.143h2.613c.165 0 .282.039.351.117.078.07.117.186.117.351v1.547c0 .165-.039.286-.117.364-.07.07-.186.104-.35.104Z"/>
  <rect width="50.65" height="20.65" x=".675" y=".675" stroke="url(#b)" stroke-width="1.35" rx="4.325"/>
  <defs>
    <linearGradient id="a" x1="3.351" x2="8.914" y1="6.479" y2="26.711" gradientUnits="userSpaceOnUse">
      <stop stop-color="#633E88"/>
      <stop offset=".505" stop-color="#7955B4"/>
      <stop offset="1" stop-color="#6D21CD"/>
    </linearGradient>
    <linearGradient id="b" x1="2.971" x2="45.992" y1="1.222" y2="29.004" gradientUnits="userSpaceOnUse">
      <stop stop-color="#E0C2ED"/>
      <stop offset=".469" stop-color="#AA83D2"/>
      <stop offset="1" stop-color="#9874B5"/>
    </linearGradient>
  </defs>
</svg>
