<svg xmlns="http://www.w3.org/2000/svg" width="56" height="22" fill="none" viewBox="0 0 56 22">
  <rect width="54.935" height="20.935" x=".532" y=".532" fill="url(#a)" rx="4.468"/>
  <path fill="#fff" fill-opacity=".9" d="M12.835 7.98v1.664h.975c.225 0 .377-.056.455-.169a.8.8 0 0 0 .117-.442v-.442a.737.737 0 0 0-.117-.429c-.078-.121-.23-.182-.455-.182h-.975ZM12.367 15h-2.002c-.165 0-.286-.035-.364-.104-.07-.078-.104-.2-.104-.364V6.108c0-.165.035-.282.104-.351.078-.078.2-.117.364-.117h4.329c.97 0 1.638.204 2.002.611.373.399.559.919.559 1.56v.598c0 .364-.056.676-.169.936a.99.99 0 0 1-.559.546c.468.052.845.243 1.131.572.295.33.442.767.442 1.313v2.756c0 .165-.039.286-.117.364-.07.07-.186.104-.351.104h-2.015c-.165 0-.286-.035-.364-.104-.07-.078-.104-.2-.104-.364v-1.989c0-.19-.039-.33-.117-.416-.07-.095-.195-.143-.377-.143h-1.82v2.548c0 .165-.039.286-.117.364-.07.07-.186.104-.351.104Zm10.584-6.63-.61 1.976h2.04l-.61-1.976a.442.442 0 0 0-.118-.169.176.176 0 0 0-.13-.052h-.325c-.052 0-.1.017-.143.052a.573.573 0 0 0-.104.169Zm-.74 6.162c0 .165-.04.286-.118.364-.07.07-.186.104-.35.104H19.83c-.165 0-.286-.035-.364-.104-.07-.078-.104-.2-.104-.364V11.1c0-.26.04-.559.117-.897.087-.338.217-.732.39-1.183L21 6.069a.623.623 0 0 1 .234-.325.807.807 0 0 1 .43-.104h3.496c.165 0 .3.035.403.104a.6.6 0 0 1 .247.325l1.131 2.951c.174.45.3.845.377 1.183.087.338.13.637.13.897v3.432c0 .165-.039.286-.117.364-.07.07-.186.104-.35.104h-1.964c-.173 0-.303-.035-.39-.104-.078-.078-.117-.2-.117-.364v-1.82h-2.3v1.82Zm9.781-6.552v1.664h.975c.226 0 .377-.056.455-.169a.8.8 0 0 0 .117-.442v-.442a.737.737 0 0 0-.117-.429c-.078-.121-.23-.182-.455-.182h-.975ZM31.524 15h-2.002c-.164 0-.286-.035-.364-.104-.07-.078-.104-.2-.104-.364V6.108c0-.165.035-.282.104-.351.078-.078.2-.117.364-.117h4.33c.97 0 1.637.204 2.001.611.373.399.56.919.56 1.56v.598c0 .364-.057.676-.17.936a.99.99 0 0 1-.559.546c.468.052.845.243 1.131.572.295.33.442.767.442 1.313v2.756c0 .165-.039.286-.117.364-.07.07-.186.104-.35.104h-2.016c-.164 0-.286-.035-.364-.104-.07-.078-.104-.2-.104-.364v-1.989c0-.19-.039-.33-.117-.416-.07-.095-.195-.143-.377-.143h-1.82v2.548c0 .165-.039.286-.117.364-.07.07-.186.104-.35.104Zm13.691 0h-6.032c-.164 0-.286-.035-.364-.104-.069-.078-.104-.2-.104-.364V6.108c0-.165.035-.282.104-.351.078-.078.2-.117.364-.117h6.032c.165 0 .282.039.351.117.078.07.117.186.117.351v1.521c0 .165-.039.286-.117.364-.069.07-.186.104-.35.104h-3.589v1.001h2.535c.165 0 .282.039.351.117.078.07.117.186.117.351v1.391c0 .165-.039.286-.117.364-.069.07-.186.104-.35.104h-2.536v1.118h3.588c.165 0 .282.039.351.117.078.07.117.186.117.351v1.521c0 .165-.039.286-.117.364-.069.07-.186.104-.35.104Z"/>
  <rect width="54.935" height="20.935" x=".532" y=".532" stroke="url(#b)" stroke-width="1.065" rx="4.468"/>
  <defs>
    <linearGradient id="a" x1="3.608" x2="8.824" y1="6.479" y2="26.909" gradientUnits="userSpaceOnUse">
      <stop stop-color="#1270E9"/>
      <stop offset=".505" stop-color="#57A0FF"/>
      <stop offset="1" stop-color="#105BBC"/>
    </linearGradient>
    <linearGradient id="b" x1="3.2" x2="47.449" y1="1.222" y2="31.995" gradientUnits="userSpaceOnUse">
      <stop stop-color="#A6C3ED"/>
      <stop offset=".469" stop-color="#96B8E0"/>
      <stop offset="1" stop-color="#A6C3ED"/>
    </linearGradient>
  </defs>
</svg>
