<svg xmlns="http://www.w3.org/2000/svg" width="74" height="22" fill="none" viewBox="0 0 74 22">
  <rect width="72.935" height="20.935" x=".532" y=".532" fill="url(#a)" rx="4.468"/>
  <path fill="#fff" fill-opacity=".9" d="M17.866 12.543c0 .399-.06.763-.182 1.092a1.8 1.8 0 0 1-.624.832c-.295.225-.702.403-1.222.533s-1.183.195-1.989.195S12.38 15.13 11.86 15s-.932-.308-1.235-.533a1.925 1.925 0 0 1-.624-.832 3.356 3.356 0 0 1-.169-1.092V6.108c0-.165.035-.282.104-.351.078-.078.2-.117.364-.117h2.041c.165 0 .282.039.351.117.078.07.117.186.117.351v5.928c0 .173.065.32.195.442.13.113.42.169.871.169.46 0 .754-.056.884-.169a.582.582 0 0 0 .195-.442V6.108c0-.165.035-.282.104-.351.078-.078.2-.117.364-.117h1.976c.165 0 .282.039.351.117.078.07.117.186.117.351v6.435ZM22.014 15h-1.95c-.164 0-.286-.035-.364-.104-.07-.078-.104-.2-.104-.364V6.108c0-.165.035-.282.104-.351.078-.078.2-.117.364-.117h1.352a.99.99 0 0 1 .416.078.992.992 0 0 1 .351.273l2.522 2.886V6.108c0-.165.035-.282.104-.351.078-.078.2-.117.364-.117h1.95c.165 0 .282.039.351.117.078.07.117.186.117.351v8.424c0 .165-.039.286-.117.364-.07.07-.186.104-.35.104h-1.95c-.165 0-.287-.035-.365-.104-.07-.078-.104-.2-.104-.364v-1.599l-2.223-2.691v4.29c0 .165-.039.286-.117.364-.07.07-.186.104-.35.104Zm7.63 0c-.164 0-.286-.035-.364-.104-.069-.078-.104-.2-.104-.364v-1.547c0-.165.035-.282.104-.351.078-.078.2-.117.364-.117h1.287V8.149h-1.287c-.164 0-.286-.035-.364-.104-.069-.078-.104-.2-.104-.364V6.108c0-.165.035-.282.104-.351.078-.078.2-.117.364-.117h5.538c.165 0 .282.039.351.117.078.07.117.186.117.351v1.573c0 .165-.039.286-.117.364-.069.07-.186.104-.35.104H33.92v4.368h1.261c.165 0 .282.039.351.117.078.07.117.186.117.351v1.547c0 .165-.039.286-.117.364-.069.07-.186.104-.35.104h-5.539Zm12.5 1.17H40.14c-.164 0-.286-.039-.364-.117-.069-.07-.104-.186-.104-.351v-.715c-1.005-.147-1.685-.446-2.04-.897-.347-.46-.52-1.014-.52-1.664V8.11c0-.399.056-.758.168-1.079.122-.33.33-.611.624-.845.304-.234.72-.416 1.248-.546.53-.13 1.196-.195 2.002-.195.806 0 1.47.065 1.99.195.528.13.94.312 1.234.546.304.234.512.516.624.845.122.32.182.68.182 1.079v4.316c0 .33-.039.637-.117.923a1.877 1.877 0 0 1-.403.741c-.19.217-.455.403-.793.559-.329.156-.75.269-1.26.338v.715c0 .165-.04.282-.118.351-.069.078-.186.117-.35.117Zm-2.08-4.03c0 .173.064.32.194.442.13.113.43.169.897.169.468 0 .767-.056.897-.169a.582.582 0 0 0 .195-.442V8.591a.53.53 0 0 0-.195-.416c-.13-.121-.429-.182-.897-.182s-.767.06-.897.182a.53.53 0 0 0-.195.416v3.549Zm14.745.403c0 .399-.06.763-.182 1.092a1.8 1.8 0 0 1-.624.832c-.294.225-.702.403-1.222.533s-1.183.195-1.989.195-1.469-.065-1.989-.195-.931-.308-1.235-.533a1.925 1.925 0 0 1-.624-.832 3.355 3.355 0 0 1-.169-1.092V6.108c0-.165.035-.282.104-.351.078-.078.2-.117.364-.117h2.041c.165 0 .282.039.351.117.078.07.117.186.117.351v5.928c0 .173.065.32.195.442.13.113.42.169.871.169.46 0 .754-.056.884-.169a.582.582 0 0 0 .195-.442V6.108c0-.165.035-.282.104-.351.078-.078.2-.117.364-.117h1.976c.165 0 .282.039.351.117.078.07.117.186.117.351v6.435ZM63.04 15h-6.031c-.165 0-.286-.035-.364-.104-.07-.078-.104-.2-.104-.364V6.108c0-.165.034-.282.104-.351.078-.078.199-.117.364-.117h6.032c.164 0 .281.039.35.117.079.07.118.186.118.351v1.521c0 .165-.04.286-.117.364-.07.07-.187.104-.351.104h-3.588v1.001h2.535c.164 0 .281.039.35.117.079.07.118.186.118.351v1.391c0 .165-.04.286-.117.364-.07.07-.187.104-.351.104h-2.535v1.118h3.588c.164 0 .281.039.35.117.079.07.118.186.118.351v1.521c0 .165-.04.286-.117.364-.07.07-.187.104-.351.104Z"/>
  <rect width="72.935" height="20.935" x=".532" y=".532" stroke="url(#b)" stroke-width="1.065" rx="4.468"/>
  <defs>
    <linearGradient id="a" x1="4.768" x2="8.821" y1="6.479" y2="27.458" gradientUnits="userSpaceOnUse">
      <stop offset=".104" stop-color="#00B16E"/>
      <stop offset=".505" stop-color="#00D678"/>
      <stop offset=".911" stop-color="#00966D"/>
    </linearGradient>
    <linearGradient id="b" x1="4.229" x2="51.26" y1="1.222" y2="44.444" gradientUnits="userSpaceOnUse">
      <stop stop-color="#89FBC9"/>
      <stop offset=".469" stop-color="#00C170"/>
      <stop offset="1" stop-color="#00966D"/>
    </linearGradient>
  </defs>
</svg>
