<svg xmlns="http://www.w3.org/2000/svg" width="101" height="22" fill="none" viewBox="0 0 101 22">
  <rect width="99.935" height="20.935" x=".532" y=".532" fill="url(#a)" rx="4.468"/>
  <path fill="#fff" fill-opacity=".9" d="M16.982 15h-6.617c-.165 0-.286-.035-.364-.104-.07-.078-.104-.2-.104-.364V6.108c0-.165.035-.282.104-.351.078-.078.2-.117.364-.117h2.015c.165 0 .282.039.351.117.078.07.117.186.117.351v6.435h1.781v-2.106c0-.165.035-.282.104-.351.078-.078.2-.117.364-.117h1.885c.165 0 .282.039.351.117.078.07.117.186.117.351v4.095c0 .165-.039.286-.117.364-.07.07-.186.104-.351.104Zm8.454 0h-6.032c-.165 0-.286-.035-.364-.104-.07-.078-.104-.2-.104-.364V6.108c0-.165.035-.282.104-.351.078-.078.2-.117.364-.117h6.032c.165 0 .282.039.351.117.078.07.117.186.117.351v1.521c0 .165-.039.286-.117.364-.07.07-.186.104-.35.104h-3.589v1.001h2.535c.165 0 .282.039.351.117.078.07.117.186.117.351v1.391c0 .165-.039.286-.117.364-.07.07-.186.104-.35.104h-2.536v1.118h3.588c.165 0 .282.039.351.117.078.07.117.186.117.351v1.521c0 .165-.039.286-.117.364-.07.07-.186.104-.35.104Zm9.092 0h-4.095c-1.083 0-1.889-.217-2.418-.65-.52-.433-.78-1.1-.78-2.002V8.292c0-.901.26-1.569.78-2.002.53-.433 1.335-.65 2.418-.65h3.25c.165 0 .282.039.351.117.078.07.117.186.117.351v1.573c0 .165-.039.286-.117.364-.069.07-.186.104-.35.104h-2.705c-.268 0-.468.056-.598.169-.13.104-.195.264-.195.481v3.107c0 .217.048.377.143.481.104.104.256.156.455.156h1.261v-2.028c0-.165.035-.282.104-.351.078-.078.2-.117.364-.117h2.015c.165 0 .282.039.351.117.078.07.117.186.117.351v4.017c0 .165-.039.286-.117.364-.069.07-.186.104-.35.104Zm8.555 0H37.05c-.165 0-.287-.035-.364-.104-.07-.078-.104-.2-.104-.364V6.108c0-.165.034-.282.104-.351.078-.078.199-.117.364-.117h6.032c.164 0 .281.039.35.117.078.07.117.186.117.351v1.521c0 .165-.038.286-.116.364-.07.07-.187.104-.351.104h-3.588v1.001h2.535c.164 0 .281.039.35.117.078.07.117.186.117.351v1.391c0 .165-.038.286-.117.364-.069.07-.186.104-.35.104h-2.535v1.118h3.588c.164 0 .281.039.35.117.078.07.117.186.117.351v1.521c0 .165-.038.286-.116.364-.07.07-.187.104-.351.104Zm4.423 0h-1.95c-.164 0-.286-.035-.364-.104-.069-.078-.104-.2-.104-.364V6.108c0-.165.035-.282.104-.351.078-.078.2-.117.364-.117h1.352a.99.99 0 0 1 .416.078.994.994 0 0 1 .351.273l2.522 2.886V6.108c0-.165.035-.282.104-.351.078-.078.2-.117.364-.117h1.95c.165 0 .282.039.351.117.078.07.117.186.117.351v8.424c0 .165-.039.286-.117.364-.069.07-.186.104-.35.104h-1.95c-.165 0-.287-.035-.365-.104-.069-.078-.104-.2-.104-.364v-1.599l-2.223-2.691v4.29c0 .165-.039.286-.117.364-.069.07-.186.104-.35.104Zm12.22 0h-4.382c-.164 0-.285-.035-.364-.104-.069-.078-.103-.2-.103-.364V6.108c0-.165.034-.282.103-.351.079-.078.2-.117.364-.117h4.381c1.084 0 1.886.217 2.405.65.53.433.793 1.1.793 2.002v4.056c0 .901-.264 1.569-.793 2.002-.52.433-1.321.65-2.405.65Zm-1.898-6.877v4.42h1.546c.209 0 .36-.052.456-.156.104-.104.156-.264.156-.481V8.747c0-.217-.052-.373-.156-.468-.096-.104-.247-.156-.456-.156h-1.547Zm10.14.247-.61 1.976h2.04l-.61-1.976a.444.444 0 0 0-.117-.169.176.176 0 0 0-.13-.052h-.325c-.052 0-.1.017-.143.052a.571.571 0 0 0-.104.169Zm-.74 6.162c0 .165-.04.286-.117.364-.07.07-.187.104-.351.104h-1.911c-.165 0-.286-.035-.364-.104-.07-.078-.104-.2-.104-.364V11.1c0-.26.039-.559.117-.897.086-.338.216-.732.39-1.183l1.13-2.951a.623.623 0 0 1 .235-.325.807.807 0 0 1 .429-.104h3.497c.164 0 .299.035.403.104.112.07.195.178.247.325l1.13 2.951c.174.45.3.845.378 1.183.086.338.13.637.13.897v3.432c0 .165-.04.286-.117.364-.07.07-.187.104-.351.104h-1.963c-.174 0-.304-.035-.39-.104-.078-.078-.117-.2-.117-.364v-1.82h-2.301v1.82ZM77.01 7.98v1.664h.975c.225 0 .377-.056.455-.169a.8.8 0 0 0 .117-.442v-.442a.737.737 0 0 0-.117-.429c-.078-.121-.23-.182-.455-.182h-.975ZM76.542 15H74.54c-.165 0-.286-.035-.364-.104-.07-.078-.104-.2-.104-.364V6.108c0-.165.034-.282.104-.351.078-.078.2-.117.364-.117h4.329c.97 0 1.638.204 2.002.611.373.399.559.919.559 1.56v.598c0 .364-.056.676-.17.936a.99.99 0 0 1-.558.546c.468.052.845.243 1.13.572.296.33.443.767.443 1.313v2.756c0 .165-.04.286-.117.364-.07.07-.186.104-.351.104h-2.015c-.165 0-.286-.035-.364-.104-.07-.078-.104-.2-.104-.364v-1.989c0-.19-.04-.33-.117-.416-.07-.095-.195-.143-.377-.143h-1.82v2.548c0 .165-.04.286-.117.364-.07.07-.186.104-.351.104Zm11.542 0h-2.106c-.164 0-.286-.035-.364-.104-.069-.078-.104-.2-.104-.364v-1.664l-1.989-2.665c-.199-.269-.333-.503-.403-.702-.06-.2-.09-.498-.09-.897V6.108c0-.165.034-.282.103-.351.078-.078.2-.117.364-.117h2.002c.165 0 .282.039.351.117.078.07.117.186.117.351V8.24c0 .087.005.178.013.273a.559.559 0 0 0 .104.273l.598.936a.569.569 0 0 0 .13.169.32.32 0 0 0 .182.052h.13c.07 0 .126-.017.17-.052a.475.475 0 0 0 .142-.169l.598-.936a.56.56 0 0 0 .104-.273c.009-.095.013-.186.013-.273V6.108c0-.165.035-.282.104-.351.078-.078.2-.117.364-.117h1.937c.165 0 .282.039.351.117.078.07.117.186.117.351v2.496c0 .399-.034.698-.104.897-.069.2-.199.433-.39.702l-1.976 2.678v1.651c0 .165-.039.286-.117.364-.069.07-.186.104-.35.104Z"/>
  <rect width="99.935" height="20.935" x=".532" y=".532" stroke="url(#b)" stroke-width="1.065" rx="4.468"/>
  <defs>
    <linearGradient id="a" x1="6.508" x2="9.528" y1="6.479" y2="27.813" gradientUnits="userSpaceOnUse">
      <stop stop-color="#D36921"/>
      <stop offset=".474" stop-color="#F7834E"/>
      <stop offset="1" stop-color="#D85233"/>
    </linearGradient>
    <linearGradient id="b" x1="5.771" x2="51.785" y1="1.222" y2="58.937" gradientUnits="userSpaceOnUse">
      <stop stop-color="#FFAD75"/>
      <stop offset=".469" stop-color="#FF8751"/>
      <stop offset="1" stop-color="#F07035"/>
    </linearGradient>
  </defs>
</svg>
