<svg xmlns="http://www.w3.org/2000/svg" width="60" height="35" fill="none" viewBox="0 0 60 35">
  <rect width="60" height="20" y="9" fill="#FC6825" fill-opacity=".1" rx="4"/>
  <path fill="#FC6825" d="M13.43 14.66v1.116h-2.22V23H9.84v-7.224H7.61V14.66h5.82Zm7.445 4.872c0 .248-.016.472-.048.672h-5.052c.04.528.236.952.588 1.272.352.32.784.48 1.296.48.736 0 1.256-.308 1.56-.924h1.476a2.998 2.998 0 0 1-1.092 1.5c-.52.384-1.168.576-1.944.576-.632 0-1.2-.14-1.704-.42a3.139 3.139 0 0 1-1.176-1.2c-.28-.52-.42-1.12-.42-1.8 0-.68.136-1.276.408-1.788.28-.52.668-.92 1.164-1.2.504-.28 1.08-.42 1.728-.42.624 0 1.18.136 1.668.408.488.272.868.656 1.14 1.152.272.488.408 1.052.408 1.692Zm-1.428-.432c-.008-.504-.188-.908-.54-1.212-.352-.304-.788-.456-1.308-.456-.472 0-.876.152-1.212.456-.336.296-.536.7-.6 1.212h3.66Zm5.174 4.008c-.52 0-.988-.092-1.404-.276a2.536 2.536 0 0 1-.972-.768 1.943 1.943 0 0 1-.384-1.092h1.416a.99.99 0 0 0 .396.708c.248.184.556.276.924.276.384 0 .68-.072.888-.216.216-.152.324-.344.324-.576 0-.248-.12-.432-.36-.552-.232-.12-.604-.252-1.116-.396a10.83 10.83 0 0 1-1.212-.396 2.176 2.176 0 0 1-.816-.588c-.224-.264-.336-.612-.336-1.044 0-.352.104-.672.312-.96.208-.296.504-.528.888-.696.392-.168.84-.252 1.344-.252.752 0 1.356.192 1.812.576.464.376.712.892.744 1.548h-1.368a.974.974 0 0 0-.36-.708c-.216-.176-.508-.264-.876-.264-.36 0-.636.068-.828.204a.632.632 0 0 0-.288.54c0 .176.064.324.192.444s.284.216.468.288c.184.064.456.148.816.252.48.128.872.26 1.176.396.312.128.58.32.804.576.224.256.34.596.348 1.02 0 .376-.104.712-.312 1.008-.208.296-.504.528-.888.696-.376.168-.82.252-1.332.252Zm5.606-5.604v3.66c0 .248.056.428.168.54.12.104.32.156.6.156h.84V23h-1.08c-.616 0-1.088-.144-1.416-.432-.328-.288-.492-.756-.492-1.404v-3.66h-.78v-1.116h.78v-1.644h1.38v1.644h1.608v1.116h-1.608Zm6.205-1.224c.52 0 .984.108 1.392.324.416.216.74.536.972.96.232.424.348.936.348 1.536V23h-1.356v-3.696c0-.592-.148-1.044-.444-1.356-.296-.32-.7-.48-1.212-.48s-.92.16-1.224.48c-.296.312-.444.764-.444 1.356V23h-1.368v-6.612h1.368v.756c.224-.272.508-.484.852-.636a2.785 2.785 0 0 1 1.116-.228Zm10.517 3.252c0 .248-.016.472-.048.672h-5.052c.04.528.236.952.588 1.272.352.32.784.48 1.296.48.736 0 1.256-.308 1.56-.924h1.476a2.998 2.998 0 0 1-1.092 1.5c-.52.384-1.168.576-1.944.576-.632 0-1.2-.14-1.704-.42a3.139 3.139 0 0 1-1.176-1.2c-.28-.52-.42-1.12-.42-1.8 0-.68.136-1.276.408-1.788.28-.52.668-.92 1.164-1.2.504-.28 1.08-.42 1.728-.42.624 0 1.18.136 1.668.408.488.272.868.656 1.14 1.152.272.488.408 1.052.408 1.692Zm-1.428-.432c-.008-.504-.188-.908-.54-1.212-.352-.304-.788-.456-1.308-.456-.472 0-.876.152-1.212.456-.336.296-.536.7-.6 1.212h3.66Zm4.37-1.596v3.66c0 .248.056.428.168.54.12.104.32.156.6.156h.84V23h-1.08c-.616 0-1.088-.144-1.416-.432-.328-.288-.492-.756-.492-1.404v-3.66h-.78v-1.116h.78v-1.644h1.38v1.644H51.5v1.116h-1.608Z"/>
</svg>
